<svg width="16" height="15" viewBox="0 0 16 15" fill="none" xmlns="http://www.w3.org/2000/svg">
<path d="M4.54655 3.24303V3.84303C4.75679 3.84303 4.9517 3.73298 5.0603 3.55296L4.54655 3.24303ZM5.78613 1.18823V0.588232C5.57589 0.588232 5.38098 0.698279 5.27238 0.878303L5.78613 1.18823ZM10.3903 1.18823L10.9041 0.878303C10.7955 0.698279 10.6005 0.588232 10.3903 0.588232V1.18823ZM11.6299 3.24303L11.1161 3.55296C11.2247 3.73298 11.4196 3.84303 11.6299 3.84303V3.24303ZM1.60488 11.9759V4.95535H0.404883V11.9759H1.60488ZM2.77572 3.84303H4.54655V2.64303H2.77572V3.84303ZM5.0603 3.55296L6.29989 1.49816L5.27238 0.878303L4.03279 2.9331L5.0603 3.55296ZM5.78613 1.78823H10.3903V0.588232H5.78613V1.78823ZM9.87654 1.49816L11.1161 3.55296L12.1436 2.9331L10.9041 0.878303L9.87654 1.49816ZM11.6299 3.84303H13.4007V2.64303H11.6299V3.84303ZM14.5715 4.95536V11.9759H15.7715V4.95536H14.5715ZM14.5715 11.9759C14.5715 12.5714 14.0665 13.0882 13.4007 13.0882V14.2882C14.6909 14.2882 15.7715 13.2718 15.7715 11.9759H14.5715ZM13.4007 3.84303C14.0665 3.84303 14.5715 4.35987 14.5715 4.95536H15.7715C15.7715 3.65945 14.6909 2.64303 13.4007 2.64303V3.84303ZM1.60488 4.95535C1.60488 4.35987 2.10992 3.84303 2.77572 3.84303V2.64303C1.4855 2.64303 0.404883 3.65945 0.404883 4.95535H1.60488ZM2.77572 13.0882C2.10992 13.0882 1.60488 12.5714 1.60488 11.9759H0.404883C0.404883 13.2718 1.4855 14.2882 2.77572 14.2882V13.0882ZM10.1445 8.03755C10.1445 9.10588 9.24301 10.006 8.08822 10.006V11.206C9.86743 11.206 11.3445 9.8063 11.3445 8.03755H10.1445ZM8.08822 10.006C6.93342 10.006 6.03197 9.10588 6.03197 8.03755H4.83197C4.83197 9.8063 6.309 11.206 8.08822 11.206V10.006ZM6.03197 8.03755C6.03197 6.96922 6.93342 6.06905 8.08822 6.06905V4.86905C6.309 4.86905 4.83197 6.2688 4.83197 8.03755H6.03197ZM8.08822 6.06905C9.24301 6.06905 10.1445 6.96922 10.1445 8.03755H11.3445C11.3445 6.2688 9.86743 4.86905 8.08822 4.86905V6.06905ZM13.4007 13.0882H2.77572V14.2882H13.4007V13.0882Z" fill="#8A8A8A"/>
</svg>
