<svg width="41" height="40" viewBox="0 0 41 40" fill="none" xmlns="http://www.w3.org/2000/svg">
<g opacity="0.3">
<path fill-rule="evenodd" clip-rule="evenodd" d="M40.6758 20C40.6758 31.0457 31.7215 40 20.6758 40C9.63009 40 0.675781 31.0457 0.675781 20C0.675781 8.9543 9.63009 0 20.6758 0C31.7215 0 40.6758 8.9543 40.6758 20ZM12.6101 11.9343C12.9225 11.6219 13.429 11.6219 13.7415 11.9343L20.9791 19.1719L28.2167 11.9343C28.5291 11.6219 29.0356 11.6219 29.3481 11.9343C29.6605 12.2467 29.6605 12.7533 29.3481 13.0657L22.1105 20.3033L29.3481 27.5409C29.6605 27.8533 29.6605 28.3599 29.3481 28.6723C29.0356 28.9847 28.5291 28.9847 28.2167 28.6723L20.9791 21.4347L13.7415 28.6723C13.429 28.9847 12.9225 28.9847 12.6101 28.6723C12.2977 28.3599 12.2977 27.8533 12.6101 27.5409L19.8477 20.3033L12.6101 13.0657C12.2977 12.7533 12.2977 12.2467 12.6101 11.9343Z" fill="#323232"/>
</g>
</svg>
