<svg width="33" height="32" viewBox="0 0 33 32" fill="none" xmlns="http://www.w3.org/2000/svg">
<circle cx="16.5" cy="16" r="16" fill="#FF9F1C"/>
<path d="M22.3333 8.5H10.6667C9.74619 8.5 9 9.24619 9 10.1667V21.8333C9 22.7538 9.74619 23.5 10.6667 23.5H22.3333C23.2538 23.5 24 22.7538 24 21.8333V10.1667C24 9.24619 23.2538 8.5 22.3333 8.5Z" stroke="white" stroke-width="1.2" stroke-linecap="round" stroke-linejoin="round"/>
<path d="M13.5835 14.3333C14.2739 14.3333 14.8335 13.7736 14.8335 13.0833C14.8335 12.3929 14.2739 11.8333 13.5835 11.8333C12.8931 11.8333 12.3335 12.3929 12.3335 13.0833C12.3335 13.7736 12.8931 14.3333 13.5835 14.3333Z" stroke="white" stroke-width="1.2" stroke-linecap="round" stroke-linejoin="round"/>
<path d="M24.0003 18.4999L19.8337 14.3333L10.667 23.4999" stroke="white" stroke-width="1.2" stroke-linecap="round" stroke-linejoin="round"/>
</svg>
