<svg width="20" height="19" viewBox="0 0 20 19" fill="none" xmlns="http://www.w3.org/2000/svg">
<path d="M16.3717 3.6348C15.9848 3.23541 15.5255 2.91858 15.0199 2.70242C14.5143 2.48626 13.9724 2.375 13.4252 2.375C12.8779 2.375 12.336 2.48626 11.8305 2.70242C11.3249 2.91858 10.8655 3.23541 10.4787 3.6348L9.67574 4.4633L8.87283 3.6348C8.09136 2.82843 7.03146 2.37542 5.9263 2.37542C4.82114 2.37542 3.76124 2.82843 2.97977 3.6348C2.1983 4.44117 1.75928 5.53485 1.75928 6.67523C1.75928 7.81561 2.1983 8.90928 2.97977 9.71565L3.78268 10.5441L8.95763 15.884C9.35054 16.2894 10.0009 16.2894 10.3938 15.884L15.5688 10.5441L16.3717 9.71565C16.7588 9.31645 17.0658 8.84246 17.2753 8.32077C17.4848 7.79909 17.5926 7.23993 17.5926 6.67523C17.5926 6.11053 17.4848 5.55137 17.2753 5.02968C17.0658 4.508 16.7588 4.03401 16.3717 3.6348Z" stroke="#ABABAB" stroke-width="1.5" stroke-linecap="round" stroke-linejoin="round"/>
</svg>
