<svg width="20" height="19" viewBox="0 0 20 19" fill="none" xmlns="http://www.w3.org/2000/svg">
<path d="M16.8717 3.6348C16.4848 3.23541 16.0255 2.91858 15.5199 2.70242C15.0143 2.48626 14.4724 2.375 13.9252 2.375C13.3779 2.375 12.836 2.48626 12.3305 2.70242C11.8249 2.91858 11.3655 3.23541 10.9787 3.6348L10.1757 4.4633L9.37283 3.6348C8.59136 2.82843 7.53146 2.37542 6.4263 2.37542C5.32114 2.37542 4.26124 2.82843 3.47977 3.6348C2.6983 4.44117 2.25928 5.53485 2.25928 6.67523C2.25928 7.81561 2.6983 8.90928 3.47977 9.71565L4.28268 10.5441L9.45763 15.884C9.85054 16.2894 10.5009 16.2894 10.8938 15.884L16.0688 10.5441L16.8717 9.71565C17.2588 9.31645 17.5658 8.84246 17.7753 8.32077C17.9848 7.79909 18.0926 7.23993 18.0926 6.67523C18.0926 6.11053 17.9848 5.55137 17.7753 5.02968C17.5658 4.508 17.2588 4.03401 16.8717 3.6348Z" stroke="white" stroke-opacity="0.6" stroke-width="1.5" stroke-linecap="round" stroke-linejoin="round"/>
</svg>
