<svg width="33" height="32" viewBox="0 0 33 32" fill="none" xmlns="http://www.w3.org/2000/svg">
<circle cx="16.5" cy="16" r="16" fill="#FF9F1C"/>
<path d="M11.8809 14.1912L9.64822 16.4238C8.8144 17.2577 8.33489 18.3922 8.34366 19.5846C8.35242 20.777 8.82143 21.9184 9.69482 22.7648C10.5412 23.6383 11.6829 24.1072 12.8751 24.116C14.0945 24.125 15.2021 23.6725 16.036 22.8386L18.2686 20.606M21.1204 17.8088L23.353 15.5762C24.1869 14.7423 24.6664 13.6078 24.6576 12.4154C24.6488 11.223 24.1798 10.0816 23.3064 9.23516C22.4603 8.38899 21.3188 7.91995 20.1264 7.91119C18.934 7.90243 17.7993 8.35471 16.9654 9.18856L14.7328 11.4212M13.115 19.3259L19.8129 12.628" stroke="white" stroke-width="1.2" stroke-linecap="round" stroke-linejoin="round"/>
</svg>
