<svg width="76" height="111" viewBox="0 0 76 111" fill="none" xmlns="http://www.w3.org/2000/svg">
<path d="M61.9592 80.8659C66.0415 91.7367 73.5089 110.272 37.3685 110.272C1.22818 110.272 9.41287 91.9435 12.7778 80.8659C17.4302 65.5504 18.0947 60.0368 37.3685 60.0368C56.6423 60.0368 55.9777 64.9378 61.9592 80.8659Z" fill="#FFFAE6"/>
<path d="M73.6924 37.9825C81.7323 58.8116 58.7066 64.9378 38.0178 64.9378C17.3291 64.9378 -6.81167 58.8116 1.78575 37.9825C1.78575 20.2165 9.76905 0 38.0178 0C66.2666 0 72.4642 19.6039 73.6924 37.9825Z" fill="#FFFAE6"/>
<path d="M33.519 46.8559C36.0549 45.8766 38.8658 45.8766 41.4016 46.8559L48.4834 49.5905C50.5949 50.4059 50.2201 53.4933 47.9745 53.7824L38.8575 54.9559C37.9299 55.0753 36.9907 55.0753 36.0631 54.9559L26.9461 53.7824C24.7005 53.4933 24.3258 50.4059 26.4373 49.5905L33.519 46.8559Z" fill="#FFBF68"/>
<path d="M24.5344 41.4719C24.204 43.8173 23.336 45.2922 20.8955 45.2922C18.455 45.2922 18.1227 42.9647 18.4531 40.6193C18.7835 38.274 20.4127 36.5636 22.092 36.799C23.7713 37.0344 24.8648 39.1266 24.5344 41.4719Z" fill="#505050"/>
<path d="M22.7219 39.5141C22.7219 40.0216 22.3095 40.433 21.8008 40.433C21.292 40.433 20.8796 40.0216 20.8796 39.5141C20.8796 39.0066 21.292 38.5952 21.8008 38.5952C22.3095 38.5952 22.7219 39.0066 22.7219 39.5141Z" fill="white"/>
<path d="M55.2394 40.6193C55.5698 42.9646 55.2376 45.2922 52.797 45.2922C50.3565 45.2922 49.4885 43.8172 49.1581 41.4719C48.8277 39.1266 49.9212 37.0344 51.6005 36.799C53.2798 36.5636 54.909 38.274 55.2394 40.6193Z" fill="#505050"/>
<path d="M52.8129 39.5141C52.8129 40.0216 52.4004 40.433 51.8917 40.433C51.383 40.433 50.9706 40.0216 50.9706 39.5141C50.9706 39.0066 51.383 38.5952 51.8917 38.5952C52.4004 38.5952 52.8129 39.0066 52.8129 39.5141Z" fill="white"/>
<path d="M9.21158 66.2327C9.21158 65.5566 9.82269 65.0438 10.4904 65.1597L36.5556 69.6818C37.0786 69.7725 37.4603 70.2253 37.4603 70.7548V104.076C37.4603 104.752 36.8492 105.265 36.1815 105.149L10.1163 100.627C9.59335 100.536 9.21158 100.083 9.21158 99.5537V66.2327Z" fill="#DDDDDD"/>
<path d="M10.4398 65.0075C10.4398 64.3313 11.0509 63.8186 11.7187 63.9344L37.7838 68.4565C38.3068 68.5473 38.6885 69.0001 38.6885 69.5296V102.851C38.6885 103.527 38.0774 104.039 37.4097 103.924L11.3445 99.4015C10.8216 99.3108 10.4398 98.858 10.4398 98.3284V65.0075Z" fill="#DDDDDD"/>
<path d="M66.9373 66.2327C66.9373 65.5566 66.3262 65.0438 65.6584 65.1597L39.5933 69.6818C39.0703 69.7725 38.6886 70.2253 38.6886 70.7548V104.076C38.6886 104.752 39.2997 105.265 39.9674 105.149L66.0326 100.627C66.5555 100.536 66.9373 100.083 66.9373 99.5537V66.2327Z" fill="#DDDDDD"/>
<path d="M65.7091 65.0075C65.7091 64.3313 65.098 63.8186 64.4302 63.9344L38.3651 68.4565C37.8421 68.5473 37.4603 69.0001 37.4603 69.5296V102.851C37.4603 103.527 38.0715 104.039 38.7392 103.924L64.8044 99.4015C65.3273 99.3108 65.7091 98.858 65.7091 98.3284V65.0075Z" fill="#DDDDDD"/>
<path d="M6.79419 67.5415C6.77427 66.8383 7.41802 66.3009 8.10845 66.4446L34.135 71.8592C34.6412 71.9645 35.0039 72.4096 35.0039 72.9255V106.174C35.0039 106.884 34.335 107.404 33.6454 107.231L8.53486 100.92C8.06087 100.801 7.72399 100.382 7.71019 99.895L6.79419 67.5415Z" fill="#636363"/>
<path d="M69.3547 67.5415C69.3746 66.8383 68.7309 66.3009 68.0404 66.4446L42.0139 71.8592C41.5077 71.9645 41.145 72.4096 41.145 72.9255V106.174C41.145 106.884 41.8139 107.404 42.5035 107.231L67.614 100.92C68.088 100.801 68.4249 100.382 68.4387 99.895L69.3547 67.5415Z" fill="#636363"/>
<path d="M65.095 74.0636C65.095 73.3874 64.4839 72.8746 63.8161 72.9905L47.5766 75.808C47.0537 75.8987 46.6719 76.3515 46.6719 76.881V82.1546C46.6719 82.8307 47.283 83.3435 47.9508 83.2276L64.1903 80.4102C64.7132 80.3194 65.095 79.8666 65.095 79.3371V74.0636Z" fill="#505050"/>
<path d="M33.7757 72.8615C33.7757 72.3752 34.0988 71.9478 34.5676 71.8142L35.075 71.6696C37.0354 71.1108 39.1135 71.1108 41.0738 71.6696L41.5813 71.8142C42.05 71.9478 42.3731 72.3752 42.3731 72.8615V106.75C42.3731 107.237 42.05 107.664 41.5813 107.798L41.0738 107.942C39.1135 108.501 37.0354 108.501 35.075 107.942L34.5676 107.798C34.0989 107.664 33.7757 107.237 33.7757 106.75V72.8615Z" fill="#6C6C6C"/>
<path d="M15.3526 83.4483C15.3526 80.1378 12.2821 78.2033 9.21156 77.454C5.88583 76.6425 3.07053 77.454 3.07053 83.4483C3.07053 89.4426 5.81996 89.4426 9.21156 89.4426C12.6032 89.4426 15.3526 86.7589 15.3526 83.4483Z" fill="#FFFAE6"/>
<path d="M62.0244 82.2231C62.0244 78.9125 65.0949 76.9781 68.1654 76.2288C71.4912 75.4172 74.3065 76.2288 74.3065 82.2231C74.3065 88.2174 71.557 88.2174 68.1654 88.2174C64.7738 88.2174 62.0244 85.5337 62.0244 82.2231Z" fill="#FFFAE6"/>
</svg>
