<svg width="16" height="16" viewBox="0 0 16 16" fill="none" xmlns="http://www.w3.org/2000/svg">
<g clip-path="url(#clip0_1816_19058)">
<path fill-rule="evenodd" clip-rule="evenodd" d="M2 3.33342C2 1.86066 3.19391 0.666748 4.66667 0.666748H12.6667C13.403 0.666748 14 1.2637 14 2.00008V10.74C14 11.133 13.9366 11.5235 13.8123 11.8964L13.6911 12.2602C13.462 12.9474 13.5153 13.6974 13.8393 14.3453C14.0663 14.7993 13.7361 15.3334 13.2286 15.3334H4.66666C3.1939 15.3334 2 14.1395 2 12.6667V3.33342ZM6.66667 3.33346C6.66667 2.96527 6.96514 2.66679 7.33333 2.66679H10.6667C11.0349 2.66679 11.3333 2.96527 11.3333 3.33346C11.3333 3.70164 11.0349 4.00012 10.6667 4.00012H7.33333C6.96514 4.00012 6.66667 3.70164 6.66667 3.33346ZM4.53333 13.3335C4.53333 12.5234 5.18998 11.8668 6 11.8668H12.6667C12.9612 11.8668 13.2 11.628 13.2 11.3335C13.2 11.0389 12.9612 10.8001 12.6667 10.8001H6C4.60088 10.8001 3.46667 11.9343 3.46667 13.3335C3.46667 13.628 3.70545 13.8668 4 13.8668C4.29455 13.8668 4.53333 13.628 4.53333 13.3335Z" fill="#F7F7F7"/>
</g>
<defs>
<clipPath id="clip0_1816_19058">
<rect width="16" height="16" fill="white"/>
</clipPath>
</defs>
</svg>
