<svg width="101" height="15" viewBox="0 0 101 15" fill="none" xmlns="http://www.w3.org/2000/svg">
<path d="M13.2395 10.9811C13.2395 11.5994 13.1031 12.1056 12.8303 12.4996C12.5576 12.8937 12.1969 13.1998 11.7483 13.418C11.3057 13.6363 10.8238 13.7878 10.3025 13.8727C9.78113 13.9576 9.26889 14 8.76574 14H1.63676C1.3094 14 1.0457 13.9212 0.845657 13.7636C0.651671 13.606 0.554678 13.3544 0.554678 13.0089C0.554678 12.7058 0.615299 12.4784 0.73654 12.3269C0.863843 12.1693 1.00933 12.042 1.17301 11.945C1.33668 11.848 1.47914 11.7358 1.60038 11.6085C1.72769 11.4752 1.79134 11.2812 1.79134 11.0266V4.38861C1.79134 4.12188 1.72769 3.92486 1.60038 3.79756C1.47914 3.67025 1.33668 3.56114 1.17301 3.47021C1.00933 3.37321 0.863843 3.24894 0.73654 3.09739C0.615299 2.94584 0.554678 2.71548 0.554678 2.40632C0.554678 2.06078 0.651671 1.8092 0.845657 1.65159C1.0457 1.49398 1.3094 1.41517 1.63676 1.41517H7.19263C7.78671 1.41517 8.39595 1.47882 9.02034 1.60612C9.6508 1.73343 10.2328 1.94257 10.7662 2.23355C11.2997 2.52453 11.7301 2.9125 12.0574 3.39746C12.3908 3.88243 12.5576 4.48257 12.5576 5.19789C12.5576 5.9799 12.3181 6.5952 11.8392 7.04379C11.3664 7.48632 10.8026 7.80458 10.1479 7.99856C10.6753 8.11374 11.1724 8.2956 11.6392 8.54415C12.112 8.78663 12.4969 9.10792 12.794 9.50802C13.091 9.90811 13.2395 10.3991 13.2395 10.9811ZM6.31969 3.24288H6.26514V7.58028H6.59249C7.2775 7.58028 7.74731 7.38326 8.00192 6.98923C8.26258 6.5952 8.39292 6.08598 8.39292 5.46159C8.39292 4.78264 8.22318 4.24312 7.88371 3.84302C7.54423 3.44293 7.02289 3.24288 6.31969 3.24288ZM8.85667 10.7901C8.85667 10.3052 8.71421 9.90508 8.42929 9.58985C8.15044 9.26856 7.75943 9.10792 7.25628 9.10792H6.26514V10.6628C6.26514 11.1236 6.37728 11.4933 6.60158 11.7722C6.82588 12.045 7.17748 12.1814 7.65638 12.1814C8.09891 12.1814 8.40807 12.051 8.58387 11.7904C8.76574 11.5297 8.85667 11.1963 8.85667 10.7901ZM19.0591 4.3977C20.0593 4.3977 20.9353 4.60381 21.687 5.01603C22.4448 5.42825 23.0358 6.00718 23.4602 6.75281C23.8845 7.49844 24.0967 8.37441 24.0967 9.38071C24.0967 10.3688 23.8633 11.2296 23.3965 11.9631C22.9297 12.6906 22.3023 13.2574 21.5142 13.6636C20.7322 14.0637 19.8623 14.2637 18.9045 14.2637C17.8982 14.2637 17.0162 14.0576 16.2584 13.6454C15.5007 13.2271 14.9096 12.6421 14.4853 11.8904C14.067 11.1326 13.8579 10.2506 13.8579 9.24432C13.8579 8.26226 14.0943 7.40751 14.5671 6.68007C15.04 5.95262 15.6704 5.39188 16.4585 4.99784C17.2466 4.59775 18.1134 4.3977 19.0591 4.3977ZM19.5774 12.2541C19.729 12.2541 19.8351 12.1753 19.8957 12.0177C19.9624 11.8601 20.0048 11.6873 20.023 11.4994C20.0412 11.3054 20.0503 11.1569 20.0503 11.0538C20.0503 10.7083 20.023 10.3658 19.9684 10.0263C19.9139 9.68078 19.8441 9.34131 19.7593 9.0079C19.729 8.87453 19.6714 8.66842 19.5865 8.38957C19.5016 8.10465 19.3986 7.80761 19.2773 7.49844C19.1561 7.18928 19.0227 6.92558 18.8772 6.70734C18.7318 6.48911 18.5772 6.37999 18.4135 6.37999C18.2741 6.37999 18.171 6.4588 18.1043 6.61641C18.0437 6.77403 18.0043 6.94983 17.9861 7.14381C17.9679 7.33174 17.9588 7.4742 17.9588 7.57119C17.9588 7.73486 17.9831 7.99856 18.0316 8.36229C18.0801 8.71995 18.1498 9.12004 18.2407 9.56257C18.3377 10.0051 18.4529 10.4325 18.5863 10.8447C18.7196 11.2509 18.8682 11.5873 19.0318 11.854C19.2016 12.1208 19.3834 12.2541 19.5774 12.2541ZM30.28 4.3977C31.2802 4.3977 32.1562 4.60381 32.9079 5.01603C33.6656 5.42825 34.2567 6.00718 34.681 6.75281C35.1054 7.49844 35.3175 8.37441 35.3175 9.38071C35.3175 10.3688 35.0842 11.2296 34.6174 11.9631C34.1506 12.6906 33.5232 13.2574 32.7351 13.6636C31.9531 14.0637 31.0832 14.2637 30.1254 14.2637C29.1191 14.2637 28.2371 14.0576 27.4793 13.6454C26.7215 13.2271 26.1305 12.6421 25.7062 11.8904C25.2879 11.1326 25.0787 10.2506 25.0787 9.24432C25.0787 8.26226 25.3152 7.40751 25.788 6.68007C26.2608 5.95262 26.8913 5.39188 27.6794 4.99784C28.4674 4.59775 29.3343 4.3977 30.28 4.3977ZM30.7983 12.2541C30.9498 12.2541 31.0559 12.1753 31.1165 12.0177C31.1832 11.8601 31.2257 11.6873 31.2438 11.4994C31.262 11.3054 31.2711 11.1569 31.2711 11.0538C31.2711 10.7083 31.2438 10.3658 31.1893 10.0263C31.1347 9.68078 31.065 9.34131 30.9801 9.0079C30.9498 8.87453 30.8922 8.66842 30.8074 8.38957C30.7225 8.10465 30.6195 7.80761 30.4982 7.49844C30.377 7.18928 30.2436 6.92558 30.0981 6.70734C29.9526 6.48911 29.798 6.37999 29.6344 6.37999C29.4949 6.37999 29.3919 6.4588 29.3252 6.61641C29.2646 6.77403 29.2252 6.94983 29.207 7.14381C29.1888 7.33174 29.1797 7.4742 29.1797 7.57119C29.1797 7.73486 29.204 7.99856 29.2525 8.36229C29.301 8.71995 29.3707 9.12004 29.4616 9.56257C29.5586 10.0051 29.6738 10.4325 29.8071 10.8447C29.9405 11.2509 30.089 11.5873 30.2527 11.854C30.4224 12.1208 30.6043 12.2541 30.7983 12.2541ZM41.6554 14H37.3544C37.0937 14 36.8725 13.9333 36.6906 13.8C36.5148 13.6605 36.4269 13.4514 36.4269 13.1725C36.4269 12.9664 36.4724 12.8027 36.5633 12.6815C36.6603 12.5542 36.7876 12.436 36.9452 12.3269C37.1149 12.2056 37.2362 12.1117 37.3089 12.045C37.3817 11.9722 37.4271 11.8843 37.4453 11.7813C37.4635 11.6782 37.4726 11.5236 37.4726 11.3175V4.0067C37.4726 3.7824 37.4544 3.62176 37.418 3.52476C37.3877 3.42777 37.3241 3.35503 37.2271 3.30653C37.1362 3.25197 36.9967 3.17923 36.8088 3.0883C36.6573 3.01555 36.533 2.91856 36.436 2.79732C36.339 2.67608 36.2905 2.53059 36.2905 2.36085C36.2905 2.11837 36.3723 1.93044 36.536 1.79708C36.6997 1.65765 36.8816 1.55156 37.0816 1.47882L39.2185 0.687722C39.467 0.596791 39.7186 0.514953 39.9732 0.442208C40.2278 0.363402 40.4854 0.323998 40.7461 0.323998C41.0007 0.323998 41.2008 0.405836 41.3463 0.569512C41.4917 0.733187 41.5645 0.939297 41.5645 1.18784V8.58052L43.6195 6.94377C43.668 6.90739 43.7196 6.86496 43.7741 6.81646C43.8347 6.76797 43.865 6.71341 43.865 6.65279C43.865 6.54367 43.7923 6.45274 43.6468 6.37999C43.5013 6.30725 43.3558 6.21026 43.2103 6.08901C43.0649 5.96171 42.9921 5.76773 42.9921 5.50706C42.9921 5.22214 43.08 5.01603 43.2558 4.88873C43.4377 4.75536 43.6589 4.68868 43.9196 4.68868H47.675C47.9357 4.68868 48.154 4.75536 48.3298 4.88873C48.5116 5.01603 48.6025 5.22214 48.6025 5.50706C48.6025 5.85259 48.4904 6.09205 48.2661 6.22541C48.0479 6.35271 47.7963 6.45274 47.5114 6.52548C47.1719 6.61035 46.8658 6.70431 46.593 6.80737C46.3202 6.91042 46.0444 7.07713 45.7655 7.30749L45.2381 7.73486L48.2388 11.554C48.3722 11.7176 48.548 11.8843 48.7662 12.0541C48.9905 12.2178 49.1936 12.3936 49.3755 12.5815C49.5573 12.7694 49.6482 12.9816 49.6482 13.218C49.6482 13.4908 49.5573 13.6908 49.3755 13.8181C49.1936 13.9394 48.9784 14 48.7298 14H44.3743C44.1257 14 43.9257 13.9242 43.7741 13.7727C43.6226 13.6211 43.5468 13.4211 43.5468 13.1725C43.5468 12.9361 43.6135 12.7603 43.7468 12.6451C43.8863 12.53 44.0227 12.436 44.156 12.3632C44.2894 12.2844 44.3561 12.1905 44.3561 12.0814C44.3561 11.9783 44.3227 11.8874 44.256 11.8086C44.1954 11.7298 44.1348 11.657 44.0742 11.5903L42.6193 9.85355L41.5645 10.7083V11.263C41.5645 11.457 41.5736 11.6479 41.5918 11.8358C41.61 12.0238 41.7039 12.1874 41.8737 12.3269C42.0495 12.4602 42.1949 12.5694 42.3101 12.6542C42.4253 12.7391 42.4829 12.9119 42.4829 13.1725C42.4829 13.7242 42.2071 14 41.6554 14ZM50.2393 13.0089C50.2393 12.6936 50.303 12.4602 50.4303 12.3087C50.5576 12.1571 50.7061 12.0329 50.8758 11.9359C51.0456 11.8389 51.1941 11.7298 51.3214 11.6085C51.4487 11.4812 51.5123 11.2872 51.5123 11.0266V4.38861C51.5123 4.12188 51.4487 3.92486 51.3214 3.79756C51.1941 3.67025 51.0456 3.56114 50.8758 3.47021C50.7061 3.37321 50.5576 3.24894 50.4303 3.09739C50.303 2.94584 50.2393 2.71548 50.2393 2.40632C50.2393 2.06684 50.3393 1.8183 50.5394 1.66068C50.7455 1.49701 51.0092 1.41517 51.3305 1.41517H56.7499C58.1079 1.41517 59.3263 1.69099 60.4054 2.24264C61.4844 2.78822 62.3361 3.5672 62.9605 4.57956C63.591 5.59193 63.9062 6.79828 63.9062 8.19861C63.9062 9.40496 63.6243 10.4416 63.0606 11.3084C62.4968 12.1753 61.739 12.8421 60.7873 13.3089C59.8355 13.7696 58.7807 14 57.6229 14H51.3305C51.0031 14 50.7394 13.9212 50.5394 13.7636C50.3393 13.606 50.2393 13.3544 50.2393 13.0089ZM57.1955 11.9722C57.6441 11.9722 58.0078 11.8358 58.2867 11.5631C58.5655 11.2903 58.7777 10.9478 58.9232 10.5355C59.0747 10.1233 59.1778 9.69594 59.2324 9.25341C59.2869 8.81088 59.3142 8.42291 59.3142 8.08949C59.3142 7.62272 59.2718 7.1226 59.1869 6.58913C59.102 6.04961 58.9505 5.54343 58.7322 5.07059C58.5201 4.59169 58.223 4.20068 57.8411 3.89758C57.4653 3.59448 56.9803 3.44293 56.3862 3.44293H55.9861V10.5537C55.9861 10.9659 56.071 11.3054 56.2407 11.5721C56.4165 11.8389 56.7348 11.9722 57.1955 11.9722ZM68.2072 14.2637C67.6313 14.2637 67.1494 14.1182 66.7614 13.8272C66.3795 13.5302 66.0946 13.1452 65.9067 12.6724C65.7188 12.1996 65.6248 11.7025 65.6248 11.1811V8.08949C65.6248 7.8652 65.6066 7.70758 65.5702 7.61665C65.5339 7.51966 65.4308 7.39539 65.2611 7.24384C65.1277 7.1226 65.0004 7.01045 64.8792 6.90739C64.764 6.79828 64.7064 6.64066 64.7064 6.43455C64.7064 6.19813 64.7822 6.01324 64.9337 5.87987C65.0913 5.74045 65.2702 5.63133 65.4702 5.55252L67.4707 4.76142C67.7071 4.66443 67.9435 4.57956 68.18 4.50682C68.4224 4.43407 68.674 4.3977 68.9347 4.3977C69.1832 4.3977 69.3742 4.4856 69.5076 4.6614C69.6409 4.83114 69.7076 5.03119 69.7076 5.26154V10.1991C69.7076 10.3688 69.7258 10.5507 69.7622 10.7447C69.8046 10.9387 69.8834 11.1054 69.9986 11.2448C70.1138 11.3782 70.2805 11.4448 70.4987 11.4448C70.723 11.4448 70.92 11.3963 71.0897 11.2994C71.2595 11.1963 71.4141 11.072 71.5535 10.9265V8.08949C71.5535 7.85914 71.5323 7.69243 71.4898 7.58937C71.4535 7.48026 71.3413 7.35295 71.1534 7.20746C71.014 7.09835 70.8927 6.99226 70.7897 6.88921C70.6866 6.78615 70.6351 6.6346 70.6351 6.43455C70.6351 6.19813 70.7109 6.01324 70.8624 5.87987C71.02 5.74045 71.1989 5.63133 71.3989 5.55252L73.3994 4.76142C73.6358 4.66443 73.8722 4.57956 74.1087 4.50682C74.3511 4.43407 74.6027 4.3977 74.8634 4.3977C75.1119 4.3977 75.3029 4.48257 75.4362 4.65231C75.5757 4.82204 75.6454 5.02512 75.6454 5.26154V11.263C75.6454 11.4327 75.6514 11.6025 75.6636 11.7722C75.6818 11.9359 75.7515 12.0874 75.8727 12.2268C76.0243 12.3905 76.1576 12.5269 76.2728 12.636C76.388 12.7452 76.4456 12.924 76.4456 13.1725C76.4456 13.4453 76.3637 13.6514 76.2001 13.7909C76.0364 13.9303 75.8212 14 75.5545 14H73.4812C73.0205 14 72.6144 13.8272 72.2628 13.4817C71.9172 13.1362 71.7445 12.7361 71.7445 12.2814C71.411 12.6027 71.0473 12.9149 70.6533 13.218C70.2592 13.5211 69.8531 13.7727 69.4348 13.9727C69.0226 14.1667 68.6134 14.2637 68.2072 14.2637ZM86.3934 7.38023C86.3934 7.95007 86.1873 8.3835 85.7751 8.68054C85.3629 8.97759 84.8961 9.12611 84.3747 9.12611C83.8413 9.12611 83.4139 8.98062 83.0926 8.68964C82.7713 8.39866 82.6107 7.98038 82.6107 7.43479C82.6107 7.18625 82.5773 6.93467 82.5107 6.68007C82.45 6.42546 82.253 6.29816 81.9196 6.29816C81.665 6.29816 81.471 6.42243 81.3377 6.67097C81.2043 6.91952 81.1134 7.19837 81.0649 7.50754C81.0224 7.8167 81.0012 8.06525 81.0012 8.25317C81.0012 8.77451 81.0861 9.2716 81.2558 9.74444C81.4256 10.2173 81.6953 10.6022 82.0651 10.8993C82.4349 11.1902 82.9138 11.3357 83.5018 11.3357C83.8473 11.3357 84.1899 11.2539 84.5293 11.0902C84.8688 10.9205 85.1689 10.7538 85.4295 10.5901C85.6902 10.4264 85.8721 10.3446 85.9751 10.3446C86.1631 10.3446 86.2873 10.4204 86.3479 10.5719C86.4086 10.7174 86.4389 10.8629 86.4389 11.0084C86.4389 11.554 86.3085 12.0298 86.0479 12.436C85.7933 12.8421 85.4538 13.1816 85.0294 13.4544C84.6112 13.7211 84.1535 13.9212 83.6564 14.0546C83.1654 14.194 82.6834 14.2637 82.2106 14.2637C81.3013 14.2637 80.4829 14.0697 79.7555 13.6817C79.0341 13.2877 78.4612 12.7391 78.0369 12.0359C77.6186 11.3327 77.4094 10.5204 77.4094 9.59895C77.4094 8.59871 77.6125 7.70758 78.0187 6.92558C78.4248 6.14357 79.0007 5.52827 79.7464 5.07968C80.4981 4.62503 81.3831 4.3977 82.4015 4.3977C82.8562 4.3977 83.3169 4.45529 83.7837 4.57047C84.2505 4.67959 84.6809 4.85539 85.0749 5.09787C85.4689 5.33429 85.7872 5.64345 86.0297 6.02536C86.2722 6.40121 86.3934 6.85283 86.3934 7.38023ZM92.5767 14H88.2757C88.015 14 87.7937 13.9333 87.6119 13.8C87.4361 13.6605 87.3482 13.4514 87.3482 13.1725C87.3482 12.9664 87.3937 12.8027 87.4846 12.6815C87.5816 12.5542 87.7089 12.436 87.8665 12.3269C88.0362 12.2056 88.1575 12.1117 88.2302 12.045C88.303 11.9722 88.3484 11.8843 88.3666 11.7813C88.3848 11.6782 88.3939 11.5236 88.3939 11.3175V4.0067C88.3939 3.7824 88.3757 3.62176 88.3393 3.52476C88.309 3.42777 88.2454 3.35503 88.1484 3.30653C88.0574 3.25197 87.918 3.17923 87.7301 3.0883C87.5785 3.01555 87.4543 2.91856 87.3573 2.79732C87.2603 2.67608 87.2118 2.53059 87.2118 2.36085C87.2118 2.11837 87.2936 1.93044 87.4573 1.79708C87.621 1.65765 87.8028 1.55156 88.0029 1.47882L90.1398 0.687722C90.3883 0.596791 90.6399 0.514953 90.8945 0.442208C91.1491 0.363402 91.4067 0.323998 91.6674 0.323998C91.922 0.323998 92.1221 0.405836 92.2675 0.569512C92.413 0.733187 92.4858 0.939297 92.4858 1.18784V8.58052L94.5408 6.94377C94.5893 6.90739 94.6408 6.86496 94.6954 6.81646C94.756 6.76797 94.7863 6.71341 94.7863 6.65279C94.7863 6.54367 94.7136 6.45274 94.5681 6.37999C94.4226 6.30725 94.2771 6.21026 94.1316 6.08901C93.9861 5.96171 93.9134 5.76773 93.9134 5.50706C93.9134 5.22214 94.0013 5.01603 94.1771 4.88873C94.359 4.75536 94.5802 4.68868 94.8409 4.68868H98.5963C98.857 4.68868 99.0752 4.75536 99.251 4.88873C99.4329 5.01603 99.5238 5.22214 99.5238 5.50706C99.5238 5.85259 99.4117 6.09205 99.1874 6.22541C98.9692 6.35271 98.7176 6.45274 98.4327 6.52548C98.0932 6.61035 97.7871 6.70431 97.5143 6.80737C97.2415 6.91042 96.9656 7.07713 96.6868 7.30749L96.1594 7.73486L99.1601 11.554C99.2935 11.7176 99.4693 11.8843 99.6875 12.0541C99.9118 12.2178 100.115 12.3936 100.297 12.5815C100.479 12.7694 100.57 12.9816 100.57 13.218C100.57 13.4908 100.479 13.6908 100.297 13.8181C100.115 13.9394 99.8997 14 99.6511 14H95.2955C95.047 14 94.847 13.9242 94.6954 13.7727C94.5439 13.6211 94.4681 13.4211 94.4681 13.1725C94.4681 12.9361 94.5348 12.7603 94.6681 12.6451C94.8076 12.53 94.9439 12.436 95.0773 12.3632C95.2107 12.2844 95.2774 12.1905 95.2774 12.0814C95.2774 11.9783 95.244 11.8874 95.1773 11.8086C95.1167 11.7298 95.0561 11.657 94.9955 11.5903L93.5406 9.85355L92.4858 10.7083V11.263C92.4858 11.457 92.4949 11.6479 92.5131 11.8358C92.5312 12.0238 92.6252 12.1874 92.7949 12.3269C92.9707 12.4602 93.1162 12.5694 93.2314 12.6542C93.3466 12.7391 93.4042 12.9119 93.4042 13.1725C93.4042 13.7242 93.1284 14 92.5767 14Z" fill="#636363"/>
</svg>
