<svg width="20" height="20" viewBox="0 0 20 20" fill="none" xmlns="http://www.w3.org/2000/svg">
<path fill-rule="evenodd" clip-rule="evenodd" d="M10 20C4.47715 20 0 15.5228 0 10C0 4.47715 4.47715 0 10 0C15.5228 0 20 4.47715 20 10C20 15.5228 15.5228 20 10 20ZM5.68668 10.4667L8.00002 12.78L14.5867 6.2C14.7113 6.07535 14.8804 6.00532 15.0567 6.00532C15.233 6.00532 15.402 6.07535 15.5267 6.2C15.6513 6.32465 15.7214 6.49372 15.7214 6.67C15.7214 6.84628 15.6513 7.01535 15.5267 7.14L8.47335 14.1933C8.21335 14.4533 7.79335 14.4533 7.53335 14.1933L4.74668 11.4067C4.68496 11.3449 4.636 11.2717 4.6026 11.191C4.56919 11.1104 4.552 11.024 4.552 10.9367C4.552 10.7604 4.62203 10.5913 4.74668 10.4667C4.87133 10.342 5.0404 10.272 5.21668 10.272C5.39297 10.272 5.56203 10.342 5.68668 10.4667Z" fill="#6B7FF0"/>
</svg>
