<svg width="20" height="24" viewBox="0 0 20 24" fill="none" xmlns="http://www.w3.org/2000/svg">
<g clip-path="url(#clip0_1872_36385)">
<path d="M5 11V7C5 5.67392 5.52678 4.40215 6.46447 3.46447C7.40215 2.52678 8.67392 2 10 2C11.3261 2 12.5979 2.52678 13.5355 3.46447C14.4732 4.40215 15 5.67392 15 7V11" stroke="#E2E2E2" stroke-width="3" stroke-linecap="round" stroke-linejoin="round"/>
<mask id="path-2-inside-1_1872_36385" fill="white">
<path fill-rule="evenodd" clip-rule="evenodd" d="M2.22222 9H17.7778C19.0051 9 20 10.221 20 11.7273V21.2727C20 22.779 19.0051 24 17.7778 24H2.22222C0.994923 24 0 22.779 0 21.2727V11.7273C0 10.221 0.994923 9 2.22222 9ZM12 15C12 15.7403 11.5978 16.3866 11 16.7324V19C11 19.5523 10.5523 20 10 20C9.44772 20 9 19.5523 9 19V16.7324C8.4022 16.3866 8 15.7403 8 15C8 13.8954 8.89543 13 10 13C11.1046 13 12 13.8954 12 15Z"/>
</mask>
<path fill-rule="evenodd" clip-rule="evenodd" d="M2.22222 9H17.7778C19.0051 9 20 10.221 20 11.7273V21.2727C20 22.779 19.0051 24 17.7778 24H2.22222C0.994923 24 0 22.779 0 21.2727V11.7273C0 10.221 0.994923 9 2.22222 9ZM12 15C12 15.7403 11.5978 16.3866 11 16.7324V19C11 19.5523 10.5523 20 10 20C9.44772 20 9 19.5523 9 19V16.7324C8.4022 16.3866 8 15.7403 8 15C8 13.8954 8.89543 13 10 13C11.1046 13 12 13.8954 12 15Z" fill="#E2E2E2"/>
<path d="M11 16.7324L9.99855 15.0012C9.38056 15.3587 9 16.0185 9 16.7324H11ZM9 16.7324H11C11 16.0185 10.6194 15.3587 10.0015 15.0012L9 16.7324ZM17.7778 7H2.22222V11H17.7778V7ZM22 11.7273C22 9.51879 20.473 7 17.7778 7V11C17.6899 11 17.7081 10.9511 17.7987 11.0621C17.8925 11.1773 18 11.4059 18 11.7273H22ZM22 21.2727V11.7273H18V21.2727H22ZM17.7778 26C20.473 26 22 23.4812 22 21.2727H18C18 21.5941 17.8925 21.8227 17.7987 21.9379C17.7081 22.0489 17.6899 22 17.7778 22V26ZM2.22222 26H17.7778V22H2.22222V26ZM-2 21.2727C-2 23.4812 -0.472997 26 2.22222 26V22C2.31007 22 2.29186 22.0489 2.20134 21.9379C2.10753 21.8227 2 21.5941 2 21.2727H-2ZM-2 11.7273V21.2727H2V11.7273H-2ZM2.22222 7C-0.472997 7 -2 9.51879 -2 11.7273H2C2 11.4059 2.10753 11.1773 2.20134 11.0621C2.29186 10.9511 2.31007 11 2.22222 11V7ZM12.0015 18.4636C13.1918 17.775 14 16.4831 14 15H10C10 15.0032 9.99966 15.0031 10.0002 15.0012C10.0006 14.9997 10.0011 14.9987 10.0012 14.9985C10.0012 14.9985 10.0008 14.9992 9.99996 15C9.99909 15.0009 9.99848 15.0013 9.99855 15.0012L12.0015 18.4636ZM13 19V16.7324H9V19H13ZM10 22C11.6569 22 13 20.6569 13 19H9C9 18.4477 9.44771 18 10 18V22ZM7 19C7 20.6569 8.34315 22 10 22V18C10.5523 18 11 18.4477 11 19H7ZM7 16.7324V19H11V16.7324H7ZM6 15C6 16.4831 6.80816 17.775 7.99855 18.4636L10.0015 15.0012C10.0015 15.0013 10.0009 15.0009 10 15C9.99916 14.9992 9.99876 14.9985 9.99877 14.9985C9.99887 14.9987 9.99938 14.9997 9.99981 15.0012C10.0003 15.0031 10 15.0032 10 15H6ZM10 11C7.79086 11 6 12.7909 6 15H10V11ZM14 15C14 12.7909 12.2091 11 10 11V15H14Z" fill="#E2E2E2" mask="url(#path-2-inside-1_1872_36385)"/>
</g>
<defs>
<clipPath id="clip0_1872_36385">
<rect width="20" height="24" fill="white"/>
</clipPath>
</defs>
</svg>
