<svg width="76" height="76" viewBox="0 0 76 76" fill="none" xmlns="http://www.w3.org/2000/svg">
<g filter="url(#filter0_d_1170_21945)">
<circle cx="38" cy="38" r="28" fill="#FFBF68"/>
<path d="M28 47.375C28 46.5462 28.3292 45.7513 28.9153 45.1653C29.5013 44.5792 30.2962 44.25 31.125 44.25H48" stroke="white" stroke-width="1.5" stroke-linecap="round" stroke-linejoin="round"/>
<path d="M31.125 25.5H48V50.5H31.125C30.2962 50.5 29.5013 50.1708 28.9153 49.5847C28.3292 48.9987 28 48.2038 28 47.375V28.625C28 27.7962 28.3292 27.0013 28.9153 26.4153C29.5013 25.8292 30.2962 25.5 31.125 25.5Z" stroke="white" stroke-width="1.5" stroke-linecap="round" stroke-linejoin="round"/>
<path d="M38 30.3334V39.6667" stroke="white" stroke-width="1.5" stroke-linecap="round"/>
<path d="M33.333 35.0001H42.6663" stroke="white" stroke-width="1.5" stroke-linecap="round"/>
</g>
<defs>
<filter id="filter0_d_1170_21945" x="0" y="0" width="76" height="76" filterUnits="userSpaceOnUse" color-interpolation-filters="sRGB">
<feFlood flood-opacity="0" result="BackgroundImageFix"/>
<feColorMatrix in="SourceAlpha" type="matrix" values="0 0 0 0 0 0 0 0 0 0 0 0 0 0 0 0 0 0 127 0" result="hardAlpha"/>
<feOffset/>
<feGaussianBlur stdDeviation="5"/>
<feComposite in2="hardAlpha" operator="out"/>
<feColorMatrix type="matrix" values="0 0 0 0 0 0 0 0 0 0 0 0 0 0 0 0 0 0 0.12 0"/>
<feBlend mode="normal" in2="BackgroundImageFix" result="effect1_dropShadow_1170_21945"/>
<feBlend mode="normal" in="SourceGraphic" in2="effect1_dropShadow_1170_21945" result="shape"/>
</filter>
</defs>
</svg>
