<svg width="21" height="21" viewBox="0 0 21 21" fill="none" xmlns="http://www.w3.org/2000/svg">
<circle cx="10" cy="10" r="9.5" transform="matrix(-1 0 0 1 20.1484 0.148193)" fill="#6B7FF0" stroke="#6B7FF0"/>
<path d="M8.14821 12.9282L5.83488 10.6149C5.71022 10.4903 5.54116 10.4202 5.36488 10.4202C5.18859 10.4202 5.01953 10.4903 4.89488 10.6149C4.77022 10.7396 4.7002 10.9086 4.7002 11.0849C4.7002 11.1722 4.71739 11.2586 4.75079 11.3393C4.78419 11.4199 4.83315 11.4932 4.89488 11.5549L7.68154 14.3416C7.94154 14.6016 8.36154 14.6016 8.62154 14.3416L15.6749 7.28824C15.7995 7.16359 15.8696 6.99453 15.8696 6.81824C15.8696 6.64196 15.7995 6.4729 15.6749 6.34825C15.5502 6.22359 15.3812 6.15356 15.2049 6.15356C15.0286 6.15356 14.8595 6.22359 14.7349 6.34825L8.14821 12.9282Z" fill="#E7EBFF"/>
</svg>
