<svg width="20" height="20" viewBox="0 0 20 20" fill="none" xmlns="http://www.w3.org/2000/svg">
<path id="Subtract" fill-rule="evenodd" clip-rule="evenodd" d="M19.3765 9.99951C19.3765 15.178 15.1785 19.376 10 19.376C4.82152 19.376 0.623535 15.178 0.623535 9.99951C0.623535 4.82103 4.82152 0.623047 10 0.623047C15.1785 0.623047 19.3765 4.82103 19.3765 9.99951ZM5.86225 5.86176C6.20554 5.51847 6.76212 5.51847 7.1054 5.86176L10.1422 8.89857L13.179 5.8618C13.5223 5.51852 14.0789 5.51852 14.4221 5.8618C14.7654 6.20509 14.7654 6.76167 14.4221 7.10496L11.3854 10.1417L14.4221 13.1785C14.7654 13.5218 14.7654 14.0784 14.4221 14.4217C14.0789 14.7649 13.5223 14.7649 13.179 14.4217L10.1422 11.3849L7.1054 14.4217C6.76212 14.765 6.20554 14.765 5.86225 14.4217C5.51896 14.0784 5.51896 13.5218 5.86225 13.1785L8.89906 10.1417L5.86225 7.10492C5.51896 6.76163 5.51896 6.20505 5.86225 5.86176Z" fill="#ABABAB"/>
</svg>
