<svg width="20" height="20" viewBox="0 0 20 20" fill="none" xmlns="http://www.w3.org/2000/svg">
<path d="M18.0002 15.168L10.8335 9.79302V9.03469C12.2085 8.62636 13.1669 7.22635 12.8585 5.65969C12.6419 4.56802 11.7752 3.65969 10.6835 3.40969C9.21688 3.07636 7.87522 3.85135 7.33355 5.05969C7.08355 5.61802 7.48355 6.25135 8.09188 6.25135C8.41688 6.25135 8.71688 6.06802 8.84188 5.77635C9.03355 5.31802 9.47522 5.00135 10.0002 5.00135C10.6919 5.00135 11.2502 5.55969 11.2502 6.25135C11.2502 6.95135 10.6752 7.51802 9.97522 7.50136C9.52522 7.49302 9.16688 7.87635 9.16688 8.32635V9.79302L2.00022 15.168C1.35855 15.6514 1.70022 16.668 2.50022 16.668H17.5002C18.3002 16.668 18.6419 15.6514 18.0002 15.168ZM5.00022 15.0014L10.0002 11.2514L15.0002 15.0014H5.00022Z" fill="#FF9F1C"/>
</svg>
