<svg width="36" height="36" viewBox="0 0 36 36" fill="none" xmlns="http://www.w3.org/2000/svg">
<path d="M25.05 18.504V18.771L25.1831 19.0025L26.479 21.2563C27.054 22.2563 26.3322 23.504 25.1787 23.504H10.8213C9.66779 23.504 8.94596 22.2563 9.52096 21.2563L10.8169 19.0025L10.95 18.771V18.504V16.0601C10.95 13.142 12.7942 10.5112 15.5381 9.4887C17.1148 8.90112 18.8852 8.90112 20.4619 9.4887C23.2058 10.5112 25.05 13.142 25.05 16.0601V18.504Z" stroke="#323232" stroke-width="2"/>
<path d="M21.5 23.504C21.5 24.4323 21.1313 25.3225 20.4749 25.9789C19.8185 26.6353 18.9283 27.004 18 27.004C17.0717 27.004 16.1815 26.6353 15.5251 25.9789C14.8687 25.3225 14.5 24.4323 14.5 23.504L18 23.504H21.5Z" stroke="#323232" stroke-width="2"/>
</svg>
