<svg xmlns="http://www.w3.org/2000/svg" width="24" height="24" viewBox="0 0 24 24" fill="none">
<path d="M19.05 12.5V12.767L19.1831 12.9985L20.479 15.2523C21.054 16.2523 20.3322 17.5 19.1787 17.5H4.82132C3.66779 17.5 2.94596 16.2523 3.52096 15.2523L4.81691 12.9985L4.95 12.767V12.5V10.0561C4.95 7.13797 6.79424 4.50722 9.53807 3.48467C11.1148 2.89709 12.8852 2.89709 14.4619 3.48467C17.2058 4.50722 19.05 7.13797 19.05 10.0561V12.5Z" stroke="#323232" stroke-width="2"/>
<path d="M15.5 17.5C15.5 18.4283 15.1313 19.3185 14.4749 19.9749C13.8185 20.6313 12.9283 21 12 21C11.0717 21 10.1815 20.6313 9.52513 19.9749C8.86875 19.3185 8.5 18.4283 8.5 17.5L12 17.5H15.5Z" stroke="#323232" stroke-width="2"/>
<circle cx="20" cy="2" r="2" fill="#EA7120"/>
</svg>