<svg width="25" height="24" viewBox="0 0 25 24" fill="none" xmlns="http://www.w3.org/2000/svg">
<path d="M19.8437 12.5V12.7003L19.9435 12.8739L21.2395 15.1277C21.9103 16.2943 21.0682 17.75 19.7224 17.75H5.36502C4.01924 17.75 3.1771 16.2943 3.84793 15.1277L5.14388 12.8739L5.2437 12.7003V12.5V10.0561C5.2437 7.03232 7.154 4.30897 9.99447 3.25041C11.6275 2.64184 13.4599 2.64184 15.0929 3.25041C17.9334 4.30897 19.8437 7.03232 19.8437 10.0561V12.5Z" stroke="#323232" stroke-width="1.5"/>
<path d="M16.0437 18C16.0437 18.9283 15.675 19.8185 15.0186 20.4749C14.3622 21.1313 13.472 21.5 12.5437 21.5C11.6154 21.5 10.7252 21.1313 10.0688 20.4749C9.41245 19.8185 9.0437 18.9283 9.0437 18L12.5437 18H16.0437Z" stroke="#323232" stroke-width="1.5"/>
</svg>
