<svg width="105" height="156" viewBox="0 0 105 156" fill="none" xmlns="http://www.w3.org/2000/svg">
<rect x="0.5" width="104" height="156" rx="4" fill="#FFECA4"/>
<g clip-path="url(#clip0_4508_28132)">
<rect x="17" y="38" width="69" height="101" rx="4" fill="#FFECA4"/>
<path d="M73.7496 112.067C77.4887 122.023 84.3282 139 51.2266 139C18.1249 139 25.6214 122.213 28.7035 112.067C32.9646 98.0389 33.5733 92.9889 51.2266 92.9889C68.8798 92.9889 68.2711 97.4778 73.7496 112.067Z" fill="#FFFAE6"/>
<path d="M84.4963 72.7889C91.8602 91.8666 70.7705 97.4778 51.8213 97.4778C32.872 97.4778 10.7611 91.8666 18.6356 72.7889C18.6356 56.5167 25.9477 38 51.8213 38C77.6949 38 83.3713 55.9555 84.4963 72.7889Z" fill="#FFFAE6"/>
<path d="M47.7007 80.9162C50.0233 80.0193 52.5979 80.0193 54.9206 80.9162L61.4068 83.4209C63.3408 84.1678 62.9976 86.9956 60.9408 87.2603L52.5903 88.3352C51.7407 88.4446 50.8805 88.4446 50.0309 88.3352L41.6805 87.2603C39.6237 86.9956 39.2804 84.1678 41.2144 83.4209L47.7007 80.9162Z" fill="#FFBF68"/>
<path d="M39.4715 75.9849C39.1689 78.1331 38.3739 79.484 36.1386 79.484C33.9032 79.484 33.5989 77.3522 33.9016 75.204C34.2042 73.0559 35.6964 71.4893 37.2345 71.7049C38.7726 71.9206 39.7741 73.8368 39.4715 75.9849Z" fill="#505050"/>
<path d="M37.8114 74.1917C37.8114 74.6566 37.4337 75.0334 36.9677 75.0334C36.5018 75.0334 36.124 74.6566 36.124 74.1917C36.124 73.7269 36.5018 73.3501 36.9677 73.3501C37.4337 73.3501 37.8114 73.7269 37.8114 74.1917Z" fill="white"/>
<path d="M67.5948 75.204C67.8975 77.3521 67.5932 79.484 65.3578 79.484C63.1224 79.484 62.3275 78.1331 62.0249 75.9849C61.7222 73.8368 62.7238 71.9206 64.2619 71.7049C65.8 71.4893 67.2922 73.0559 67.5948 75.204Z" fill="#505050"/>
<path d="M65.3723 74.1917C65.3723 74.6566 64.9946 75.0334 64.5286 75.0334C64.0626 75.0334 63.6849 74.6566 63.6849 74.1917C63.6849 73.7269 64.0626 73.3501 64.5286 73.3501C64.9946 73.3501 65.3723 73.7269 65.3723 74.1917Z" fill="white"/>
<path d="M25.4371 98.6638C25.4371 98.0445 25.9968 97.5749 26.6084 97.681L50.482 101.823C50.961 101.906 51.3106 102.321 51.3106 102.806V133.325C51.3106 133.944 50.7509 134.414 50.1393 134.308L26.2657 130.166C25.7867 130.083 25.4371 129.668 25.4371 129.183V98.6638Z" fill="white"/>
<path d="M26.562 97.5416C26.562 96.9223 27.1217 96.4527 27.7333 96.5588L51.6069 100.701C52.0859 100.784 52.4356 101.198 52.4356 101.684V132.203C52.4356 132.822 51.8758 133.292 51.2642 133.186L27.3907 129.044C26.9117 128.961 26.562 128.546 26.562 128.061V97.5416Z" fill="white"/>
<path d="M78.3092 98.6638C78.3092 98.0445 77.7494 97.5749 77.1378 97.681L53.2643 101.823C52.7853 101.906 52.4356 102.321 52.4356 102.806V133.325C52.4356 133.944 52.9953 134.414 53.6069 134.308L77.4805 130.166C77.9595 130.083 78.3092 129.668 78.3092 129.183V98.6638Z" fill="white"/>
<path d="M77.1842 97.5416C77.1842 96.9223 76.6245 96.4527 76.0129 96.5588L52.1393 100.701C51.6603 100.784 51.3106 101.198 51.3106 101.684V132.203C51.3106 132.822 51.8704 133.292 52.482 133.186L76.3556 129.044C76.8345 128.961 77.1842 128.546 77.1842 128.061V97.5416Z" fill="white"/>
<path d="M23.2229 99.8626C23.2047 99.2184 23.7943 98.7263 24.4267 98.8579L48.2649 103.817C48.7285 103.914 49.0607 104.321 49.0607 104.794V135.247C49.0607 135.897 48.4481 136.373 47.8165 136.215L24.8172 130.435C24.3831 130.326 24.0746 129.942 24.0619 129.496L23.2229 99.8626Z" fill="#636363"/>
<path d="M80.5233 99.8626C80.5415 99.2184 79.9519 98.7263 79.3195 98.8579L55.4813 103.817C55.0177 103.914 54.6855 104.321 54.6855 104.794V135.247C54.6855 135.897 55.2982 136.373 55.9298 136.215L78.929 130.435C79.3631 130.326 79.6717 129.942 79.6843 129.496L80.5233 99.8626Z" fill="#636363"/>
<path d="M76.6217 105.836C76.6217 105.217 76.062 104.747 75.4504 104.853L60.5763 107.434C60.0973 107.517 59.7477 107.932 59.7477 108.417V113.247C59.7477 113.866 60.3074 114.336 60.919 114.23L75.7931 111.649C76.2721 111.566 76.6217 111.151 76.6217 110.666V105.836Z" fill="#505050"/>
<path d="M47.9358 104.735C47.9358 104.29 48.2318 103.898 48.6611 103.776L49.1259 103.644C50.9214 103.132 52.8248 103.132 54.6203 103.644L55.0851 103.776C55.5144 103.898 55.8104 104.29 55.8104 104.735V135.775C55.8104 136.22 55.5144 136.612 55.0851 136.734L54.6203 136.866C52.8248 137.378 50.9214 137.378 49.1259 136.866L48.6611 136.734C48.2318 136.612 47.9358 136.22 47.9358 135.775V104.735Z" fill="#6C6C6C"/>
<path d="M31.0617 114.432C31.0617 111.4 28.2494 109.628 25.437 108.942C22.3909 108.198 19.8124 108.942 19.8124 114.432C19.8124 119.922 22.3306 119.922 25.437 119.922C28.5435 119.922 31.0617 117.464 31.0617 114.432Z" fill="#FFFAE6"/>
<path d="M73.8093 113.31C73.8093 110.278 76.6217 108.506 79.434 107.819C82.4801 107.076 85.0587 107.819 85.0587 113.31C85.0587 118.8 82.5405 118.8 79.434 118.8C76.3276 118.8 73.8093 116.342 73.8093 113.31Z" fill="#FFFAE6"/>
</g>
<defs>
<clipPath id="clip0_4508_28132">
<rect x="17" y="38" width="69" height="101" rx="4" fill="white"/>
</clipPath>
</defs>
</svg>
