<svg xmlns="http://www.w3.org/2000/svg" width="24" height="24" viewBox="0 0 24 24" fill="none">
<path fill-rule="evenodd" clip-rule="evenodd" d="M3 5C3 2.79086 4.79086 1 7 1H19C20.1046 1 21 1.89543 21 3V16.1098C21 16.6994 20.9049 17.2852 20.7185 17.8445L20.5366 18.3902C20.193 19.4209 20.273 20.546 20.7589 21.5178C21.0994 22.1988 20.6042 23 19.8428 23H7C4.79086 23 3 21.2091 3 19V5ZM10 5C10 4.44772 10.4477 4 11 4H16C16.5523 4 17 4.44772 17 5C17 5.55228 16.5523 6 16 6H11C10.4477 6 10 5.55228 10 5ZM6.8 20C6.8 18.785 7.78497 17.8 9 17.8H19C19.4418 17.8 19.8 17.4418 19.8 17C19.8 16.5582 19.4418 16.2 19 16.2H9C6.90132 16.2 5.2 17.9013 5.2 20C5.2 20.4418 5.55817 20.8 6 20.8C6.44183 20.8 6.8 20.4418 6.8 20Z" fill="#DDDDDD"/>
</svg>