<svg width="105" height="156" viewBox="0 0 105 156" fill="none" xmlns="http://www.w3.org/2000/svg">
<rect x="0.5" width="104" height="156" rx="4" fill="#DDDDDD"/>
<path d="M44.7148 103.729V104.617H33.5859V103.729H36.6895V100.83H34.5977V99.9414H36.498V95.9766H34.5703V95.0879H43.6484V95.9766H41.7207V99.9414H43.6211V100.83H41.5293V103.729H44.7148ZM37.5645 99.9414H40.668V95.9766H37.5645V99.9414ZM37.7695 103.729H40.4629V100.83H37.7695V103.729ZM50.0332 97.6855C50.0332 99.75 51.5371 101.842 53.3281 102.621L52.7266 103.469C51.3047 102.819 50.0742 101.418 49.5137 99.7363C48.9395 101.521 47.7158 103.072 46.3281 103.77L45.6855 102.922C47.4219 102.088 48.9395 99.791 48.9531 97.6855V96.0996H46.082V95.2109H52.9316V96.0996H50.0332V97.6855ZM55.707 93.9531V106.107H54.627V93.9531H55.707ZM68.9004 99.5996V100.447H57.7715V99.5996H68.9004ZM67.5059 101.418V104.002H60.2051V105.164H67.9023V105.943H59.125V103.264H66.4395V102.225H59.1113V101.418H67.5059ZM67.4648 94.3223V96.8379H60.2871V97.9043H67.6836V98.6836H59.2207V96.0996H66.3848V95.1016H59.1797V94.3223H67.4648ZM28.2676 121.309V122.211H23.25V126.135H22.1973V122.211H17.1934V121.309H28.2676ZM23.2637 116.359C23.2637 117.877 25.3828 119.203 27.5566 119.504L27.1602 120.365C25.2803 120.078 23.5098 119.135 22.7441 117.809C21.9648 119.148 20.167 120.078 18.2871 120.365L17.8906 119.504C20.0508 119.203 22.1973 117.891 22.1973 116.359V116.346H18.2734V115.471H22.1973V113.953H23.25V115.471H27.2012V116.346H23.2637V116.359ZM38.6992 113.953V118.902H40.668V119.805H38.6992V126.107H37.6328V113.953H38.6992ZM35.5547 115.266C35.5547 118.711 33.9414 121.842 29.9766 123.797L29.375 122.949C32.5195 121.384 34.2285 119.046 34.4746 116.168H29.9355V115.266H35.5547ZM47.4629 116.059V116.934H41.3652V116.059H43.8945V114.322H44.9609V116.059H47.4629ZM44.4141 117.754C45.9453 117.754 47.0391 118.902 47.0527 120.516C47.0391 122.143 45.9453 123.305 44.4141 123.305C42.8965 123.305 41.8027 122.143 41.8027 120.516C41.8027 118.902 42.8965 117.754 44.4141 117.754ZM44.4141 118.656C43.457 118.67 42.7598 119.449 42.7598 120.516C42.7598 121.596 43.457 122.375 44.4141 122.361C45.3848 122.375 46.0957 121.596 46.0957 120.516C46.0957 119.449 45.3848 118.67 44.4141 118.656ZM51.7422 113.953V126.107H50.7168V119.969H49.1035V125.506H48.0918V114.254H49.1035V119.08H50.7168V113.953H51.7422ZM59.6309 115.676C59.6172 117.303 61.791 118.684 63.9102 118.998L63.5137 119.846C61.6133 119.524 59.7676 118.513 59.0293 117.043C58.291 118.513 56.4385 119.524 54.5723 119.846L54.1484 118.998C56.2539 118.684 58.4277 117.303 58.4277 115.676V115.594H54.5312V114.719H63.5137V115.594H59.6309V115.676ZM64.5664 120.885V121.773H59.5352V126.107H58.4824V121.773H53.4922V120.885H64.5664ZM69.2012 117.412C69.2012 119.34 70.1445 121.432 71.7578 122.389L71.1426 123.223C69.9736 122.512 69.1328 121.213 68.709 119.736C68.2578 121.35 67.3555 122.737 66.1387 123.482L65.4551 122.676C67.1367 121.691 68.1621 119.531 68.1621 117.453V115.102H69.2012V117.412ZM76.0098 113.953V126.107H74.9707V113.953H76.0098ZM73.4941 114.213V125.492H72.4824V119.23H70.418V118.314H72.4824V114.213H73.4941ZM88.8203 123.646V124.549H77.6914V123.646H80.4531V120.365C79.4141 119.825 78.7852 118.95 78.7852 117.85C78.7852 115.963 80.6309 114.732 83.2285 114.719C85.8262 114.732 87.6719 115.963 87.6719 117.85C87.6719 118.93 87.0635 119.798 86.0586 120.338V123.646H88.8203ZM83.2285 115.607C81.2324 115.594 79.8242 116.496 79.8242 117.85C79.8242 119.203 81.2324 120.119 83.2285 120.119C85.2109 120.119 86.6328 119.203 86.6328 117.85C86.6328 116.496 85.2109 115.594 83.2285 115.607ZM81.5059 123.646H84.9785V120.748C84.4521 120.892 83.8643 120.967 83.2285 120.967C82.6064 120.967 82.0254 120.898 81.5059 120.762V123.646Z" fill="white"/>
<path d="M60.6667 52.5H44.3333C43.0447 52.5 42 53.5447 42 54.8333V71.1667C42 72.4553 43.0447 73.5 44.3333 73.5H60.6667C61.9553 73.5 63 72.4553 63 71.1667V54.8333C63 53.5447 61.9553 52.5 60.6667 52.5Z" stroke="white" stroke-width="1.2" stroke-linecap="round" stroke-linejoin="round"/>
<path d="M48.417 60.6665C49.3835 60.6665 50.167 59.883 50.167 58.9165C50.167 57.95 49.3835 57.1665 48.417 57.1665C47.4505 57.1665 46.667 57.95 46.667 58.9165C46.667 59.883 47.4505 60.6665 48.417 60.6665Z" stroke="white" stroke-width="1.2" stroke-linecap="round" stroke-linejoin="round"/>
<path d="M62.9997 66.4998L57.1663 60.6665L44.333 73.4998" stroke="white" stroke-width="1.2" stroke-linecap="round" stroke-linejoin="round"/>
</svg>
