<svg width="48" height="40" viewBox="0 0 48 40" fill="none" xmlns="http://www.w3.org/2000/svg">
<path d="M17.7422 31.8877C17.7422 33.6172 18.8486 35.3574 20.2344 35.9912L19.7295 36.6787C18.6445 36.1201 17.7476 34.9761 17.3232 33.6172C16.8989 35.0459 16.002 36.2705 14.917 36.8506L14.3691 36.1738C15.7656 35.4863 16.8828 33.6494 16.8828 31.8877V30.1475H17.7422V31.8877ZM22.2969 29.3203V38.8916H21.459V33.2734H19.1924V32.5859H21.459V29.3203H22.2969ZM32.0938 29.3203V38.8701H31.2773V33.9072H29.9775V38.3867H29.1719V29.5244H29.9775V33.1875H31.2773V29.3203H32.0938ZM26.7119 31.9307C26.7119 33.6816 27.4316 35.2178 28.7959 35.916L28.291 36.5713C27.3242 36.0449 26.6636 35.0996 26.3252 33.9287C25.9976 35.2607 25.3262 36.3027 24.3164 36.8936L23.79 36.249C25.165 35.4971 25.8955 33.8643 25.8955 31.9307V31.168H24.0156V30.459H28.4844V31.168H26.7119V31.9307Z" fill="#DDDDDD"/>
<path fill-rule="evenodd" clip-rule="evenodd" d="M15 5C15 2.79086 16.7909 1 19 1H31C32.1046 1 33 1.89543 33 3V16.1098C33 16.6994 32.9049 17.2852 32.7185 17.8445L32.5366 18.3902C32.193 19.4209 32.273 20.546 32.7589 21.5178C33.0994 22.1988 32.6042 23 31.8428 23H19C16.7909 23 15 21.2091 15 19V5ZM22 5C22 4.44772 22.4477 4 23 4H28C28.5523 4 29 4.44772 29 5C29 5.55228 28.5523 6 28 6H23C22.4477 6 22 5.55228 22 5ZM18.8 20C18.8 18.785 19.785 17.8 21 17.8H31C31.4418 17.8 31.8 17.4418 31.8 17C31.8 16.5582 31.4418 16.2 31 16.2H21C18.9013 16.2 17.2 17.9013 17.2 20C17.2 20.4418 17.5582 20.8 18 20.8C18.4418 20.8 18.8 20.4418 18.8 20Z" fill="#DDDDDD"/>
</svg>
