<svg width="48" height="40" viewBox="0 0 48 40" fill="none" xmlns="http://www.w3.org/2000/svg">
<path d="M18.3867 30.4375V32.9297H19.8369V29.5244H20.6426V38.3867H19.8369V33.6279H18.3867V36.3027H14.7344V30.4375H18.3867ZM15.5293 31.1143V35.626H17.5918V31.1143H15.5293ZM22.5654 29.3203V38.8701H21.749V29.3203H22.5654ZM31.7715 29.3311V36.3135H30.9336V29.3311H31.7715ZM32.0723 37.957V38.666H25.6055V35.6045H26.4434V37.957H32.0723ZM26.6152 29.9971C28.0439 29.9971 29.1182 30.9639 29.1182 32.3389C29.1182 33.7354 28.0439 34.6914 26.6152 34.6914C25.1865 34.6914 24.1123 33.7354 24.1123 32.3389C24.1123 30.9639 25.1865 29.9971 26.6152 29.9971ZM26.6152 30.7383C25.6484 30.7383 24.9287 31.4043 24.9395 32.3389C24.9287 33.2949 25.6484 33.9502 26.6152 33.9502C27.5605 33.9502 28.291 33.2949 28.291 32.3389C28.291 31.4043 27.5605 30.7383 26.6152 30.7383Z" fill="#DDDDDD"/>
<path fill-rule="evenodd" clip-rule="evenodd" d="M15.7721 8.39943C15.2849 8.77834 15 9.36096 15 9.97814V20C15 20.5304 15.2107 21.0391 15.5858 21.4142C15.9609 21.7893 16.4696 22 17 22H21V17C21 15.8954 21.8954 15 23 15H25C26.1046 15 27 15.8954 27 17V22H31C31.5304 22 32.0391 21.7893 32.4142 21.4142C32.7893 21.0391 33 20.5304 33 20V9.97814C33 9.36096 32.7151 8.77835 32.2279 8.39943L25.2279 2.95499C24.5057 2.39326 23.4943 2.39326 22.7721 2.95499L15.7721 8.39943Z" fill="#DDDDDD"/>
<path d="M15.7721 8.39943L15.1582 7.61008H15.1582L15.7721 8.39943ZM15.5858 21.4142L14.8787 22.1213L14.8787 22.1213L15.5858 21.4142ZM21 22V23C21.5523 23 22 22.5523 22 22H21ZM27 22H26C26 22.5523 26.4477 23 27 23V22ZM32.4142 21.4142L33.1213 22.1213L33.1213 22.1213L32.4142 21.4142ZM32.2279 8.39943L32.8418 7.61008V7.61008L32.2279 8.39943ZM25.2279 2.95499L25.8418 2.16564V2.16564L25.2279 2.95499ZM22.7721 2.95499L23.3861 3.74434L22.7721 2.95499ZM16 9.97814C16 9.66955 16.1425 9.37824 16.3861 9.18878L15.1582 7.61008C14.4274 8.17845 14 9.05237 14 9.97814H16ZM16 20V9.97814H14V20H16ZM16.2929 20.7071C16.1054 20.5195 16 20.2652 16 20H14C14 20.7956 14.3161 21.5587 14.8787 22.1213L16.2929 20.7071ZM17 21C16.7348 21 16.4804 20.8946 16.2929 20.7071L14.8787 22.1213C15.4413 22.6839 16.2043 23 17 23V21ZM21 21H17V23H21V21ZM22 22V17H20V22H22ZM22 17C22 16.4477 22.4477 16 23 16V14C21.3431 14 20 15.3431 20 17H22ZM23 16H25V14H23V16ZM25 16C25.5523 16 26 16.4477 26 17H28C28 15.3431 26.6569 14 25 14V16ZM26 17V22H28V17H26ZM31 21H27V23H31V21ZM31.7071 20.7071C31.5196 20.8946 31.2652 21 31 21V23C31.7957 23 32.5587 22.6839 33.1213 22.1213L31.7071 20.7071ZM32 20C32 20.2652 31.8946 20.5195 31.7071 20.7071L33.1213 22.1213C33.6839 21.5587 34 20.7956 34 20H32ZM32 9.97814V20H34V9.97814H32ZM31.6139 9.18879C31.8575 9.37824 32 9.66955 32 9.97814H34C34 9.05237 33.5726 8.17845 32.8418 7.61008L31.6139 9.18879ZM24.6139 3.74434L31.6139 9.18879L32.8418 7.61008L25.8418 2.16564L24.6139 3.74434ZM23.3861 3.74434C23.7472 3.46348 24.2528 3.46348 24.6139 3.74434L25.8418 2.16564C24.7585 1.32305 23.2415 1.32304 22.1582 2.16563L23.3861 3.74434ZM16.3861 9.18878L23.3861 3.74434L22.1582 2.16563L15.1582 7.61008L16.3861 9.18878Z" fill="#DDDDDD"/>
</svg>
