<svg width="49" height="40" viewBox="0 0 49 40" fill="none" xmlns="http://www.w3.org/2000/svg">
<path d="M22.6982 29.3203V38.8701H21.8496V29.3203H22.6982ZM19.873 30.3623C19.8623 33.1123 18.584 35.54 15.3828 37.0762L14.9209 36.3887C17.5044 35.1641 18.8203 33.3325 19.0137 31.0498H15.3613V30.3623H19.873ZM33.043 34.584V35.2822H24.2988V34.584H28.252V33.5742H25.4375V31.2432H31.0664V30.2549H25.4053V29.5674H31.915V31.877H26.2754V32.8975H32.1191V33.5742H29.0791V34.584H33.043ZM31.9688 36.0127V38.7842H31.1201V36.7002H25.2764V36.0127H31.9688Z" fill="#323232"/>
<path d="M30.1783 3.45593C30.5479 3.08631 31.0492 2.87866 31.572 2.87866C32.0947 2.87866 32.596 3.08631 32.9656 3.45593C33.3352 3.82554 33.5429 4.32685 33.5429 4.84956C33.5429 5.37228 33.3352 5.87358 32.9656 6.2432L24.1392 15.0696L20.4229 15.9987L21.3519 12.2823L30.1783 3.45593Z" fill="#323232" stroke="#323232" stroke-width="2" stroke-linecap="round" stroke-linejoin="round"/>
<rect x="14.4229" y="18" width="21" height="3" rx="1.5" fill="#323232"/>
</svg>
