<svg width="49" height="40" viewBox="0 0 49 40" fill="none" xmlns="http://www.w3.org/2000/svg">
<path d="M19.5605 29.9434C19.5498 32.3389 17.8418 34.0576 15.0918 34.8418L14.7373 34.1758C17.02 33.5312 18.4756 32.2637 18.6582 30.6416H15.2314V29.9434H19.5605ZM22.5469 29.3311V34.7773H21.6982V32.5H19.582V31.791H21.6982V29.3311H22.5469ZM22.5469 35.1855V38.7412H16.3486V35.1855H22.5469ZM17.165 35.8623V38.0537H21.709V35.8623H17.165ZM26.9834 31.1895C26.9834 32.2744 27.7139 33.3701 28.9385 33.8535L28.4873 34.5088C27.585 34.1328 26.9243 33.4346 26.5859 32.5859C26.2314 33.5151 25.5439 34.3262 24.6094 34.7451L24.1475 34.0898C25.4043 33.5312 26.1777 32.2744 26.1777 31.1895V29.9111H26.9834V31.1895ZM32.2471 29.3311V35.0996H31.4414V32.5322H30.1738V35.0459H29.3789V29.5029H30.1738V31.8232H31.4414V29.3311H32.2471ZM32.2471 35.626V38.8701H31.4199V36.3242H25.8125V35.626H32.2471Z" fill="#323232"/>
<circle cx="23" cy="10.75" r="7.25" stroke="#323232" stroke-width="3"/>
<path d="M32.8138 23.3919C33.5919 24.1759 34.8657 24.1883 35.6589 23.4195C36.4521 22.6508 36.4643 21.3921 35.6862 20.6081L32.8138 23.3919ZM26.6942 17.2262L32.8138 23.3919L35.6862 20.6081L29.5666 14.4425L26.6942 17.2262Z" fill="#323232"/>
</svg>
