<svg width="49" height="40" viewBox="0 0 49 40" fill="none" xmlns="http://www.w3.org/2000/svg">
<path d="M19.0513 29.3203V38.8701H18.2349V33.8965H16.9028V38.3975H16.1079V29.5566H16.9028V33.1982H18.2349V29.3203H19.0513ZM15.1196 30.4805C15.1089 32.9512 14.3569 35.3037 11.4458 36.8936L10.9409 36.292C12.4341 35.4756 13.3203 34.4658 13.7983 33.3164L11.0698 33.6064L10.9409 32.8652L14.0347 32.6611C14.1689 32.1831 14.2441 31.689 14.2817 31.1787H11.4136V30.4805H15.1196ZM28.2681 29.3311V35.1641H27.4302V29.3311H28.2681ZM28.2681 35.6797V38.8701H27.4302V36.3779H21.8442V35.6797H28.2681ZM25.228 29.9004V32.5322H21.7046V33.918C23.4126 33.918 24.6909 33.8643 26.2378 33.6279L26.3345 34.3154C24.7339 34.5625 23.4233 34.6162 21.6616 34.6162H20.8882V31.8662H24.3901V30.5879H20.8667V29.9004H25.228ZM37.8071 29.3203V38.8916H36.9692V33.6279H34.9497V32.9297H36.9692V29.3203H37.8071ZM34.7886 30.2012V30.8994H31.1792V32.8867H34.3696V33.5742H31.1792V35.8838C32.9355 35.8838 34.0527 35.8247 35.3687 35.5938L35.4653 36.292C34.0796 36.5176 32.9087 36.582 31.061 36.582H30.3306V30.2012H34.7886Z" fill="#DDDDDD"/>
<path fill-rule="evenodd" clip-rule="evenodd" d="M24.75 22C33.5669 22 35.75 18.1385 35.75 13.375C35.75 8.61154 33.9461 1 24.7499 1C15.5538 1 13.75 8.61154 13.75 13.375C13.75 18.1385 15.9331 22 24.75 22ZM25.9542 15.3744C25.1688 15.1307 24.3274 15.1351 23.5445 15.3868L21.4996 16.0443C20.7395 16.2887 20.9155 17.4107 21.7138 17.4107H27.8992C28.7017 17.4107 28.8731 16.28 28.1066 16.0422L25.9542 15.3744ZM21.75 13C21.75 13.5523 21.3023 14 20.75 14C20.1977 14 19.75 13.5523 19.75 13C19.75 12.4477 20.1977 12 20.75 12C21.3023 12 21.75 12.4477 21.75 13ZM28.75 14C29.3023 14 29.75 13.5523 29.75 13C29.75 12.4477 29.3023 12 28.75 12C28.1977 12 27.75 12.4477 27.75 13C27.75 13.5523 28.1977 14 28.75 14Z" fill="#DDDDDD"/>
</svg>
