<svg width="49" height="40" viewBox="0 0 49 40" fill="none" xmlns="http://www.w3.org/2000/svg">
<path d="M22.7754 29.3203V38.8701H21.9268V29.3203H22.7754ZM19.9502 30.3623C19.9395 33.1123 18.6611 35.54 15.46 37.0762L14.998 36.3887C17.5815 35.1641 18.8975 33.3325 19.0908 31.0498H15.4385V30.3623H19.9502ZM33.1201 34.584V35.2822H24.376V34.584H28.3291V33.5742H25.5146V31.2432H31.1436V30.2549H25.4824V29.5674H31.9922V31.877H26.3525V32.8975H32.1963V33.5742H29.1562V34.584H33.1201ZM32.0459 36.0127V38.7842H31.1973V36.7002H25.3535V36.0127H32.0459Z" fill="#DDDDDD"/>
<path d="M30.2555 3.45593C30.6251 3.08631 31.1264 2.87866 31.6491 2.87866C32.1718 2.87866 32.6731 3.08631 33.0427 3.45593C33.4124 3.82554 33.62 4.32685 33.62 4.84956C33.62 5.37228 33.4124 5.87358 33.0427 6.2432L24.2164 15.0696L20.5 15.9987L21.4291 12.2823L30.2555 3.45593Z" fill="#DDDDDD" stroke="#DDDDDD" stroke-width="2" stroke-linecap="round" stroke-linejoin="round"/>
<rect x="14.5" y="18" width="21" height="3" rx="1.5" fill="#DDDDDD"/>
</svg>
