<svg xmlns="http://www.w3.org/2000/svg" width="36" height="36" viewBox="0 0 36 36" fill="none">
<path d="M14.25 12.4658V13.2158C14.5128 13.2158 14.7564 13.0782 14.8922 12.8532L14.25 12.4658ZM15.7375 10V9.25C15.4747 9.25 15.2311 9.38756 15.0953 9.61259L15.7375 10ZM21.2625 10L21.9047 9.61259C21.7689 9.38756 21.5253 9.25 21.2625 9.25V10ZM22.75 12.4658L22.1078 12.8532C22.2436 13.0782 22.4872 13.2158 22.75 13.2158V12.4658ZM10.75 22.9452V14.5205H9.25V22.9452H10.75ZM12.125 13.2158H14.25V11.7158H12.125V13.2158ZM14.8922 12.8532L16.3797 10.3874L15.0953 9.61259L13.6078 12.0783L14.8922 12.8532ZM15.7375 10.75H21.2625V9.25H15.7375V10.75ZM20.6203 10.3874L22.1078 12.8532L23.3922 12.0783L21.9047 9.61259L20.6203 10.3874ZM22.75 13.2158H24.875V11.7158H22.75V13.2158ZM26.25 14.5205V22.9452H27.75V14.5205H26.25ZM26.25 22.9452C26.25 23.6423 25.6583 24.25 24.875 24.25V25.75C26.4389 25.75 27.75 24.5178 27.75 22.9452H26.25ZM24.875 13.2158C25.6583 13.2158 26.25 13.8235 26.25 14.5205H27.75C27.75 12.948 26.4389 11.7158 24.875 11.7158V13.2158ZM10.75 14.5205C10.75 13.8235 11.3417 13.2158 12.125 13.2158V11.7158C10.5611 11.7158 9.25 12.9479 9.25 14.5205H10.75ZM12.125 24.25C11.3417 24.25 10.75 23.6423 10.75 22.9452H9.25C9.25 24.5178 10.5611 25.75 12.125 25.75V24.25ZM20.9375 18.2192C20.9375 19.4837 19.8701 20.5514 18.5 20.5514V22.0514C20.6507 22.0514 22.4375 20.3592 22.4375 18.2192H20.9375ZM18.5 20.5514C17.1299 20.5514 16.0625 19.4837 16.0625 18.2192H14.5625C14.5625 20.3592 16.3493 22.0514 18.5 22.0514V20.5514ZM16.0625 18.2192C16.0625 16.9547 17.1299 15.887 18.5 15.887V14.387C16.3493 14.387 14.5625 16.0792 14.5625 18.2192H16.0625ZM18.5 15.887C19.8701 15.887 20.9375 16.9547 20.9375 18.2192H22.4375C22.4375 16.0792 20.6507 14.387 18.5 14.387V15.887ZM24.875 24.25H12.125V25.75H24.875V24.25Z" fill="#636363"/>
</svg>