<svg xmlns="http://www.w3.org/2000/svg" width="16" height="16" viewBox="0 0 16 16" fill="none">
<path d="M14.3999 12.1344L8.66659 7.8344V7.22773C9.76659 6.90106 10.5333 5.78106 10.2866 4.52773C10.1133 3.6544 9.41993 2.92773 8.54659 2.72773C7.37326 2.46106 6.29993 3.08106 5.8666 4.04773C5.6666 4.4944 5.9866 5.00106 6.47326 5.00106C6.73326 5.00106 6.97326 4.8544 7.07326 4.62106C7.22659 4.2544 7.57993 4.00106 7.99993 4.00106C8.55326 4.00106 8.99993 4.44773 8.99993 5.00106C8.99993 5.56106 8.53993 6.0144 7.97993 6.00106C7.61993 5.9944 7.33326 6.30106 7.33326 6.66106V7.8344L1.59993 12.1344C1.0866 12.5211 1.35993 13.3344 1.99993 13.3344H13.9999C14.6399 13.3344 14.9133 12.5211 14.3999 12.1344ZM3.99993 12.0011L7.99993 9.00106L11.9999 12.0011H3.99993Z" fill="#636363"/>
</svg>