<svg xmlns="http://www.w3.org/2000/svg" width="16" height="16" viewBox="0 0 16 16" fill="none">
<path fill-rule="evenodd" clip-rule="evenodd" d="M16 8C16 12.4183 12.4183 16 8 16C3.58172 16 0 12.4183 0 8C0 3.58172 3.58172 0 8 0C12.4183 0 16 3.58172 16 8ZM4.43431 4.43431C4.74673 4.1219 5.25327 4.1219 5.56569 4.43431L8.12132 6.98995L10.677 4.43432C10.9894 4.1219 11.4959 4.1219 11.8083 4.43432C12.1207 4.74674 12.1207 5.25327 11.8083 5.56569L9.25269 8.12132L11.8083 10.677C12.1207 10.9894 12.1207 11.4959 11.8083 11.8083C11.4959 12.1207 10.9894 12.1207 10.677 11.8083L8.12132 9.25269L5.56569 11.8083C5.25327 12.1208 4.74673 12.1208 4.43431 11.8083C4.1219 11.4959 4.1219 10.9894 4.43431 10.677L6.98995 8.12132L4.43431 5.56569C4.1219 5.25327 4.1219 4.74673 4.43431 4.43431Z" fill="#ABABAB"/>
</svg>