<svg xmlns="http://www.w3.org/2000/svg" width="28" height="28" viewBox="0 0 28 28" fill="none">
<path fill-rule="evenodd" clip-rule="evenodd" d="M14.0001 25.6666C24.2865 25.6666 26.8334 21.1615 26.8334 15.6041C26.8334 10.0468 24.7289 1.16663 14 1.16663C3.27114 1.16663 1.16675 10.0468 1.16675 15.6041C1.16675 21.1615 3.71367 25.6666 14.0001 25.6666ZM15.4049 17.9368C14.4886 17.6525 13.507 17.6576 12.5936 17.9512L10.2078 18.7184C9.32109 19.0035 9.52636 20.3125 10.4578 20.3125H17.674C18.6103 20.3125 18.8103 18.9933 17.916 18.7158L15.4049 17.9368ZM10.5 15.1667C10.5 15.811 9.97766 16.3333 9.33333 16.3333C8.689 16.3333 8.16667 15.811 8.16667 15.1667C8.16667 14.5223 8.689 14 9.33333 14C9.97766 14 10.5 14.5223 10.5 15.1667ZM18.6667 16.3333C19.311 16.3333 19.8333 15.811 19.8333 15.1667C19.8333 14.5223 19.311 14 18.6667 14C18.0223 14 17.5 14.5223 17.5 15.1667C17.5 15.811 18.0223 16.3333 18.6667 16.3333Z" fill="url(#paint0_linear_2005_12178)"/>
<defs>
<linearGradient id="paint0_linear_2005_12178" x1="14.0001" y1="1.16663" x2="14.0001" y2="25.6666" gradientUnits="userSpaceOnUse">
<stop stop-color="#FFBF68"/>
<stop offset="1" stop-color="#FF9F1C"/>
</linearGradient>
</defs>
</svg>