<svg xmlns="http://www.w3.org/2000/svg" width="24" height="24" viewBox="0 0 24 24" fill="none">
<path fill-rule="evenodd" clip-rule="evenodd" d="M12 22C20.8169 22 23 18.1385 23 13.375C23 8.61154 21.1961 1 11.9999 1C2.80376 1 1 8.61154 1 13.375C1 18.1385 3.18307 22 12 22ZM13.2042 15.3744C12.4188 15.1307 11.5774 15.1351 10.7945 15.3868L8.74956 16.0443C7.9895 16.2887 8.16545 17.4107 8.96383 17.4107H15.1492C15.9517 17.4107 16.1231 16.28 15.3566 16.0422L13.2042 15.3744ZM9 13C9 13.5523 8.55228 14 8 14C7.44772 14 7 13.5523 7 13C7 12.4477 7.44772 12 8 12C8.55228 12 9 12.4477 9 13ZM16 14C16.5523 14 17 13.5523 17 13C17 12.4477 16.5523 12 16 12C15.4477 12 15 12.4477 15 13C15 13.5523 15.4477 14 16 14Z" fill="#323232"/>
</svg>