<svg xmlns="http://www.w3.org/2000/svg" width="28" height="28" viewBox="0 0 28 28" fill="none">
<path d="M23.8674 5.35655C23.2972 4.76797 22.6203 4.30107 21.8752 3.98251C21.1302 3.66396 20.3316 3.5 19.5251 3.5C18.7186 3.5 17.92 3.66396 17.175 3.98251C16.4299 4.30107 15.753 4.76797 15.1829 5.35655L13.9996 6.57749L12.8164 5.35655C11.6647 4.16822 10.1028 3.50062 8.47413 3.50062C6.84547 3.50062 5.28351 4.16822 4.13187 5.35655C2.98024 6.54489 2.33325 8.15662 2.33325 9.83718C2.33325 11.5177 2.98024 13.1295 4.13187 14.3178L5.31511 15.5387L13.1618 23.6355C13.6202 24.1085 14.379 24.1085 14.8374 23.6355L22.6841 15.5387L23.8674 14.3178C24.4378 13.7295 24.8903 13.031 25.199 12.2622C25.5077 11.4934 25.6666 10.6694 25.6666 9.83718C25.6666 9.00499 25.5077 8.18096 25.199 7.41216C24.8903 6.64336 24.4378 5.94486 23.8674 5.35655Z" fill="url(#paint0_linear_2005_8090)"/>
<defs>
<linearGradient id="paint0_linear_2005_8090" x1="13.9999" y1="3.5" x2="13.9999" y2="24.5" gradientUnits="userSpaceOnUse">
<stop stop-color="#FFBF68"/>
<stop offset="1" stop-color="#FF9F1C"/>
</linearGradient>
</defs>
</svg>