<svg xmlns="http://www.w3.org/2000/svg" width="16" height="16" viewBox="0 0 16 16" fill="none">
<path d="M8.00004 14.6667C11.6819 14.6667 14.6667 11.6819 14.6667 8C14.6667 4.3181 11.6819 1.33333 8.00004 1.33333C4.31814 1.33333 1.33337 4.3181 1.33337 8C1.33337 11.6819 4.31814 14.6667 8.00004 14.6667Z" fill="#DDDDDD"/>
<path d="M6.06006 6C6.21679 5.55445 6.52616 5.17874 6.93336 4.93942C7.34056 4.70011 7.81932 4.61263 8.28484 4.69247C8.75036 4.77232 9.1726 5.01435 9.47678 5.37569C9.78095 5.73702 9.94743 6.19435 9.94673 6.66667C9.94673 8 7.94673 8.66667 7.94673 8.66667" stroke="white" stroke-linecap="round" stroke-linejoin="round"/>
<path d="M8 11.3333H8.00667" stroke="white" stroke-linecap="round" stroke-linejoin="round"/>
</svg>