<svg xmlns="http://www.w3.org/2000/svg" width="24" height="24" viewBox="0 0 24 24" fill="none">
<path fill-rule="evenodd" clip-rule="evenodd" d="M3.77212 8.39946C3.28495 8.77837 3 9.36099 3 9.97817V20C3 20.5304 3.21071 21.0391 3.58579 21.4142C3.96086 21.7893 4.46957 22 5 22H9V17C9 15.8954 9.89543 15 11 15H13C14.1046 15 15 15.8954 15 17V22H19C19.5304 22 20.0391 21.7893 20.4142 21.4142C20.7893 21.0391 21 20.5304 21 20V9.97817C21 9.36099 20.7151 8.77838 20.2279 8.39946L13.2279 2.95502C12.5057 2.39329 11.4943 2.39329 10.7721 2.95502L3.77212 8.39946Z" fill="#DDDDDD"/>
<path d="M3.77212 8.39946L3.15818 7.61011H3.15818L3.77212 8.39946ZM3.58579 21.4142L2.87868 22.1213L2.87868 22.1213L3.58579 21.4142ZM9 22V23C9.55228 23 10 22.5523 10 22H9ZM15 22H14C14 22.5523 14.4477 23 15 23V22ZM20.4142 21.4142L21.1213 22.1213L21.1213 22.1213L20.4142 21.4142ZM20.2279 8.39946L20.8418 7.61011V7.61011L20.2279 8.39946ZM13.2279 2.95502L13.8418 2.16567V2.16567L13.2279 2.95502ZM10.7721 2.95502L11.3861 3.74437L10.7721 2.95502ZM4 9.97817C4 9.66958 4.14247 9.37827 4.38606 9.18881L3.15818 7.61011C2.42742 8.17848 2 9.0524 2 9.97817H4ZM4 20V9.97817H2V20H4ZM4.29289 20.7071C4.10536 20.5196 4 20.2652 4 20H2C2 20.7956 2.31607 21.5587 2.87868 22.1213L4.29289 20.7071ZM5 21C4.73478 21 4.48043 20.8946 4.29289 20.7071L2.87868 22.1213C3.44129 22.6839 4.20435 23 5 23V21ZM9 21H5V23H9V21ZM10 22V17H8V22H10ZM10 17C10 16.4477 10.4477 16 11 16V14C9.34315 14 8 15.3431 8 17H10ZM11 16H13V14H11V16ZM13 16C13.5523 16 14 16.4477 14 17H16C16 15.3431 14.6569 14 13 14V16ZM14 17V22H16V17H14ZM19 21H15V23H19V21ZM19.7071 20.7071C19.5196 20.8946 19.2652 21 19 21V23C19.7957 23 20.5587 22.6839 21.1213 22.1213L19.7071 20.7071ZM20 20C20 20.2652 19.8946 20.5196 19.7071 20.7071L21.1213 22.1213C21.6839 21.5587 22 20.7957 22 20H20ZM20 9.97817V20H22V9.97817H20ZM19.6139 9.18882C19.8575 9.37827 20 9.66958 20 9.97817H22C22 9.0524 21.5726 8.17848 20.8418 7.61011L19.6139 9.18882ZM12.6139 3.74437L19.6139 9.18882L20.8418 7.61011L13.8418 2.16567L12.6139 3.74437ZM11.3861 3.74437C11.7472 3.46351 12.2528 3.46351 12.6139 3.74437L13.8418 2.16567C12.7585 1.32308 11.2415 1.32307 10.1582 2.16566L11.3861 3.74437ZM4.38606 9.18881L11.3861 3.74437L10.1582 2.16566L3.15818 7.61011L4.38606 9.18881Z" fill="#DDDDDD"/>
</svg>