<svg width="25" height="24" viewBox="0 0 25 24" fill="none" xmlns="http://www.w3.org/2000/svg">
<path d="M10.6758 12.25C10.6758 12.9404 11.2354 13.5 11.9258 13.5C12.6161 13.5 13.1758 12.9404 13.1758 12.25C13.1758 11.5596 12.6161 11 11.9258 11C11.2354 11 10.6758 11.5596 10.6758 12.25Z" fill="#323232"/>
<path d="M16.6758 12.25C16.6758 12.9404 17.2354 13.5 17.9258 13.5C18.6161 13.5 19.1758 12.9404 19.1758 12.25C19.1758 11.5596 18.6161 11 17.9258 11C17.2354 11 16.6758 11.5596 16.6758 12.25Z" fill="#323232"/>
<path d="M4.67578 12.25C4.67578 12.9404 5.23543 13.5 5.92578 13.5C6.61614 13.5 7.17578 12.9404 7.17578 12.25C7.17578 11.5596 6.61614 11 5.92578 11C5.23543 11 4.67578 11.5596 4.67578 12.25Z" fill="#323232"/>
</svg>
