<svg width="122" height="18" viewBox="0 0 122 18" fill="none" xmlns="http://www.w3.org/2000/svg">
<path d="M16.0396 13.3467C16.0396 14.0958 15.8743 14.709 15.5438 15.1864C15.2133 15.6637 14.7764 16.0346 14.2329 16.299C13.6968 16.5634 13.1129 16.747 12.4813 16.8498C11.8497 16.9526 11.2292 17.004 10.6196 17.004H1.98291C1.58633 17.004 1.26686 16.9086 1.0245 16.7176C0.789493 16.5267 0.671987 16.2219 0.671987 15.8033C0.671987 15.4361 0.745428 15.1607 0.892311 14.9771C1.04654 14.7861 1.2228 14.6319 1.42109 14.5144C1.61938 14.3969 1.79197 14.261 1.93885 14.1068C2.09307 13.9452 2.17019 13.7102 2.17019 13.4017V5.35992C2.17019 5.03678 2.09307 4.7981 1.93885 4.64387C1.79197 4.48964 1.61938 4.35745 1.42109 4.24729C1.2228 4.12978 1.04654 3.97923 0.892311 3.79563C0.745428 3.61202 0.671987 3.33295 0.671987 2.9584C0.671987 2.53978 0.789493 2.235 1.0245 2.04405C1.26686 1.85311 1.58633 1.75763 1.98291 1.75763H8.7138C9.43352 1.75763 10.1716 1.83474 10.9281 1.98897C11.6918 2.1432 12.3969 2.39657 13.0432 2.74909C13.6894 3.10161 14.2109 3.57163 14.6075 4.15916C15.0114 4.74669 15.2133 5.47376 15.2133 6.34036C15.2133 7.28776 14.9233 8.03318 14.3431 8.57665C13.7702 9.11277 13.0872 9.49834 12.2941 9.73335C12.933 9.87289 13.5352 10.0932 14.1007 10.3943C14.6736 10.6881 15.1399 11.0773 15.4998 11.562C15.8596 12.0467 16.0396 12.6416 16.0396 13.3467ZM7.65625 3.97188H7.59015V9.2266H7.98673C8.81662 9.2266 9.38579 8.98792 9.69424 8.51055C10.01 8.03318 10.1679 7.41628 10.1679 6.65983C10.1679 5.83729 9.9623 5.18366 9.55103 4.69895C9.13976 4.21424 8.50817 3.97188 7.65625 3.97188ZM10.7298 13.1153C10.7298 12.5278 10.5572 12.0431 10.212 11.6612C9.87417 11.2719 9.40048 11.0773 8.79091 11.0773H7.59015V12.9611C7.59015 13.5192 7.72602 13.9672 7.99775 14.3051C8.26948 14.6355 8.69544 14.8008 9.27563 14.8008C9.81175 14.8008 10.1863 14.6429 10.3993 14.3271C10.6196 14.0113 10.7298 13.6074 10.7298 13.1153Z" fill="#EA7120"/>
<path d="M23.0899 5.37094C24.3017 5.37094 25.3629 5.62064 26.2736 6.12004C27.1916 6.61944 27.9077 7.3208 28.4218 8.22413C28.9358 9.12746 29.1929 10.1887 29.1929 11.4078C29.1929 12.6049 28.9101 13.6478 28.3446 14.5364C27.7791 15.4177 27.019 16.1044 26.0643 16.5964C25.1169 17.0811 24.063 17.3235 22.9026 17.3235C21.6835 17.3235 20.6149 17.0738 19.6969 16.5744C18.7789 16.0677 18.0629 15.3589 17.5488 14.4483C17.042 13.5303 16.7887 12.4617 16.7887 11.2426C16.7887 10.0528 17.0751 9.0173 17.6479 8.136C18.2208 7.25471 18.9846 6.57538 19.9393 6.09801C20.894 5.6133 21.9442 5.37094 23.0899 5.37094ZM23.7178 14.8889C23.9014 14.8889 24.03 14.7934 24.1034 14.6025C24.1842 14.4116 24.2356 14.2022 24.2576 13.9746C24.2797 13.7396 24.2907 13.5596 24.2907 13.4348C24.2907 13.0162 24.2576 12.6012 24.1915 12.19C24.1254 11.7713 24.041 11.3601 23.9382 10.9561C23.9014 10.7946 23.8317 10.5449 23.7289 10.207C23.626 9.86187 23.5012 9.50201 23.3543 9.12746C23.2074 8.75291 23.0459 8.43344 22.8696 8.16905C22.6933 7.90466 22.5061 7.77247 22.3078 7.77247C22.1389 7.77247 22.014 7.86794 21.9332 8.05889C21.8598 8.24984 21.812 8.46281 21.79 8.69783C21.768 8.92549 21.757 9.09808 21.757 9.21559C21.757 9.41388 21.7863 9.73335 21.8451 10.174C21.9038 10.6073 21.9883 11.092 22.0985 11.6281C22.216 12.1643 22.3555 12.682 22.5171 13.1814C22.6786 13.6735 22.8586 14.0811 23.0569 14.4042C23.2625 14.7274 23.4828 14.8889 23.7178 14.8889ZM36.6839 5.37094C37.8957 5.37094 38.9569 5.62064 39.8676 6.12004C40.7856 6.61944 41.5016 7.3208 42.0157 8.22413C42.5298 9.12746 42.7869 10.1887 42.7869 11.4078C42.7869 12.6049 42.5041 13.6478 41.9386 14.5364C41.3731 15.4177 40.613 16.1044 39.6583 16.5964C38.7109 17.0811 37.657 17.3235 36.4966 17.3235C35.2775 17.3235 34.2089 17.0738 33.2909 16.5744C32.3729 16.0677 31.6568 15.3589 31.1427 14.4483C30.636 13.5303 30.3826 12.4617 30.3826 11.2426C30.3826 10.0528 30.6691 9.0173 31.2419 8.136C31.8147 7.25471 32.5785 6.57538 33.5333 6.09801C34.488 5.6133 35.5382 5.37094 36.6839 5.37094ZM37.3118 14.8889C37.4954 14.8889 37.6239 14.7934 37.6974 14.6025C37.7782 14.4116 37.8296 14.2022 37.8516 13.9746C37.8736 13.7396 37.8847 13.5596 37.8847 13.4348C37.8847 13.0162 37.8516 12.6012 37.7855 12.19C37.7194 11.7713 37.635 11.3601 37.5321 10.9561C37.4954 10.7946 37.4256 10.5449 37.3228 10.207C37.22 9.86187 37.0952 9.50201 36.9483 9.12746C36.8014 8.75291 36.6398 8.43344 36.4636 8.16905C36.2873 7.90466 36.1 7.77247 35.9017 7.77247C35.7328 7.77247 35.608 7.86794 35.5272 8.05889C35.4537 8.24984 35.406 8.46281 35.384 8.69783C35.3619 8.92549 35.3509 9.09808 35.3509 9.21559C35.3509 9.41388 35.3803 9.73335 35.4391 10.174C35.4978 10.6073 35.5823 11.092 35.6924 11.6281C35.8099 12.1643 35.9495 12.682 36.111 13.1814C36.2726 13.6735 36.4525 14.0811 36.6508 14.4042C36.8565 14.7274 37.0768 14.8889 37.3118 14.8889ZM50.4651 17.004H45.2545C44.9387 17.004 44.6706 16.9232 44.4503 16.7617C44.2373 16.5928 44.1308 16.3394 44.1308 16.0016C44.1308 15.7519 44.1859 15.5536 44.2961 15.4067C44.4136 15.2525 44.5678 15.1092 44.7588 14.9771C44.9644 14.8302 45.1113 14.7163 45.1994 14.6355C45.2875 14.5474 45.3426 14.4409 45.3646 14.3161C45.3867 14.1912 45.3977 14.004 45.3977 13.7543V4.89724C45.3977 4.62551 45.3757 4.43089 45.3316 4.31339C45.2949 4.19588 45.2178 4.10775 45.1003 4.049C44.9901 3.9829 44.8212 3.89477 44.5935 3.78461C44.4099 3.69648 44.2594 3.57897 44.1418 3.43209C44.0243 3.28521 43.9656 3.10895 43.9656 2.90331C43.9656 2.60955 44.0647 2.38188 44.263 2.22031C44.4613 2.0514 44.6816 1.92287 44.924 1.83474L47.5128 0.876337C47.8139 0.766175 48.1187 0.66703 48.4271 0.5789C48.7356 0.483426 49.0477 0.43569 49.3635 0.43569C49.672 0.43569 49.9143 0.534835 50.0906 0.733127C50.2668 0.931418 50.355 1.18112 50.355 1.48223V10.4384L52.8446 8.45547C52.9034 8.41141 52.9658 8.36 53.0319 8.30124C53.1053 8.24249 53.1421 8.17639 53.1421 8.10295C53.1421 7.97076 53.0539 7.8606 52.8777 7.77247C52.7014 7.68434 52.5252 7.56683 52.3489 7.41995C52.1726 7.26572 52.0845 7.03071 52.0845 6.71491C52.0845 6.36974 52.191 6.12004 52.404 5.96581C52.6243 5.80424 52.8924 5.72346 53.2082 5.72346H57.7578C58.0736 5.72346 58.338 5.80424 58.551 5.96581C58.7713 6.12004 58.8815 6.36974 58.8815 6.71491C58.8815 7.13353 58.7456 7.42362 58.4739 7.58519C58.2095 7.73942 57.9047 7.8606 57.5596 7.94873C57.1483 8.05154 56.7774 8.16538 56.4469 8.29023C56.1164 8.41508 55.7823 8.61704 55.4444 8.89612L54.8055 9.41388L58.4409 14.0407C58.6024 14.239 58.8154 14.4409 59.0798 14.6466C59.3515 14.8449 59.5975 15.0578 59.8179 15.2855C60.0382 15.5132 60.1484 15.7702 60.1484 16.0566C60.1484 16.3871 60.0382 16.6295 59.8179 16.7837C59.5975 16.9306 59.3368 17.004 59.0357 17.004H53.759C53.4579 17.004 53.2155 16.9122 53.0319 16.7286C52.8483 16.545 52.7565 16.3027 52.7565 16.0016C52.7565 15.7151 52.8373 15.5022 52.9989 15.3626C53.1678 15.2231 53.333 15.1092 53.4946 15.0211C53.6562 14.9256 53.7369 14.8118 53.7369 14.6796C53.7369 14.5548 53.6965 14.4446 53.6158 14.3491C53.5423 14.2537 53.4689 14.1655 53.3954 14.0847L51.6328 11.9806L50.355 13.0162V13.6882C50.355 13.9232 50.366 14.1545 50.388 14.3822C50.4101 14.6098 50.5239 14.8081 50.7295 14.9771C50.9425 15.1386 51.1188 15.2708 51.2583 15.3736C51.3978 15.4765 51.4676 15.6858 51.4676 16.0016C51.4676 16.6699 51.1334 17.004 50.4651 17.004ZM60.8644 15.8033C60.8644 15.4214 60.9415 15.1386 61.0957 14.955C61.25 14.7714 61.4299 14.6209 61.6355 14.5034C61.8412 14.3858 62.0211 14.2537 62.1753 14.1068C62.3296 13.9525 62.4067 13.7175 62.4067 13.4017V5.35992C62.4067 5.03678 62.3296 4.7981 62.1753 4.64387C62.0211 4.48964 61.8412 4.35745 61.6355 4.24729C61.4299 4.12978 61.25 3.97923 61.0957 3.79563C60.9415 3.61202 60.8644 3.33295 60.8644 2.9584C60.8644 2.54712 60.9856 2.24602 61.2279 2.05507C61.4776 1.85678 61.7971 1.75763 62.1864 1.75763H68.752C70.3971 1.75763 71.8732 2.09179 73.1805 2.7601C74.4878 3.42108 75.5196 4.36479 76.276 5.59126C77.0398 6.81773 77.4217 8.27921 77.4217 9.9757C77.4217 11.4372 77.0802 12.693 76.3972 13.7432C75.7142 14.7934 74.7962 15.6013 73.6432 16.1668C72.4902 16.725 71.2123 17.004 69.8095 17.004H62.1864C61.7898 17.004 61.4703 16.9086 61.2279 16.7176C60.9856 16.5267 60.8644 16.2219 60.8644 15.8033ZM69.2918 14.5474C69.8353 14.5474 70.2759 14.3822 70.6137 14.0517C70.9516 13.7212 71.2086 13.3063 71.3849 12.8069C71.5685 12.3075 71.6933 11.7897 71.7594 11.2536C71.8255 10.7175 71.8586 10.2474 71.8586 9.84351C71.8586 9.27801 71.8072 8.67212 71.7043 8.02584C71.6015 7.37221 71.4179 6.75898 71.1535 6.18614C70.8965 5.60595 70.5366 5.13226 70.0739 4.76505C69.6186 4.39784 69.0311 4.21424 68.3113 4.21424H67.8266V12.8289C67.8266 13.3283 67.9295 13.7396 68.1351 14.0627C68.3481 14.3858 68.7336 14.5474 69.2918 14.5474ZM82.6324 17.3235C81.9347 17.3235 81.3508 17.1472 80.8808 16.7947C80.4181 16.4349 80.073 15.9685 79.8453 15.3957C79.6176 14.8228 79.5038 14.2206 79.5038 13.589V9.84351C79.5038 9.57178 79.4818 9.38083 79.4377 9.27067C79.3936 9.15316 79.2688 9.00261 79.0631 8.819C78.9016 8.67212 78.7473 8.53626 78.6005 8.41141C78.4609 8.27921 78.3912 8.08826 78.3912 7.83856C78.3912 7.55214 78.483 7.32815 78.6666 7.16658C78.8575 6.99766 79.0742 6.86547 79.3165 6.76999L81.7401 5.81159C82.0265 5.69408 82.3129 5.59126 82.5993 5.50313C82.8931 5.415 83.1979 5.37094 83.5137 5.37094C83.8148 5.37094 84.0461 5.47743 84.2077 5.69041C84.3693 5.89604 84.4501 6.1384 84.4501 6.41748V12.3993C84.4501 12.6049 84.4721 12.8252 84.5162 13.0602C84.5676 13.2952 84.663 13.4972 84.8026 13.6661C84.9421 13.8277 85.1441 13.9085 85.4085 13.9085C85.6802 13.9085 85.9189 13.8497 86.1245 13.7322C86.3302 13.6074 86.5174 13.4568 86.6863 13.2806V9.84351C86.6863 9.56443 86.6606 9.36247 86.6092 9.23762C86.5652 9.10543 86.4293 8.9512 86.2016 8.77494C86.0327 8.64275 85.8858 8.51422 85.761 8.38937C85.6361 8.26452 85.5737 8.08092 85.5737 7.83856C85.5737 7.55214 85.6655 7.32815 85.8491 7.16658C86.0401 6.99766 86.2567 6.86547 86.4991 6.76999L88.9226 5.81159C89.209 5.69408 89.4955 5.59126 89.7819 5.50313C90.0757 5.415 90.3804 5.37094 90.6962 5.37094C90.9973 5.37094 91.2287 5.47376 91.3902 5.67939C91.5592 5.88503 91.6436 6.13106 91.6436 6.41748V13.6882C91.6436 13.8938 91.651 14.0994 91.6657 14.3051C91.6877 14.5034 91.7721 14.687 91.919 14.8559C92.1026 15.0542 92.2642 15.2194 92.4037 15.3516C92.5433 15.4838 92.613 15.7004 92.613 16.0016C92.613 16.332 92.5139 16.5817 92.3156 16.7507C92.1173 16.9196 91.8566 17.004 91.5335 17.004H89.0218C88.4636 17.004 87.9716 16.7947 87.5456 16.3761C87.127 15.9575 86.9177 15.4728 86.9177 14.922C86.5138 15.3112 86.0731 15.6894 85.5957 16.0566C85.1184 16.4238 84.6263 16.7286 84.1196 16.971C83.6202 17.206 83.1244 17.3235 82.6324 17.3235ZM104.665 8.98425C104.665 9.67459 104.415 10.1997 103.916 10.5596C103.416 10.9194 102.851 11.0994 102.219 11.0994C101.573 11.0994 101.055 10.9231 100.666 10.5706C100.277 10.2181 100.082 9.71132 100.082 9.05034C100.082 8.74924 100.042 8.44445 99.9608 8.136C99.8874 7.82755 99.6487 7.67332 99.2448 7.67332C98.9363 7.67332 98.7013 7.82388 98.5397 8.12499C98.3782 8.42609 98.268 8.76392 98.2093 9.13847C98.1579 9.51302 98.1322 9.81413 98.1322 10.0418C98.1322 10.6734 98.235 11.2756 98.4406 11.8485C98.6462 12.4213 98.9731 12.8876 99.421 13.2475C99.869 13.6 100.449 13.7763 101.162 13.7763C101.58 13.7763 101.995 13.6771 102.406 13.4788C102.818 13.2732 103.181 13.0713 103.497 12.873C103.813 12.6747 104.033 12.5755 104.158 12.5755C104.386 12.5755 104.536 12.6673 104.61 12.8509C104.683 13.0272 104.72 13.2034 104.72 13.3797C104.72 14.0407 104.562 14.6172 104.246 15.1092C103.938 15.6013 103.526 16.0126 103.012 16.3431C102.506 16.6662 101.951 16.9086 101.349 17.0701C100.754 17.239 100.17 17.3235 99.5973 17.3235C98.4957 17.3235 97.5042 17.0885 96.6229 16.6185C95.749 16.1411 95.055 15.4765 94.5409 14.6245C94.0341 13.7726 93.7808 12.7885 93.7808 11.6722C93.7808 10.4604 94.0268 9.38083 94.5188 8.43344C95.0109 7.48605 95.7086 6.74062 96.6119 6.19715C97.5226 5.64634 98.5948 5.37094 99.8286 5.37094C100.379 5.37094 100.938 5.44071 101.503 5.58025C102.069 5.71244 102.59 5.92542 103.067 6.21919C103.545 6.50561 103.93 6.88016 104.224 7.34284C104.518 7.79817 104.665 8.34531 104.665 8.98425ZM112.156 17.004H106.945C106.629 17.004 106.361 16.9232 106.141 16.7617C105.928 16.5928 105.821 16.3394 105.821 16.0016C105.821 15.7519 105.877 15.5536 105.987 15.4067C106.104 15.2525 106.258 15.1092 106.449 14.9771C106.655 14.8302 106.802 14.7163 106.89 14.6355C106.978 14.5474 107.033 14.4409 107.055 14.3161C107.077 14.1912 107.088 14.004 107.088 13.7543V4.89724C107.088 4.62551 107.066 4.43089 107.022 4.31339C106.985 4.19588 106.908 4.10775 106.791 4.049C106.681 3.9829 106.512 3.89477 106.284 3.78461C106.101 3.69648 105.95 3.57897 105.832 3.43209C105.715 3.28521 105.656 3.10895 105.656 2.90331C105.656 2.60955 105.755 2.38188 105.954 2.22031C106.152 2.0514 106.372 1.92287 106.615 1.83474L109.203 0.876337C109.505 0.766175 109.809 0.66703 110.118 0.5789C110.426 0.483426 110.738 0.43569 111.054 0.43569C111.363 0.43569 111.605 0.534835 111.781 0.733127C111.957 0.931418 112.046 1.18112 112.046 1.48223V10.4384L114.535 8.45547C114.594 8.41141 114.656 8.36 114.723 8.30124C114.796 8.24249 114.833 8.17639 114.833 8.10295C114.833 7.97076 114.745 7.8606 114.568 7.77247C114.392 7.68434 114.216 7.56683 114.04 7.41995C113.863 7.26572 113.775 7.03071 113.775 6.71491C113.775 6.36974 113.882 6.12004 114.095 5.96581C114.315 5.80424 114.583 5.72346 114.899 5.72346H119.448C119.764 5.72346 120.029 5.80424 120.242 5.96581C120.462 6.12004 120.572 6.36974 120.572 6.71491C120.572 7.13353 120.436 7.42362 120.165 7.58519C119.9 7.73942 119.595 7.8606 119.25 7.94873C118.839 8.05154 118.468 8.16538 118.138 8.29023C117.807 8.41508 117.473 8.61704 117.135 8.89612L116.496 9.41388L120.131 14.0407C120.293 14.239 120.506 14.4409 120.77 14.6466C121.042 14.8449 121.288 15.0578 121.508 15.2855C121.729 15.5132 121.839 15.7702 121.839 16.0566C121.839 16.3871 121.729 16.6295 121.508 16.7837C121.288 16.9306 121.027 17.004 120.726 17.004H115.45C115.148 17.004 114.906 16.9122 114.723 16.7286C114.539 16.545 114.447 16.3027 114.447 16.0016C114.447 15.7151 114.528 15.5022 114.689 15.3626C114.858 15.2231 115.024 15.1092 115.185 15.0211C115.347 14.9256 115.428 14.8118 115.428 14.6796C115.428 14.5548 115.387 14.4446 115.306 14.3491C115.233 14.2537 115.16 14.1655 115.086 14.0847L113.323 11.9806L112.046 13.0162V13.6882C112.046 13.9232 112.057 14.1545 112.079 14.3822C112.101 14.6098 112.215 14.8081 112.42 14.9771C112.633 15.1386 112.809 15.2708 112.949 15.3736C113.088 15.4765 113.158 15.6858 113.158 16.0016C113.158 16.6699 112.824 17.004 112.156 17.004Z" fill="#FF9F1C"/>
</svg>
