<svg width="119" height="17" viewBox="0 0 119 17" fill="none" xmlns="http://www.w3.org/2000/svg">
<path d="M15.6406 12.9336C15.6406 13.6641 15.4795 14.262 15.1572 14.7275C14.835 15.193 14.4089 15.5547 13.8789 15.8125C13.3561 16.0703 12.7868 16.2493 12.1709 16.3496C11.555 16.4499 10.9499 16.5 10.3555 16.5H1.93359C1.54688 16.5 1.23535 16.4069 0.999023 16.2207C0.769857 16.0345 0.655273 15.7373 0.655273 15.3291C0.655273 14.971 0.726888 14.7025 0.870117 14.5234C1.02051 14.3372 1.19238 14.1868 1.38574 14.0723C1.5791 13.9577 1.7474 13.8252 1.89062 13.6748C2.04102 13.5173 2.11621 13.2881 2.11621 12.9873V5.14551C2.11621 4.8304 2.04102 4.59766 1.89062 4.44727C1.7474 4.29688 1.5791 4.16797 1.38574 4.06055C1.19238 3.94596 1.02051 3.79915 0.870117 3.62012C0.726888 3.44108 0.655273 3.16895 0.655273 2.80371C0.655273 2.39551 0.769857 2.09831 0.999023 1.91211C1.23535 1.72591 1.54688 1.63281 1.93359 1.63281H8.49707C9.19889 1.63281 9.91862 1.70801 10.6562 1.8584C11.401 2.00879 12.0885 2.25586 12.7188 2.59961C13.349 2.94336 13.8574 3.40169 14.2441 3.97461C14.638 4.54753 14.835 5.25651 14.835 6.10156C14.835 7.02539 14.5521 7.75228 13.9863 8.28223C13.4277 8.80501 12.7617 9.18099 11.9883 9.41016C12.6113 9.54622 13.1986 9.76107 13.75 10.0547C14.3086 10.3411 14.7633 10.7207 15.1143 11.1934C15.4652 11.666 15.6406 12.2461 15.6406 12.9336ZM7.46582 3.79199H7.40137V8.91602H7.78809C8.59733 8.91602 9.15234 8.68327 9.45312 8.21777C9.76107 7.75228 9.91504 7.15072 9.91504 6.41309C9.91504 5.611 9.71452 4.97363 9.31348 4.50098C8.91243 4.02832 8.29655 3.79199 7.46582 3.79199ZM10.4629 12.708C10.4629 12.1351 10.2946 11.6624 9.95801 11.29C9.62858 10.9105 9.16667 10.7207 8.57227 10.7207H7.40137V12.5576C7.40137 13.1019 7.53385 13.5387 7.79883 13.8682C8.0638 14.1904 8.47917 14.3516 9.04492 14.3516C9.56771 14.3516 9.93294 14.1976 10.1406 13.8896C10.3555 13.5817 10.4629 13.1878 10.4629 12.708ZM22.5156 5.15625C23.6973 5.15625 24.7321 5.39974 25.6201 5.88672C26.5153 6.3737 27.2135 7.05762 27.7148 7.93848C28.2161 8.81934 28.4668 9.85417 28.4668 11.043C28.4668 12.2103 28.1911 13.2272 27.6396 14.0938C27.0882 14.9531 26.347 15.6227 25.416 16.1025C24.4922 16.5752 23.4645 16.8115 22.333 16.8115C21.1442 16.8115 20.1022 16.568 19.207 16.0811C18.3118 15.5869 17.6136 14.8958 17.1123 14.0078C16.6182 13.1126 16.3711 12.0706 16.3711 10.8818C16.3711 9.72168 16.6504 8.71191 17.209 7.85254C17.7676 6.99316 18.5124 6.33073 19.4434 5.86523C20.3743 5.39258 21.3984 5.15625 22.5156 5.15625ZM23.1279 14.4375C23.307 14.4375 23.4323 14.3444 23.5039 14.1582C23.5827 13.972 23.6328 13.7679 23.6543 13.5459C23.6758 13.3167 23.6865 13.1413 23.6865 13.0195C23.6865 12.6113 23.6543 12.2067 23.5898 11.8057C23.5254 11.3975 23.443 10.9964 23.3428 10.6025C23.307 10.445 23.2389 10.2015 23.1387 9.87207C23.0384 9.53548 22.9167 9.18457 22.7734 8.81934C22.6302 8.4541 22.4727 8.14258 22.3008 7.88477C22.1289 7.62695 21.9463 7.49805 21.7529 7.49805C21.5882 7.49805 21.4665 7.59115 21.3877 7.77734C21.3161 7.96354 21.2695 8.17122 21.248 8.40039C21.2266 8.6224 21.2158 8.79069 21.2158 8.90527C21.2158 9.09863 21.2445 9.41016 21.3018 9.83984C21.359 10.2624 21.4414 10.735 21.5488 11.2578C21.6634 11.7806 21.7995 12.2855 21.957 12.7725C22.1146 13.2523 22.29 13.6497 22.4834 13.9648C22.6839 14.2799 22.8988 14.4375 23.1279 14.4375ZM35.7715 5.15625C36.9531 5.15625 37.988 5.39974 38.876 5.88672C39.7712 6.3737 40.4694 7.05762 40.9707 7.93848C41.472 8.81934 41.7227 9.85417 41.7227 11.043C41.7227 12.2103 41.4469 13.2272 40.8955 14.0938C40.3441 14.9531 39.6029 15.6227 38.6719 16.1025C37.748 16.5752 36.7204 16.8115 35.5889 16.8115C34.4001 16.8115 33.3581 16.568 32.4629 16.0811C31.5677 15.5869 30.8695 14.8958 30.3682 14.0078C29.874 13.1126 29.627 12.0706 29.627 10.8818C29.627 9.72168 29.9062 8.71191 30.4648 7.85254C31.0234 6.99316 31.7682 6.33073 32.6992 5.86523C33.6302 5.39258 34.6543 5.15625 35.7715 5.15625ZM36.3838 14.4375C36.5628 14.4375 36.6882 14.3444 36.7598 14.1582C36.8385 13.972 36.8887 13.7679 36.9102 13.5459C36.9316 13.3167 36.9424 13.1413 36.9424 13.0195C36.9424 12.6113 36.9102 12.2067 36.8457 11.8057C36.7812 11.3975 36.6989 10.9964 36.5986 10.6025C36.5628 10.445 36.4948 10.2015 36.3945 9.87207C36.2943 9.53548 36.1725 9.18457 36.0293 8.81934C35.8861 8.4541 35.7285 8.14258 35.5566 7.88477C35.3848 7.62695 35.2021 7.49805 35.0088 7.49805C34.8441 7.49805 34.7223 7.59115 34.6436 7.77734C34.5719 7.96354 34.5254 8.17122 34.5039 8.40039C34.4824 8.6224 34.4717 8.79069 34.4717 8.90527C34.4717 9.09863 34.5003 9.41016 34.5576 9.83984C34.6149 10.2624 34.6973 10.735 34.8047 11.2578C34.9193 11.7806 35.0553 12.2855 35.2129 12.7725C35.3704 13.2523 35.5459 13.6497 35.7393 13.9648C35.9398 14.2799 36.1546 14.4375 36.3838 14.4375ZM49.21 16.5H44.1289C43.821 16.5 43.5596 16.4212 43.3447 16.2637C43.137 16.099 43.0332 15.8519 43.0332 15.5225C43.0332 15.279 43.0869 15.0856 43.1943 14.9424C43.3089 14.792 43.4593 14.6523 43.6455 14.5234C43.846 14.3802 43.9893 14.2692 44.0752 14.1904C44.1611 14.1045 44.2148 14.0007 44.2363 13.8789C44.2578 13.7572 44.2686 13.5745 44.2686 13.3311V4.69434C44.2686 4.42936 44.2471 4.23958 44.2041 4.125C44.1683 4.01042 44.0931 3.92448 43.9785 3.86719C43.8711 3.80273 43.7064 3.7168 43.4844 3.60938C43.3053 3.52344 43.1585 3.40885 43.0439 3.26562C42.9294 3.1224 42.8721 2.95052 42.8721 2.75C42.8721 2.46354 42.9688 2.24154 43.1621 2.08398C43.3555 1.91927 43.5703 1.79395 43.8066 1.70801L46.3311 0.773438C46.6247 0.666016 46.9219 0.569336 47.2227 0.483398C47.5234 0.390299 47.8278 0.34375 48.1357 0.34375C48.4365 0.34375 48.6729 0.44043 48.8447 0.633789C49.0166 0.827148 49.1025 1.07064 49.1025 1.36426V10.0977L51.5303 8.16406C51.5876 8.12109 51.6484 8.07096 51.7129 8.01367C51.7845 7.95638 51.8203 7.89193 51.8203 7.82031C51.8203 7.69141 51.7344 7.58398 51.5625 7.49805C51.3906 7.41211 51.2188 7.29753 51.0469 7.1543C50.875 7.00391 50.7891 6.77474 50.7891 6.4668C50.7891 6.13021 50.8929 5.88672 51.1006 5.73633C51.3154 5.57878 51.5768 5.5 51.8848 5.5H56.3213C56.6292 5.5 56.887 5.57878 57.0947 5.73633C57.3096 5.88672 57.417 6.13021 57.417 6.4668C57.417 6.875 57.2845 7.15788 57.0195 7.31543C56.7617 7.46582 56.4645 7.58398 56.1279 7.66992C55.7269 7.77018 55.3652 7.88118 55.043 8.00293C54.7207 8.12467 54.3949 8.32161 54.0654 8.59375L53.4424 9.09863L56.9873 13.6104C57.1449 13.8037 57.3525 14.0007 57.6104 14.2012C57.8753 14.3945 58.1152 14.6022 58.3301 14.8242C58.5449 15.0462 58.6523 15.2969 58.6523 15.5762C58.6523 15.8984 58.5449 16.1348 58.3301 16.2852C58.1152 16.4284 57.861 16.5 57.5674 16.5H52.4219C52.1283 16.5 51.8919 16.4105 51.7129 16.2314C51.5339 16.0524 51.4443 15.8161 51.4443 15.5225C51.4443 15.2432 51.5231 15.0355 51.6807 14.8994C51.8454 14.7633 52.0065 14.6523 52.1641 14.5664C52.3216 14.4733 52.4004 14.3623 52.4004 14.2334C52.4004 14.1117 52.361 14.0042 52.2822 13.9111C52.2106 13.818 52.139 13.7321 52.0674 13.6533L50.3486 11.6016L49.1025 12.6113V13.2666C49.1025 13.4958 49.1133 13.7214 49.1348 13.9434C49.1562 14.1654 49.2673 14.3587 49.4678 14.5234C49.6755 14.681 49.8473 14.8099 49.9834 14.9102C50.1195 15.0104 50.1875 15.2145 50.1875 15.5225C50.1875 16.1742 49.8617 16.5 49.21 16.5ZM59.3506 15.3291C59.3506 14.9567 59.4258 14.681 59.5762 14.502C59.7266 14.3229 59.902 14.1761 60.1025 14.0615C60.3031 13.9469 60.4785 13.818 60.6289 13.6748C60.7793 13.5244 60.8545 13.2952 60.8545 12.9873V5.14551C60.8545 4.8304 60.7793 4.59766 60.6289 4.44727C60.4785 4.29688 60.3031 4.16797 60.1025 4.06055C59.902 3.94596 59.7266 3.79915 59.5762 3.62012C59.4258 3.44108 59.3506 3.16895 59.3506 2.80371C59.3506 2.40267 59.4688 2.10905 59.7051 1.92285C59.9486 1.72949 60.2601 1.63281 60.6396 1.63281H67.042C68.6462 1.63281 70.0856 1.95866 71.3604 2.61035C72.6351 3.25488 73.6413 4.17513 74.3789 5.37109C75.1237 6.56706 75.4961 7.99219 75.4961 9.64648C75.4961 11.0716 75.1631 12.2962 74.4971 13.3203C73.8311 14.3444 72.9359 15.1322 71.8115 15.6836C70.6872 16.2279 69.4411 16.5 68.0732 16.5H60.6396C60.2529 16.5 59.9414 16.4069 59.7051 16.2207C59.4688 16.0345 59.3506 15.7373 59.3506 15.3291ZM67.5684 14.1045C68.0983 14.1045 68.528 13.9434 68.8574 13.6211C69.1868 13.2988 69.4375 12.8942 69.6094 12.4072C69.7884 11.9202 69.9102 11.4154 69.9746 10.8926C70.0391 10.3698 70.0713 9.91146 70.0713 9.51758C70.0713 8.96615 70.0212 8.37533 69.9209 7.74512C69.8206 7.10775 69.6416 6.50977 69.3838 5.95117C69.1331 5.38542 68.7822 4.9235 68.3311 4.56543C67.887 4.20736 67.3141 4.02832 66.6123 4.02832H66.1396V12.4287C66.1396 12.9157 66.2399 13.3167 66.4404 13.6318C66.6481 13.9469 67.0241 14.1045 67.5684 14.1045ZM80.5771 16.8115C79.8968 16.8115 79.3275 16.6396 78.8691 16.2959C78.418 15.945 78.0814 15.4902 77.8594 14.9316C77.6374 14.373 77.5264 13.7858 77.5264 13.1699V9.51758C77.5264 9.2526 77.5049 9.06641 77.4619 8.95898C77.4189 8.8444 77.2972 8.69759 77.0967 8.51855C76.9391 8.37533 76.7887 8.24284 76.6455 8.12109C76.5094 7.99219 76.4414 7.80599 76.4414 7.5625C76.4414 7.2832 76.5309 7.06478 76.71 6.90723C76.8962 6.74251 77.1074 6.61361 77.3438 6.52051L79.707 5.58594C79.9863 5.47135 80.2656 5.37109 80.5449 5.28516C80.8314 5.19922 81.1286 5.15625 81.4365 5.15625C81.7301 5.15625 81.9557 5.26009 82.1133 5.46777C82.2708 5.66829 82.3496 5.90462 82.3496 6.17676V12.0098C82.3496 12.2103 82.3711 12.4251 82.4141 12.6543C82.4642 12.8835 82.5573 13.0804 82.6934 13.2451C82.8294 13.4027 83.0264 13.4814 83.2842 13.4814C83.5492 13.4814 83.7819 13.4242 83.9824 13.3096C84.1829 13.1878 84.3656 13.041 84.5303 12.8691V9.51758C84.5303 9.24544 84.5052 9.0485 84.4551 8.92676C84.4121 8.79785 84.2796 8.64746 84.0576 8.47559C83.8929 8.34668 83.7497 8.22135 83.6279 8.09961C83.5062 7.97786 83.4453 7.79883 83.4453 7.5625C83.4453 7.2832 83.5348 7.06478 83.7139 6.90723C83.9001 6.74251 84.1113 6.61361 84.3477 6.52051L86.7109 5.58594C86.9902 5.47135 87.2695 5.37109 87.5488 5.28516C87.8353 5.19922 88.1325 5.15625 88.4404 5.15625C88.734 5.15625 88.9596 5.25651 89.1172 5.45703C89.2819 5.65755 89.3643 5.89746 89.3643 6.17676V13.2666C89.3643 13.4671 89.3714 13.6676 89.3857 13.8682C89.4072 14.0615 89.4896 14.2406 89.6328 14.4053C89.8118 14.5986 89.9694 14.7598 90.1055 14.8887C90.2415 15.0176 90.3096 15.2288 90.3096 15.5225C90.3096 15.8447 90.2129 16.0882 90.0195 16.2529C89.8262 16.4176 89.5719 16.5 89.2568 16.5H86.8076C86.2633 16.5 85.7835 16.2959 85.3682 15.8877C84.96 15.4795 84.7559 15.0068 84.7559 14.4697C84.362 14.8493 83.9323 15.2181 83.4668 15.5762C83.0013 15.9342 82.5215 16.2314 82.0273 16.4678C81.5404 16.6969 81.057 16.8115 80.5771 16.8115ZM102.062 8.67969C102.062 9.35286 101.818 9.86491 101.331 10.2158C100.844 10.5667 100.293 10.7422 99.6768 10.7422C99.0465 10.7422 98.5417 10.5703 98.1621 10.2266C97.7826 9.88281 97.5928 9.38867 97.5928 8.74414C97.5928 8.45052 97.5534 8.15332 97.4746 7.85254C97.403 7.55176 97.1702 7.40137 96.7764 7.40137C96.4756 7.40137 96.2464 7.54818 96.0889 7.8418C95.9313 8.13542 95.8239 8.46484 95.7666 8.83008C95.7165 9.19531 95.6914 9.48893 95.6914 9.71094C95.6914 10.3268 95.7917 10.9141 95.9922 11.4727C96.1927 12.0312 96.5114 12.486 96.9482 12.8369C97.3851 13.1807 97.9508 13.3525 98.6455 13.3525C99.0537 13.3525 99.4583 13.2559 99.8594 13.0625C100.26 12.862 100.615 12.665 100.923 12.4717C101.231 12.2783 101.446 12.1816 101.567 12.1816C101.789 12.1816 101.936 12.2712 102.008 12.4502C102.079 12.6221 102.115 12.7939 102.115 12.9658C102.115 13.6104 101.961 14.1725 101.653 14.6523C101.353 15.1322 100.951 15.5332 100.45 15.8555C99.9561 16.1706 99.4154 16.4069 98.8281 16.5645C98.248 16.7292 97.6787 16.8115 97.1201 16.8115C96.0459 16.8115 95.0791 16.5824 94.2197 16.124C93.3675 15.6585 92.6908 15.0104 92.1895 14.1797C91.6953 13.349 91.4482 12.3893 91.4482 11.3008C91.4482 10.1191 91.6882 9.06641 92.168 8.14258C92.6478 7.21875 93.3281 6.49186 94.209 5.96191C95.097 5.4248 96.1426 5.15625 97.3457 5.15625C97.8828 5.15625 98.4271 5.22428 98.9785 5.36035C99.5299 5.48926 100.038 5.69694 100.504 5.9834C100.969 6.2627 101.345 6.62793 101.632 7.0791C101.918 7.52311 102.062 8.05664 102.062 8.67969ZM109.366 16.5H104.285C103.977 16.5 103.716 16.4212 103.501 16.2637C103.293 16.099 103.189 15.8519 103.189 15.5225C103.189 15.279 103.243 15.0856 103.351 14.9424C103.465 14.792 103.616 14.6523 103.802 14.5234C104.002 14.3802 104.146 14.2692 104.231 14.1904C104.317 14.1045 104.371 14.0007 104.393 13.8789C104.414 13.7572 104.425 13.5745 104.425 13.3311V4.69434C104.425 4.42936 104.403 4.23958 104.36 4.125C104.325 4.01042 104.249 3.92448 104.135 3.86719C104.027 3.80273 103.863 3.7168 103.641 3.60938C103.462 3.52344 103.315 3.40885 103.2 3.26562C103.086 3.1224 103.028 2.95052 103.028 2.75C103.028 2.46354 103.125 2.24154 103.318 2.08398C103.512 1.91927 103.727 1.79395 103.963 1.70801L106.487 0.773438C106.781 0.666016 107.078 0.569336 107.379 0.483398C107.68 0.390299 107.984 0.34375 108.292 0.34375C108.593 0.34375 108.829 0.44043 109.001 0.633789C109.173 0.827148 109.259 1.07064 109.259 1.36426V10.0977L111.687 8.16406C111.744 8.12109 111.805 8.07096 111.869 8.01367C111.941 7.95638 111.977 7.89193 111.977 7.82031C111.977 7.69141 111.891 7.58398 111.719 7.49805C111.547 7.41211 111.375 7.29753 111.203 7.1543C111.031 7.00391 110.945 6.77474 110.945 6.4668C110.945 6.13021 111.049 5.88672 111.257 5.73633C111.472 5.57878 111.733 5.5 112.041 5.5H116.478C116.785 5.5 117.043 5.57878 117.251 5.73633C117.466 5.88672 117.573 6.13021 117.573 6.4668C117.573 6.875 117.441 7.15788 117.176 7.31543C116.918 7.46582 116.621 7.58398 116.284 7.66992C115.883 7.77018 115.521 7.88118 115.199 8.00293C114.877 8.12467 114.551 8.32161 114.222 8.59375L113.599 9.09863L117.144 13.6104C117.301 13.8037 117.509 14.0007 117.767 14.2012C118.032 14.3945 118.271 14.6022 118.486 14.8242C118.701 15.0462 118.809 15.2969 118.809 15.5762C118.809 15.8984 118.701 16.1348 118.486 16.2852C118.271 16.4284 118.017 16.5 117.724 16.5H112.578C112.285 16.5 112.048 16.4105 111.869 16.2314C111.69 16.0524 111.601 15.8161 111.601 15.5225C111.601 15.2432 111.679 15.0355 111.837 14.8994C112.002 14.7633 112.163 14.6523 112.32 14.5664C112.478 14.4733 112.557 14.3623 112.557 14.2334C112.557 14.1117 112.517 14.0042 112.438 13.9111C112.367 13.818 112.295 13.7321 112.224 13.6533L110.505 11.6016L109.259 12.6113V13.2666C109.259 13.4958 109.27 13.7214 109.291 13.9434C109.312 14.1654 109.424 14.3587 109.624 14.5234C109.832 14.681 110.004 14.8099 110.14 14.9102C110.276 15.0104 110.344 15.2145 110.344 15.5225C110.344 16.1742 110.018 16.5 109.366 16.5Z" fill="#323232"/>
</svg>
