<svg xmlns="http://www.w3.org/2000/svg" width="2" height="14" viewBox="0 0 2 14" fill="none">
<path d="M1 7.99999C1.55228 7.99999 2 7.55228 2 6.99999C2 6.44771 1.55228 5.99999 1 5.99999C0.447715 5.99999 0 6.44771 0 6.99999C0 7.55228 0.447715 7.99999 1 7.99999Z" fill="#323232"/>
<path d="M1 1.99999C1.55228 1.99999 2 1.55228 2 0.999992C2 0.447708 1.55228 -7.62939e-06 1 -7.62939e-06C0.447715 -7.62939e-06 0 0.447708 0 0.999992C0 1.55228 0.447715 1.99999 1 1.99999Z" fill="#323232"/>
<path d="M1 14C1.55228 14 2 13.5523 2 13C2 12.4477 1.55228 12 1 12C0.447715 12 0 12.4477 0 13C0 13.5523 0.447715 14 1 14Z" fill="#323232"/>
</svg>