<svg width="22" height="22" viewBox="0 0 22 22" fill="none" xmlns="http://www.w3.org/2000/svg">
<g clip-path="url(#clip0_4001_43018)">
<path d="M14.6524 18.875V17.125C14.6524 16.1967 14.2917 15.3065 13.6496 14.6501C13.0075 13.9937 12.1366 13.625 11.2285 13.625H4.3807C3.47262 13.625 2.60174 13.9937 1.95963 14.6501C1.31752 15.3065 0.956787 16.1967 0.956787 17.125V18.875" stroke="#323232" stroke-width="1.5" stroke-linecap="round" stroke-linejoin="round"/>
<path d="M8.26106 10.125C10.2781 10.125 11.9132 8.558 11.9132 6.625C11.9132 4.692 10.2781 3.125 8.26106 3.125C6.24402 3.125 4.60889 4.692 4.60889 6.625C4.60889 8.558 6.24402 10.125 8.26106 10.125Z" stroke="#323232" stroke-width="1.5" stroke-linecap="round" stroke-linejoin="round"/>
<path d="M20.1307 18.875V17.0862C20.1301 16.2936 19.8608 15.5236 19.365 14.8971C18.8692 14.2706 18.1751 13.8232 17.3916 13.625" stroke="#323232" stroke-width="1.5" stroke-linecap="round" stroke-linejoin="round"/>
<path d="M13.7393 3.125C14.5228 3.32398 15.2173 3.77596 15.7132 4.40967C16.2092 5.04338 16.4784 5.82278 16.4784 6.625C16.4784 7.42722 16.2092 8.20662 15.7132 8.84033C15.2173 9.47404 14.5228 9.92602 13.7393 10.125" stroke="#323232" stroke-width="1.5" stroke-linecap="round" stroke-linejoin="round"/>
</g>
<defs>
<clipPath id="clip0_4001_43018">
<rect width="21" height="21" fill="white" transform="translate(0.0437012 0.5)"/>
</clipPath>
</defs>
</svg>
