<svg width="36" height="36" viewBox="0 0 36 36" fill="none" xmlns="http://www.w3.org/2000/svg">
<path d="M26.3659 18.6614C26.2027 18.4789 26.1127 18.2443 26.1127 18.0014C26.1127 17.7585 26.2027 17.5238 26.3659 17.3414L27.6688 15.9014C27.8123 15.744 27.9015 15.5461 27.9234 15.3359C27.9454 15.1257 27.899 14.914 27.7909 14.7314L25.7552 11.2714C25.6482 11.0889 25.4853 10.9442 25.2898 10.858C25.0942 10.7719 24.8759 10.7485 24.6661 10.7914L22.7525 11.1714C22.509 11.2208 22.2555 11.1809 22.0398 11.0594C21.8242 10.9378 21.6613 10.7428 21.5819 10.5114L20.961 8.68136C20.8927 8.48274 20.7626 8.31022 20.5891 8.1882C20.4156 8.06618 20.2074 8.00082 19.994 8.00136H15.9225C15.7006 7.98998 15.4809 8.05029 15.2971 8.17307C15.1133 8.29586 14.9755 8.47438 14.9047 8.68136L14.3347 10.5114C14.2553 10.7428 14.0924 10.9378 13.8767 11.0594C13.6611 11.1809 13.4076 11.2208 13.1641 11.1714L11.1996 10.7914C11.0007 10.7637 10.7979 10.7946 10.6167 10.88C10.4356 10.9654 10.2843 11.1016 10.1818 11.2714L8.14601 14.7314C8.03523 14.912 7.98542 15.1224 8.0037 15.3326C8.02198 15.5427 8.10742 15.7418 8.2478 15.9014L9.5405 17.3414C9.70368 17.5238 9.79368 17.7585 9.79368 18.0014C9.79368 18.2443 9.70368 18.4789 9.5405 18.6614L8.2478 20.1014C8.10742 20.2609 8.02198 20.46 8.0037 20.6701C7.98542 20.8803 8.03523 21.0907 8.14601 21.2714L10.1818 24.7314C10.2887 24.9138 10.4516 25.0585 10.6472 25.1447C10.8427 25.2309 11.061 25.2542 11.2709 25.2114L13.1845 24.8314C13.428 24.7819 13.6815 24.8218 13.8971 24.9434C14.1127 25.0649 14.2756 25.2599 14.355 25.4914L14.9759 27.3214C15.0467 27.5283 15.1846 27.7069 15.3684 27.8296C15.5522 27.9524 15.7718 28.0127 15.9938 28.0014H20.0653C20.2787 28.0019 20.4868 27.9365 20.6604 27.8145C20.8339 27.6925 20.964 27.52 21.0323 27.3214L21.6532 25.4914C21.7326 25.2599 21.8954 25.0649 22.1111 24.9434C22.3267 24.8218 22.5802 24.7819 22.8237 24.8314L24.7373 25.2114C24.9472 25.2542 25.1654 25.2309 25.361 25.1447C25.5566 25.0585 25.7195 24.9138 25.8264 24.7314L27.8622 21.2714C27.9702 21.0887 28.0166 20.877 27.9947 20.6669C27.9727 20.4567 27.8836 20.2587 27.74 20.1014L26.3659 18.6614ZM24.8493 20.0014L25.6636 20.9014L24.3607 23.1214L23.1596 22.8814C22.4265 22.7341 21.6639 22.8565 21.0166 23.2252C20.3692 23.5938 19.8822 24.1832 19.648 24.8814L19.2612 26.0014H16.6554L16.289 24.8614C16.0547 24.1632 15.5677 23.5738 14.9204 23.2052C14.273 22.8365 13.5104 22.7141 12.7773 22.8614L11.5762 23.1014L10.253 20.8914L11.0673 19.9914C11.568 19.4413 11.8449 18.7293 11.8449 17.9914C11.8449 17.2534 11.568 16.5414 11.0673 15.9914L10.253 15.0914L11.5559 12.8914L12.757 13.1314C13.4901 13.2786 14.2527 13.1562 14.9 12.7876C15.5473 12.4189 16.0344 11.8295 16.2686 11.1314L16.6554 10.0014H19.2612L19.648 11.1414C19.8822 11.8395 20.3692 12.4289 21.0166 12.7976C21.6639 13.1662 22.4265 13.2886 23.1596 13.1414L24.3607 12.9014L25.6636 15.1214L24.8493 16.0214C24.3541 16.5701 24.0808 17.278 24.0808 18.0114C24.0808 18.7447 24.3541 19.4526 24.8493 20.0014Z" fill="#323232"/>
<path d="M11.2709 25.2114L13.1845 24.8314M11.2709 25.2114L20.0653 28.0014H15.9938C15.7718 28.0127 15.5522 27.9524 15.3684 27.8296C15.1846 27.7069 15.0467 27.5283 14.9759 27.3214M11.2709 25.2114C11.061 25.2542 10.8427 25.2309 10.6472 25.1447C10.4516 25.0585 10.2887 24.9138 10.1818 24.7314L11.2709 25.2114ZM13.1845 24.8314C13.428 24.7819 13.6815 24.8218 13.8971 24.9434C14.1127 25.0649 14.2756 25.2599 14.355 25.4914L14.9759 27.3214M13.1845 24.8314L12.9897 23.8505L12.9882 23.8508C13.4656 23.7546 13.9631 23.8326 14.3882 24.0723C14.8146 24.3127 15.141 24.7007 15.3009 25.1669L15.302 25.1701L15.9216 26.9963M13.1845 24.8314L12.9855 23.8513L11.0761 24.2305L11.0709 24.2316C11.0635 24.2331 11.056 24.2321 11.0505 24.2296C11.0451 24.2272 11.0439 24.2248 11.0444 24.2256L11.0436 24.2243L9.0079 20.7643L9.0034 20.7566L10.2846 19.3294L10.2859 19.3279C10.6116 18.9637 10.7937 18.4923 10.7937 18.0014C10.7937 17.5104 10.6116 17.039 10.2859 16.6748L10.2846 16.6733L9.0034 15.2461L9.0079 15.2385L9.01958 15.2186L9.51148 15.7623L10.3258 16.6623L10.3278 16.6646C10.6624 17.0321 10.8449 17.5046 10.8449 17.9914C10.8449 18.4781 10.6624 18.9506 10.3278 19.3181L10.3258 19.3204L9.51148 20.2204L9.01458 20.7696L9.39504 21.4051L10.7183 23.6151L11.0806 24.2202L11.7722 24.082L12.9733 23.842L12.9742 23.8418C13.4718 23.7419 13.9886 23.8253 14.4255 24.0741C14.8602 24.3217 15.1833 24.7143 15.3391 25.1741L15.7034 26.3074L15.9258 26.9993C15.9251 26.9989 15.9245 26.9985 15.9239 26.9981C15.9227 26.9973 15.922 26.9967 15.9216 26.9963M14.9759 27.3214L15.9225 27.0002L15.9229 27.0001L15.9228 26.9998L15.9221 26.9976M14.9759 27.3214L15.9221 26.9976M15.9221 26.9976L15.9216 26.9963M15.9221 26.9976C15.9216 26.9961 15.9211 26.9957 15.9213 26.996C15.9214 26.996 15.9215 26.9962 15.9216 26.9963M25.6205 19.3279L25.6313 19.34L25.6424 19.3517L26.9965 20.7707L24.9645 24.2243L24.9638 24.2255C24.9635 24.2259 24.9618 24.2278 24.9577 24.2296C24.9521 24.2321 24.9447 24.2331 24.9373 24.2316L24.9321 24.2305L24.8758 24.2193L25.2231 23.6275L26.526 21.4075L26.8974 20.7746L26.4051 20.2304L25.5917 19.3315C25.5915 19.3312 25.5912 19.3309 25.591 19.3306C25.2607 18.9641 25.0808 18.4947 25.0808 18.0114C25.0808 17.528 25.2607 17.0586 25.591 16.6921C25.5912 16.6918 25.5915 16.6915 25.5917 16.6913L26.4051 15.7923L26.8974 15.2481L26.526 14.6152L25.2231 12.3952L24.8628 11.7813L24.1647 11.9207L22.9637 12.1607L22.9627 12.1609C22.4651 12.2609 21.9484 12.1774 21.5115 11.9286C21.075 11.68 20.7511 11.2854 20.596 10.8233L20.5949 10.8201L20.2081 9.68006L19.9779 9.00136L19.994 9.00136L19.9966 9.00136C20.0045 9.00134 20.0106 9.00387 20.0139 9.00619C20.0148 9.00687 20.0154 9.00741 20.0158 9.00776L20.6349 10.8327L20.636 10.8358C20.7959 11.302 21.1223 11.69 21.5487 11.9304C21.9739 12.1702 22.4715 12.2482 22.9489 12.1519C22.9497 12.1517 22.9506 12.1515 22.9514 12.1514L24.8608 11.7722L24.8661 11.7712C24.8735 11.7696 24.8809 11.7707 24.8865 11.7731C24.8908 11.775 24.8924 11.777 24.8926 11.7773L24.8933 11.7785L26.9255 15.2324L25.6244 16.6704L25.6244 16.6704L25.6205 16.6748C25.2948 17.039 25.1127 17.5104 25.1127 18.0014C25.1127 18.4923 25.2948 18.9637 25.6205 19.3279ZM21.5115 24.0941C21.7581 23.9536 22.0303 23.8659 22.3101 23.8341C22.0695 23.8708 21.8354 23.9508 21.6199 24.0723C21.1936 24.3127 20.8671 24.7007 20.7072 25.1669L20.7062 25.1701L20.087 26.995C20.0867 26.9953 20.0861 26.9959 20.0851 26.9965C20.0818 26.9988 20.0758 27.0014 20.0678 27.0014H20.0653H19.9738L20.2064 26.3278L20.5932 25.2078L20.5932 25.2078L20.596 25.1995C20.7511 24.7374 21.075 24.3427 21.5115 24.0941ZM15.9426 27.0027C15.9382 27.0029 15.9343 27.0023 15.931 27.0014H15.9682L15.9426 27.0027ZM10.6954 12.3818L9.6517 14.1442L11.038 11.788C11.0386 11.7874 11.0401 11.786 11.0433 11.7845C11.0454 11.7835 11.0479 11.7827 11.0506 11.7821L10.6954 12.3818ZM12.9529 12.1507L12.6862 12.0975L12.9704 12.1524C13.447 12.2479 13.9435 12.1697 14.3679 11.9304C14.7942 11.69 15.1207 11.302 15.2806 10.8358L15.2852 10.8223L15.2894 10.8087L15.851 9.00582C15.8514 9.00548 15.8519 9.00506 15.8526 9.00459C15.8564 9.00208 15.8631 8.99962 15.8713 9.00005L15.8969 9.00136H15.9225H15.9407L15.7093 9.67751L15.3225 10.8075L15.3225 10.8075L15.3206 10.8133C15.1655 11.2754 14.8416 11.67 14.4051 11.9186C13.9682 12.1674 13.4514 12.2509 12.9539 12.1509L12.9529 12.1507ZM20 18C20 19.1046 19.1046 20 18 20C16.8954 20 16 19.1046 16 18C16 16.8954 16.8954 16 18 16C19.1046 16 20 16.8954 20 18Z" stroke="#323232" stroke-width="2"/>
</svg>
