<svg width="37" height="36" viewBox="0 0 37 36" fill="none" xmlns="http://www.w3.org/2000/svg">
<path d="M15.5253 10.8567L14.5855 10.515L15.5253 10.8567L16.2005 9L20.2192 9L20.9716 10.91C21.3188 11.7914 22.2367 12.3083 23.1704 12.1482L25.1942 11.8013L27.2182 15.1794L25.8868 16.6549C25.196 17.4205 25.2005 18.5859 25.8973 19.3461L27.2172 20.7862L25.1932 24.1949L23.2065 23.8439C22.2369 23.6726 21.2869 24.2324 20.967 25.1636L20.3362 27H16.2019L15.5266 25.1316C15.1959 24.2166 14.2548 23.6723 13.2968 23.8421L11.3017 24.1955L11.4761 25.1802L11.3017 24.1955L9.24793 20.7908L10.5891 19.3649L9.86065 18.6798L10.5891 19.3649C11.3091 18.5993 11.3138 17.407 10.5997 16.6358L9.24691 15.1748L11.3009 11.8004L13.3078 12.1445C14.2611 12.3079 15.1948 11.7657 15.5253 10.8567Z" stroke="#323232" stroke-width="2"/>
<circle cx="18.3" cy="18" r="2" stroke="#323232" stroke-width="2"/>
</svg>
