<svg width="21" height="20" viewBox="0 0 21 20" fill="none" xmlns="http://www.w3.org/2000/svg">
<path d="M8.50923 0.914564C8.54515 0.815767 8.63905 0.75 8.74418 0.75H12.7629C12.8656 0.75 12.9579 0.812813 12.9955 0.908369L13.7479 2.81842C14.0517 3.5896 14.8549 4.04189 15.6718 3.90184L17.6956 3.5549C17.7973 3.53747 17.8993 3.58431 17.9523 3.67282L19.9764 7.05086C20.0329 7.14514 20.0212 7.26525 19.9476 7.34684L18.6161 8.82239C18.0117 9.4923 18.0156 10.512 18.6253 11.1772L19.9452 12.6173C20.0197 12.6985 20.0322 12.819 19.9759 12.9138L17.9519 16.3226C17.8988 16.412 17.7958 16.4592 17.6934 16.4411L15.7067 16.0901C14.8583 15.9402 14.027 16.4301 13.7471 17.2449L13.1163 19.0812C13.0817 19.1822 12.9867 19.25 12.8799 19.25H8.74563C8.64032 19.25 8.54631 19.184 8.51052 19.085L7.8352 17.2165C7.54584 16.4159 6.72233 15.9397 5.88409 16.0882L3.88899 16.4417C3.78716 16.4598 3.68473 16.4132 3.63131 16.3247L1.57756 12.92C1.51967 12.824 1.53273 12.7012 1.60952 12.6196L2.95068 11.1936C3.58072 10.5237 3.58479 9.48048 2.96 8.8057L1.60717 7.34464C1.53125 7.26266 1.51896 7.14025 1.57706 7.0448L0.936415 6.65484L1.57706 7.0448L3.63105 3.67046C3.68436 3.58287 3.78577 3.53671 3.88684 3.55404L5.89373 3.89808C6.72788 4.04108 7.54483 3.56666 7.83406 2.77129L8.50923 0.914564Z" stroke="#323232" stroke-width="1.5"/>
<circle cx="10.8438" cy="10" r="2.25" stroke="#323232" stroke-width="1.5"/>
</svg>
