<svg xmlns="http://www.w3.org/2000/svg" width="24" height="24" viewBox="0 0 24 24" fill="none">
<path d="M6.08211 9.76248C5.88211 9.96248 5.88211 10.2725 6.08211 10.4725C7.15211 11.5425 7.24211 13.2225 6.36211 14.3925C6.21211 14.5925 6.24211 14.8625 6.41211 15.0425C6.63211 15.2625 6.98211 15.2325 7.17211 14.9925C8.24211 13.5625 8.23211 11.5625 7.13211 10.1425L14.7521 2.52248C15.2421 2.03248 16.0321 2.03248 16.5221 2.52248C17.0121 3.01248 17.0121 3.80248 16.5221 4.29248L11.3921 9.42248C11.1921 9.62248 11.1921 9.93248 11.3921 10.1325C11.5921 10.3325 11.9021 10.3325 12.1021 10.1325L18.6421 3.59248C19.1321 3.10248 19.9221 3.10248 20.4121 3.59248C20.9021 4.08248 20.9021 4.87248 20.4121 5.36248L13.8721 11.9025C13.6721 12.1025 13.6721 12.4125 13.8721 12.6125C14.0721 12.8125 14.3821 12.8125 14.5821 12.6125L20.0621 7.13248C20.5521 6.64248 21.3421 6.64248 21.8321 7.13248C22.3221 7.62248 22.3221 8.41248 21.8321 8.90248L15.6421 15.0925C15.4421 15.2925 15.4421 15.6025 15.6421 15.8025C15.8421 16.0025 16.1521 16.0025 16.3521 15.8025L20.4221 11.7325C20.9121 11.2425 21.7021 11.2425 22.1921 11.7325C22.6821 12.2225 22.6821 13.0125 22.1921 13.5025L15.1221 20.5725C11.9021 23.7925 6.67211 23.7925 3.45211 20.5725C0.232109 17.3525 0.232109 12.1225 3.45211 8.90248L8.05211 4.30248C8.54211 3.81248 9.33211 3.81248 9.82211 4.30248C10.3121 4.79248 10.3121 5.58248 9.82211 6.07248L6.08211 9.76248ZM7.01211 1.76248C7.01211 1.35248 6.67211 1.01248 6.26211 1.01248C6.22211 1.01248 6.19211 1.01248 6.15211 1.02248C3.52211 1.40248 1.45211 3.48248 1.07211 6.10248C1.07211 6.13248 1.06211 6.17248 1.06211 6.21248C1.06211 6.62248 1.40211 6.96248 1.81211 6.96248C2.19211 6.96248 2.50211 6.68248 2.55211 6.32248C2.83211 4.35248 4.39211 2.79248 6.36211 2.51248C6.73211 2.45248 7.01211 2.14248 7.01211 1.76248ZM17.0121 22.1625C17.0121 22.5725 17.3521 22.9125 17.7621 22.9125C17.8021 22.9125 17.8321 22.9125 17.8721 22.9025C20.5021 22.5225 22.5721 20.4425 22.9521 17.8225C22.9521 17.7925 22.9621 17.7525 22.9621 17.7125C22.9621 17.3025 22.6221 16.9625 22.2121 16.9625C21.8321 16.9625 21.5221 17.2425 21.4721 17.6025C21.1921 19.5725 19.6321 21.1325 17.6621 21.4125C17.2921 21.4725 17.0121 21.7825 17.0121 22.1625Z" fill="url(#paint0_linear_3985_44110)"/>
<defs>
<linearGradient id="paint0_linear_3985_44110" x1="11.9996" y1="1.01248" x2="11.9996" y2="22.9875" gradientUnits="userSpaceOnUse">
<stop stop-color="#FFBF68"/>
<stop offset="1" stop-color="#FF9F1C"/>
</linearGradient>
</defs>
</svg>