<svg xmlns="http://www.w3.org/2000/svg" width="25" height="25" viewBox="0 0 25 25" fill="none">
<path d="M6.33602 10.1693C6.12769 10.3776 6.12769 10.7005 6.33602 10.9089C7.4506 12.0234 7.54435 13.7734 6.62769 14.9922C6.47144 15.2005 6.50269 15.4818 6.67977 15.6693C6.90894 15.8984 7.27352 15.8672 7.47144 15.6172C8.58602 14.1276 8.5756 12.0443 7.42977 10.5651L15.3673 2.6276C15.8777 2.11719 16.7006 2.11719 17.211 2.6276C17.7214 3.13802 17.7214 3.96094 17.211 4.47135L11.8673 9.8151C11.6589 10.0234 11.6589 10.3464 11.8673 10.5547C12.0756 10.763 12.3985 10.763 12.6069 10.5547L19.4194 3.74219C19.9298 3.23177 20.7527 3.23177 21.2631 3.74219C21.7735 4.2526 21.7735 5.07552 21.2631 5.58594L14.4506 12.3984C14.2423 12.6068 14.2423 12.9297 14.4506 13.138C14.6589 13.3464 14.9819 13.3464 15.1902 13.138L20.8985 7.42969C21.4089 6.91927 22.2319 6.91927 22.7423 7.42969C23.2527 7.9401 23.2527 8.76302 22.7423 9.27344L16.2944 15.7214C16.086 15.9297 16.086 16.2526 16.2944 16.4609C16.5027 16.6693 16.8256 16.6693 17.0339 16.4609L21.2735 12.2214C21.7839 11.7109 22.6069 11.7109 23.1173 12.2214C23.6277 12.7318 23.6277 13.5547 23.1173 14.0651L15.7527 21.4297C12.3985 24.7839 6.9506 24.7839 3.59644 21.4297C0.242269 18.0755 0.242269 12.6276 3.59644 9.27344L8.3881 4.48177C8.89852 3.97135 9.72144 3.97135 10.2319 4.48177C10.7423 4.99219 10.7423 5.8151 10.2319 6.32552L6.33602 10.1693ZM7.30477 1.83594C7.30477 1.40885 6.9506 1.05469 6.52352 1.05469C6.48185 1.05469 6.4506 1.05469 6.40894 1.0651C3.66935 1.46094 1.5131 3.6276 1.11727 6.35677C1.11727 6.38802 1.10685 6.42969 1.10685 6.47135C1.10685 6.89844 1.46102 7.2526 1.8881 7.2526C2.28394 7.2526 2.60685 6.96094 2.65894 6.58594C2.9506 4.53385 4.5756 2.90885 6.62769 2.61719C7.0131 2.55469 7.30477 2.23177 7.30477 1.83594ZM17.7214 23.0859C17.7214 23.513 18.0756 23.8672 18.5027 23.8672C18.5444 23.8672 18.5756 23.8672 18.6173 23.8568C21.3569 23.4609 23.5131 21.2943 23.9089 18.5651C23.9089 18.5339 23.9194 18.4922 23.9194 18.4505C23.9194 18.0234 23.5652 17.6693 23.1381 17.6693C22.7423 17.6693 22.4194 17.9609 22.3673 18.3359C22.0756 20.388 20.4506 22.013 18.3985 22.3047C18.0131 22.3672 17.7214 22.6901 17.7214 23.0859Z" fill="url(#paint0_linear_1092_10806)"/>
<defs>
<linearGradient id="paint0_linear_1092_10806" x1="12.5001" y1="1.05469" x2="12.5001" y2="23.9453" gradientUnits="userSpaceOnUse">
<stop stop-color="#FFBF68"/>
<stop offset="1" stop-color="#FF9F1C"/>
</linearGradient>
</defs>
</svg>