<svg width="11" height="22" viewBox="0 0 11 22" fill="none" xmlns="http://www.w3.org/2000/svg">
<path d="M2.62989 7.43564C2.62989 7.71287 2.78271 7.85149 3.08835 7.85149C3.72509 7.85149 4.23766 7.9901 4.62607 8.26733C5.01449 8.55116 5.20869 9.05281 5.20869 9.77228C5.20869 10.4323 4.98902 10.967 4.54967 11.3762C4.10395 11.7921 3.57227 12 2.95463 12C2.3943 12 1.93266 11.8647 1.56972 11.5941C1.20678 11.33 0.93935 10.9736 0.767431 10.5248C0.589144 10.0759 0.5 9.58416 0.5 9.0495C0.5 8.29703 0.636899 7.58746 0.910697 6.92079C1.17813 6.25413 1.56336 5.67327 2.06638 5.17822C2.5694 4.68317 3.17431 4.31683 3.88109 4.07921C4.03391 4.0264 4.18036 4 4.32044 4C4.5624 4 4.76616 4.08251 4.93171 4.24752C5.09089 4.41254 5.17049 4.62046 5.17049 4.87129C5.17049 5.13531 5.08134 5.32673 4.90306 5.44554C4.72477 5.56436 4.53693 5.66997 4.33954 5.76238C4.12942 5.86139 3.89064 5.9868 3.62321 6.13861C3.35578 6.29703 3.12337 6.48185 2.92598 6.69307C2.72859 6.91089 2.62989 7.15842 2.62989 7.43564ZM7.9212 7.43564C7.9212 7.71287 8.07402 7.85149 8.37966 7.85149C9.0164 7.85149 9.52897 7.9901 9.91738 8.26733C10.3058 8.55116 10.5 9.05281 10.5 9.77228C10.5 10.4323 10.2803 10.967 9.84097 11.3762C9.39526 11.7921 8.86358 12 8.24594 12C7.68561 12 7.22397 11.8647 6.86103 11.5941C6.49809 11.33 6.23066 10.9736 6.05874 10.5248C5.88045 10.0759 5.79131 9.58416 5.79131 9.0495C5.79131 8.29703 5.92821 7.58746 6.20201 6.92079C6.46944 6.25413 6.85466 5.67327 7.35769 5.17822C7.86071 4.68317 8.46562 4.31683 9.1724 4.07921C9.32521 4.0264 9.47167 4 9.61175 4C9.85371 4 10.0575 4.08251 10.223 4.24752C10.3822 4.41254 10.4618 4.62046 10.4618 4.87129C10.4618 5.13531 10.3727 5.32673 10.1944 5.44554C10.0161 5.56436 9.82824 5.66997 9.63085 5.76238C9.42073 5.86139 9.18195 5.9868 8.91452 6.13861C8.64709 6.29703 8.41468 6.48185 8.21729 6.69307C8.0199 6.91089 7.9212 7.15842 7.9212 7.43564Z" fill="#ABABAB"/>
</svg>
