<svg width="15" height="3" viewBox="0 0 15 3" fill="none" xmlns="http://www.w3.org/2000/svg">
<g id="Group">
<path id="Vector" d="M6.5 1.25C6.5 1.94036 7.05964 2.5 7.75 2.5C8.44036 2.5 9 1.94036 9 1.25C9 0.559644 8.44036 0 7.75 0C7.05964 0 6.5 0.559644 6.5 1.25Z" fill="#323232"/>
<path id="Vector_2" d="M12.5 1.25C12.5 1.94036 13.0596 2.5 13.75 2.5C14.4404 2.5 15 1.94036 15 1.25C15 0.559644 14.4404 0 13.75 0C13.0596 0 12.5 0.559644 12.5 1.25Z" fill="#323232"/>
<path id="Vector_3" d="M0.5 1.25C0.5 1.94036 1.05964 2.5 1.75 2.5C2.44036 2.5 3 1.94036 3 1.25C3 0.559644 2.44036 0 1.75 0C1.05964 0 0.5 0.559644 0.5 1.25Z" fill="#323232"/>
</g>
</svg>
