<svg width="11" height="22" viewBox="0 0 11 22" fill="none" xmlns="http://www.w3.org/2000/svg">
<path d="M8.37011 8.56436C8.37011 8.28713 8.21729 8.14851 7.91165 8.14851C7.27491 8.14851 6.76234 8.0099 6.37393 7.73267C5.98551 7.44884 5.79131 6.94719 5.79131 6.22772C5.79131 5.56766 6.01098 5.033 6.45033 4.62376C6.89605 4.20792 7.42773 4 8.04537 4C8.6057 4 9.06734 4.13531 9.43028 4.40594C9.79322 4.66997 10.0606 5.0264 10.2326 5.47525C10.4109 5.92409 10.5 6.41584 10.5 6.9505C10.5 7.70297 10.3631 8.41254 10.0893 9.07921C9.82187 9.74587 9.43664 10.3267 8.93362 10.8218C8.4306 11.3168 7.82569 11.6832 7.11891 11.9208C6.96609 11.9736 6.81964 12 6.67956 12C6.4376 12 6.23384 11.9175 6.06829 11.7525C5.90911 11.5875 5.82951 11.3795 5.82951 11.1287C5.82951 10.8647 5.91866 10.6733 6.09694 10.5545C6.27523 10.4356 6.46307 10.33 6.66046 10.2376C6.87058 10.1386 7.10936 10.0132 7.37679 9.86139C7.64422 9.70297 7.87663 9.51815 8.07402 9.30693C8.27141 9.08911 8.37011 8.84158 8.37011 8.56436ZM3.0788 8.56436C3.0788 8.28713 2.92598 8.14851 2.62034 8.14851C1.9836 8.14851 1.47103 8.0099 1.08262 7.73267C0.694206 7.44884 0.5 6.94719 0.5 6.22772C0.5 5.56766 0.719675 5.033 1.15903 4.62376C1.60474 4.20792 2.13642 4 2.75406 4C3.31439 4 3.77603 4.13531 4.13897 4.40594C4.50191 4.66997 4.76934 5.0264 4.94126 5.47525C5.11955 5.92409 5.20869 6.41584 5.20869 6.9505C5.20869 7.70297 5.07179 8.41254 4.79799 9.07921C4.53056 9.74587 4.14534 10.3267 3.64231 10.8218C3.13929 11.3168 2.53438 11.6832 1.8276 11.9208C1.67479 11.9736 1.52833 12 1.38825 12C1.14629 12 0.942534 11.9175 0.776982 11.7525C0.617797 11.5875 0.538204 11.3795 0.538204 11.1287C0.538204 10.8647 0.627348 10.6733 0.805635 10.5545C0.983922 10.4356 1.17176 10.33 1.36915 10.2376C1.57927 10.1386 1.81805 10.0132 2.08548 9.86139C2.35291 9.70297 2.58532 9.51815 2.78271 9.30693C2.9801 9.08911 3.0788 8.84158 3.0788 8.56436Z" fill="#ABABAB"/>
</svg>
