<svg width="128" height="146" viewBox="0 0 128 146" fill="none" xmlns="http://www.w3.org/2000/svg">
<g id="Frame 645">
<g id="Group 162">
<path id="Ellipse 357" d="M44.9142 141.545C45.5541 143.463 45.6467 145.206 34.6617 145.206C23.6767 145.206 22.9793 142.975 24.4092 141.545C27.3379 138.615 30.2672 138.615 34.6617 137.883C40.247 136.952 44.1813 139.348 44.9142 141.545Z" fill="#FFBF68"/>
<path id="Ellipse 358" d="M56.3153 141.545C55.6754 143.463 55.5828 145.206 66.5678 145.206C77.5528 145.206 78.2502 142.975 76.8203 141.545C73.8915 138.615 70.9623 138.615 66.5678 137.883C60.9825 136.952 57.0481 139.348 56.3153 141.545Z" fill="#FFBF68"/>
<g id="Vector">
<path d="M80.6283 108.482C86.1047 123.065 85.3889 142.071 50.5693 142.071C15.7496 142.071 15.9961 123.342 20.5102 108.482C26.7513 87.9359 30.9209 80.5394 50.5693 80.5394C70.2177 80.5394 72.6042 87.114 80.6283 108.482Z" fill="#EEEEEE"/>
<path d="M99.2976 50.9535C110.083 78.8957 79.1942 87.114 51.4403 87.114C23.6864 87.114 -8.69838 78.8957 2.83503 50.9535C2.83503 27.1205 13.5446 0.00012207 51.4403 0.00012207C89.336 0.00012207 97.65 26.2986 99.2976 50.9535Z" fill="#EEEEEE"/>
<path d="M45.4051 62.8571C48.807 61.5435 52.5778 61.5435 55.9797 62.8571L65.4798 66.5257C68.3123 67.6196 67.8096 71.7613 64.7972 72.1491L52.5667 73.7234C51.3223 73.8836 50.0625 73.8836 48.8181 73.7234L36.5876 72.1491C33.5752 71.7613 33.0724 67.6196 35.905 66.5257L45.4051 62.8571Z" fill="#FFBF68"/>
<path d="M33.3523 55.6346C32.909 58.7809 31.7447 60.7595 28.4707 60.7595C25.1967 60.7595 24.751 57.6371 25.1943 54.4908C25.6375 51.3446 27.8231 49.0501 30.0758 49.3659C32.3286 49.6817 33.7955 52.4883 33.3523 55.6346Z" fill="#505050"/>
<path d="M30.9209 53.0082C30.9209 53.689 30.3676 54.2409 29.6851 54.2409C29.0027 54.2409 28.4494 53.689 28.4494 53.0082C28.4494 52.3274 29.0027 51.7754 29.6851 51.7754C30.3676 51.7754 30.9209 52.3274 30.9209 53.0082Z" fill="white"/>
<path d="M74.543 54.4908C74.9862 57.6371 74.5406 60.7595 71.2666 60.7595C67.9925 60.7595 66.8282 58.7809 66.385 55.6346C65.9417 52.4883 67.4086 49.6817 69.6614 49.3659C71.9142 49.05 74.0997 51.3446 74.543 54.4908Z" fill="#505050"/>
<path d="M71.2878 53.0082C71.2878 53.689 70.7345 54.241 70.0521 54.241C69.3696 54.241 68.8163 53.689 68.8163 53.0082C68.8163 52.3274 69.3696 51.7755 70.0521 51.7755C70.7345 51.7755 71.2878 52.3274 71.2878 53.0082Z" fill="white"/>
</g>
<g id="Group 161">
<path id="Ellipse 353" d="M42.0345 51.9951C42.0345 59.605 35.8656 65.7739 28.2557 65.7739C20.6459 65.7739 14.477 59.605 14.477 51.9951C14.477 44.3853 20.6459 38.2163 28.2557 38.2163C35.8656 38.2163 42.0345 44.3853 42.0345 51.9951Z" stroke="#505050" stroke-width="3.2"/>
<path id="Ellipse 354" d="M85.9613 51.9951C85.9613 59.605 79.7923 65.7739 72.1825 65.7739C64.5727 65.7739 58.4037 59.605 58.4037 51.9951C58.4037 44.3853 64.5727 38.2163 72.1825 38.2163C79.7923 38.2163 85.9613 44.3853 85.9613 51.9951Z" stroke="#505050" stroke-width="3.2"/>
<path id="Line 83" d="M42.1758 54.1916V54.1916C47.5025 53.2231 52.9602 53.2231 58.2869 54.1916V54.1916" stroke="#505050" stroke-width="3.2"/>
</g>
<path id="Ellipse 355" d="M97.1778 87.1584C96.507 83.1699 91.3046 82.2053 77.9938 82.959C53.0335 84.3722 57.9401 90.5207 61.2391 93.2031C68.05 98.7411 70.8766 100.492 80.4231 97.4026C94.761 92.7631 97.8487 91.1469 97.1778 87.1584Z" fill="#EEEEEE"/>
<path id="Ellipse 356" d="M33.4107 85.0068C30.0582 82.7443 26.0961 85.3721 18.3278 94.2645C3.7607 110.939 11.3499 111.988 15.3852 111.716C23.7161 111.153 26.7708 110.551 30.4681 102.458C36.0211 90.3025 36.7632 87.2694 33.4107 85.0068Z" fill="#EEEEEE"/>
</g>
<g id="Group 164">
<ellipse id="Ellipse 359" cx="101.862" cy="66.272" rx="20.4544" ry="19.8528" transform="rotate(18.259 101.862 66.272)" fill="#ABABAB"/>
<rect id="Rectangle 1878" x="97.3477" y="65.1041" width="10.2525" height="32.2222" rx="2.92929" transform="rotate(18.259 97.3477 65.1041)" fill="#ABABAB"/>
<g id="Group 101">
<path id="Line 10" d="M105.646 73.8422L97.5816 58.226" stroke="#505050" stroke-width="3.2" stroke-linecap="round"/>
<path id="Line 11" d="M93.8115 70.0663L109.428 62.0014" stroke="#505050" stroke-width="3.2" stroke-linecap="round"/>
</g>
</g>
</g>
</svg>
