<svg width="28" height="32" viewBox="0 0 28 32" fill="none" xmlns="http://www.w3.org/2000/svg">
<path fill-rule="evenodd" clip-rule="evenodd" d="M13.5591 0.5C15.2028 0.5 16.7486 0.95125 18.0789 1.74248C18.2589 1.83909 18.418 1.97206 18.5467 2.13339C18.6753 2.29472 18.7708 2.48107 18.8274 2.68124C18.884 2.88141 18.9006 3.09126 18.8761 3.29816C18.8516 3.50507 18.7865 3.70475 18.6849 3.88519C18.5832 4.06564 18.447 4.22312 18.2844 4.34817C18.1218 4.47321 17.9363 4.56324 17.7389 4.61282C17.5416 4.66241 17.3365 4.67053 17.136 4.63671C16.9355 4.60288 16.7438 4.5278 16.5723 4.41599C15.656 3.87332 14.6165 3.58769 13.5584 3.58782C12.5003 3.58795 11.461 3.87383 10.5448 4.41672C9.62856 4.95961 8.86786 5.74036 8.33915 6.68048C7.81044 7.6206 7.53235 8.68693 7.53286 9.77226L24.1051 9.77381C24.9043 9.77381 25.6707 10.0994 26.2358 10.6791C26.8008 11.2587 27.1183 12.0448 27.1183 12.8646V28.3183C27.1183 29.1381 26.8008 29.9242 26.2358 30.5038C25.6707 31.0835 24.9043 31.4091 24.1051 31.4091H3.01314C2.21401 31.4091 1.4476 31.0835 0.882529 30.5038C0.317455 29.9242 0 29.1381 0 28.3183V12.863C0 12.0433 0.317455 11.2572 0.882529 10.6775C1.4476 10.0979 2.21401 9.77226 3.01314 9.77226H4.51971C4.51971 7.31311 5.47208 4.95467 7.1673 3.21578C8.86252 1.4769 11.1617 0.5 13.5591 0.5ZM13.5591 15.9538C12.8959 15.9538 12.2511 16.1783 11.7249 16.5925C11.1987 17.0067 10.8205 17.5874 10.6488 18.2446C10.4771 18.9017 10.5217 19.5987 10.7755 20.2272C11.0293 20.8558 11.4782 21.3809 12.0526 21.7211V23.6807C12.0526 24.0905 12.2113 24.4836 12.4938 24.7734C12.7764 25.0632 13.1596 25.226 13.5591 25.226C13.9587 25.226 14.3419 25.0632 14.6244 24.7734C14.907 24.4836 15.0657 24.0905 15.0657 23.6807V21.7211C15.6401 21.3809 16.089 20.8558 16.3428 20.2272C16.5966 19.5987 16.6411 18.9017 16.4695 18.2446C16.2978 17.5874 15.9195 17.0067 15.3933 16.5925C14.8671 16.1783 14.2224 15.9538 13.5591 15.9538ZM25.4882 5.16858L26.9435 5.57038C27.3146 5.68954 27.6264 5.95125 27.8137 6.30077C28.001 6.65029 28.0493 7.06056 27.9485 7.44578C27.8477 7.83099 27.6056 8.16131 27.2729 8.36766C26.9401 8.57401 26.5425 8.64041 26.1631 8.55296L24.7093 8.15425C24.3249 8.04679 23.9978 7.78756 23.7993 7.43329C23.6008 7.07901 23.5472 6.65852 23.6501 6.2638C23.7531 5.86908 24.0043 5.53225 24.3488 5.32701C24.6932 5.12176 25.1029 5.0648 25.4882 5.16858ZM23.5522 0.639084C23.7434 0.691624 23.9225 0.782272 24.0795 0.90585C24.2365 1.02943 24.3682 1.18351 24.4671 1.35931C24.566 1.5351 24.6302 1.72916 24.656 1.93041C24.6818 2.13165 24.6686 2.33613 24.6174 2.53217L24.423 3.27704C24.3726 3.47392 24.2848 3.65864 24.1646 3.82059C24.0444 3.98255 23.8942 4.11856 23.7226 4.2208C23.551 4.32304 23.3614 4.38951 23.1647 4.41638C22.968 4.44325 22.7681 4.42999 22.5764 4.37738C22.3847 4.32476 22.205 4.23381 22.0477 4.10977C21.8904 3.98572 21.7585 3.83101 21.6596 3.65453C21.5607 3.47805 21.4968 3.28327 21.4716 3.08138C21.4463 2.87949 21.4601 2.67447 21.5123 2.47808L21.7082 1.73167C21.8116 1.33606 22.064 0.998765 22.4098 0.793897C22.7555 0.58903 23.1664 0.533347 23.5522 0.639084Z" fill="url(#paint0_linear_4402_46847)" fill-opacity="0.8"/>
<defs>
<linearGradient id="paint0_linear_4402_46847" x1="23.7847" y1="3.20904" x2="6.39725" y2="41.1739" gradientUnits="userSpaceOnUse">
<stop offset="0.286119" stop-color="white"/>
<stop offset="1" stop-color="#FF9F1C"/>
</linearGradient>
</defs>
</svg>
