<svg width="20" height="21" viewBox="0 0 20 21" fill="none" xmlns="http://www.w3.org/2000/svg">
<path d="M10 0.592285C8.02219 0.592285 6.08879 1.17877 4.4443 2.27759C2.79981 3.3764 1.51809 4.93819 0.761209 6.76545C0.00433284 8.59271 -0.1937 10.6034 0.192152 12.5432C0.578004 14.483 1.53041 16.2648 2.92894 17.6633C4.32746 19.0619 6.10929 20.0143 8.0491 20.4001C9.98891 20.786 11.9996 20.588 13.8268 19.8311C15.6541 19.0742 17.2159 17.7925 18.3147 16.148C19.4135 14.5035 20 12.5701 20 10.5923C19.9974 7.94091 18.943 5.39887 17.0682 3.52407C15.1934 1.64927 12.6514 0.594868 10 0.592285ZM14.8781 11.5679H5.12195C4.86321 11.5679 4.61506 11.4651 4.4321 11.2821C4.24913 11.0992 4.14635 10.851 4.14635 10.5923C4.14635 10.3335 4.24913 10.0854 4.4321 9.90242C4.61506 9.71946 4.86321 9.61667 5.12195 9.61667H14.8781C15.1368 9.61667 15.3849 9.71946 15.5679 9.90242C15.7509 10.0854 15.8537 10.3335 15.8537 10.5923C15.8537 10.851 15.7509 11.0992 15.5679 11.2821C15.3849 11.4651 15.1368 11.5679 14.8781 11.5679Z" fill="#636363"/>
<path d="M5 10.5923H15" stroke="white" stroke-width="2" stroke-linecap="round"/>
</svg>
