<svg width="24" height="24" viewBox="0 0 24 24" fill="none" xmlns="http://www.w3.org/2000/svg">
<path d="M10.5 12.25C10.5 12.9404 11.0596 13.5 11.75 13.5C12.4404 13.5 13 12.9404 13 12.25C13 11.5596 12.4404 11 11.75 11C11.0596 11 10.5 11.5596 10.5 12.25Z" fill="#323232"/>
<path d="M16.5 12.25C16.5 12.9404 17.0596 13.5 17.75 13.5C18.4404 13.5 19 12.9404 19 12.25C19 11.5596 18.4404 11 17.75 11C17.0596 11 16.5 11.5596 16.5 12.25Z" fill="#323232"/>
<path d="M4.5 12.25C4.5 12.9404 5.05964 13.5 5.75 13.5C6.44036 13.5 7 12.9404 7 12.25C7 11.5596 6.44036 11 5.75 11C5.05964 11 4.5 11.5596 4.5 12.25Z" fill="#323232"/>
</svg>
