<svg width="202" height="48" viewBox="0 0 202 48" fill="none" xmlns="http://www.w3.org/2000/svg">
<path d="M17.4361 0C11.9263 0 7.45967 4.47715 7.45967 10V26.0084C7.4157 26.0166 7.37328 26.0309 7.33402 26.0509L0.215688 29.6709C0.15011 29.7043 0.0956539 29.7522 0.057793 29.81C0.019932 29.8678 0 29.9333 0 30C0 30.0667 0.019932 30.1322 0.057793 30.19C0.0956539 30.2478 0.15011 30.2957 0.215688 30.3291L7.33402 33.9491C7.37328 33.9691 7.4157 33.9834 7.45967 33.9916V38C7.45967 43.5228 11.9263 48 17.4361 48H192.024C197.533 48 202 43.5229 202 38V10C202 4.47715 197.533 0 192.024 0H17.4361Z" fill="#FFFAE6"/>
</svg>
