<svg width="207" height="56" viewBox="0 0 207 56" fill="none" xmlns="http://www.w3.org/2000/svg">
<g filter="url(#filter0_d_2640_47863)">
<path d="M8 11C8 5.47715 12.4772 1 18 1H193C198.523 1 203 5.47715 203 11V39C203 44.5229 198.523 49 193 49H18C12.4772 49 8 44.5228 8 39V11Z" fill="#FFFAE6" shape-rendering="crispEdges"/>
<path d="M21.8555 11.5469C22.3711 11.543 22.8301 11.6289 23.2324 11.8047C23.6387 11.9805 23.9551 12.2305 24.1816 12.5547C24.4121 12.8789 24.5273 13.25 24.5273 13.668C24.5273 14.0859 24.4121 14.457 24.1816 14.7812C23.9551 15.1055 23.6387 15.3574 23.2324 15.5371C22.8301 15.7168 22.3711 15.8047 21.8555 15.8008C21.3398 15.8047 20.8789 15.7168 20.4727 15.5371C20.0703 15.3574 19.7539 15.1055 19.5234 14.7812C19.2969 14.457 19.1836 14.0859 19.1836 13.668C19.1836 13.25 19.2969 12.8789 19.5234 12.5547C19.7539 12.2305 20.0703 11.9805 20.4727 11.8047C20.8789 11.6289 21.3398 11.543 21.8555 11.5469ZM21.8555 12.2969C21.5117 12.293 21.2051 12.3496 20.9355 12.4668C20.666 12.5801 20.4551 12.7422 20.3027 12.9531C20.1543 13.1641 20.082 13.4023 20.0859 13.668C20.082 13.9375 20.1543 14.1777 20.3027 14.3887C20.4551 14.5957 20.666 14.7578 20.9355 14.875C21.2051 14.9883 21.5117 15.043 21.8555 15.0391C22.2031 15.043 22.5117 14.9883 22.7812 14.875C23.0547 14.7578 23.2676 14.5957 23.4199 14.3887C23.5723 14.1777 23.6484 13.9375 23.6484 13.668C23.6484 13.4023 23.5723 13.1641 23.4199 12.9531C23.2676 12.7422 23.0547 12.5801 22.7812 12.4668C22.5117 12.3496 22.2031 12.293 21.8555 12.2969ZM27.0117 21.4609H26.1094V11.043H27.0117V21.4609ZM18.3984 16.6914C19.6836 16.6914 20.9043 16.668 22.0605 16.6211C23.2168 16.5703 24.3125 16.4688 25.3477 16.3164L25.4062 17.0078C24.4883 17.1758 23.4766 17.2949 22.3711 17.3652V21.1328H21.457V17.418C20.7656 17.4492 19.7891 17.4688 18.5273 17.4766L18.3984 16.6914ZM37.6406 18.0742H36.7617V11.043H37.6406V18.0742ZM35.6133 17.1016H34.7227V14.5352H33.1523V13.7734H34.7227V11.2305H35.6133V17.1016ZM31.875 13.2695C31.875 13.6602 31.957 14.0469 32.1211 14.4297C32.2891 14.8086 32.5293 15.1543 32.8418 15.4668C33.1543 15.7754 33.5234 16.0195 33.9492 16.1992L33.4805 16.9141C33.0039 16.7188 32.5938 16.4414 32.25 16.082C31.9102 15.7188 31.6465 15.3027 31.459 14.834C31.2754 15.3652 31.002 15.8418 30.6387 16.2637C30.2793 16.6816 29.8477 17.0078 29.3438 17.2422L28.8516 16.5273C29.2891 16.332 29.668 16.0625 29.9883 15.7188C30.3125 15.3711 30.5586 14.9844 30.7266 14.5586C30.8984 14.1289 30.9844 13.6992 30.9844 13.2695V12.6719H29.0391V11.9102H33.7148V12.6719H31.875V13.2695ZM34.6172 17.8867C34.6172 18.332 34.7852 18.752 35.1211 19.1465C35.457 19.5371 35.8984 19.8672 36.4453 20.1367C36.9922 20.4062 37.5703 20.5859 38.1797 20.6758L37.8516 21.4023C37.0312 21.2617 36.2871 20.9941 35.6191 20.5996C34.9551 20.2051 34.4688 19.7227 34.1602 19.1523C33.8555 19.7188 33.3691 20.1992 32.7012 20.5938C32.0332 20.9883 31.293 21.2578 30.4805 21.4023L30.1406 20.6758C30.7539 20.5859 31.332 20.4062 31.875 20.1367C32.4219 19.8672 32.8613 19.5371 33.1934 19.1465C33.5293 18.752 33.6992 18.332 33.7031 17.8867V17.5469H34.6172V17.8867ZM43.9102 11.2188C44.6836 11.2188 45.3457 11.2891 45.8965 11.4297C46.4473 11.5664 46.8672 11.7695 47.1562 12.0391C47.4453 12.3047 47.5898 12.6289 47.5898 13.0117C47.5898 13.5977 47.2695 14.0469 46.6289 14.3594C45.9883 14.6719 45.082 14.832 43.9102 14.8398C43.1367 14.8359 42.4727 14.7637 41.918 14.623C41.3672 14.4824 40.9453 14.2773 40.6523 14.0078C40.3633 13.7344 40.2188 13.4023 40.2188 13.0117C40.2188 12.6289 40.3633 12.3047 40.6523 12.0391C40.9453 11.7695 41.3672 11.5664 41.918 11.4297C42.4727 11.2891 43.1367 11.2188 43.9102 11.2188ZM43.9102 11.9102C43.3359 11.9102 42.8438 11.9551 42.4336 12.0449C42.0234 12.1309 41.7109 12.2578 41.4961 12.4258C41.2812 12.5898 41.1758 12.7852 41.1797 13.0117C41.1758 13.3711 41.4121 13.6484 41.8887 13.8438C42.3652 14.0391 43.0391 14.1367 43.9102 14.1367C44.7773 14.1367 45.4512 14.0391 45.9316 13.8438C46.4121 13.6484 46.6523 13.3711 46.6523 13.0117C46.6523 12.7852 46.543 12.5898 46.3242 12.4258C46.1055 12.2617 45.791 12.1348 45.3809 12.0449C44.9707 11.9551 44.4805 11.9102 43.9102 11.9102ZM48.6562 16.293H39.1641V15.543H48.6562V16.293ZM47.4375 19.5273H41.25V20.6055H47.7539V21.332H40.3359V18.8477H46.5352V17.8984H40.3125V17.1953H47.4375V19.5273ZM60.9609 16.8086H53.7656V12.0039H60.8555V12.7656H54.6797V16.0469H60.9609V16.8086ZM62.0859 20.0312H52.5469V19.2578H62.0859V20.0312ZM67.1719 15.8125H64.1602V18.1797C64.8242 18.1758 65.4453 18.1543 66.0234 18.1152C66.6016 18.0762 67.207 18.0039 67.8398 17.8984L67.9219 18.6484C67.2383 18.7695 66.5898 18.8516 65.9766 18.8945C65.3633 18.9336 64.6875 18.9531 63.9492 18.9531H63.2695V15.0508H66.2812V12.9414H63.2461V12.168H67.1719V15.8125ZM71.8242 21.4492H70.9453V15.918H69.4102V20.9102H68.5664V11.2656H69.4102V15.1562H70.9453V11.0312H71.8242V21.4492ZM81.5039 13.1875C81.5039 13.7852 81.4961 14.3066 81.4805 14.752C81.4688 15.1973 81.4355 15.7168 81.3809 16.3105C81.3262 16.9043 81.2383 17.5508 81.1172 18.25L80.1797 18.1562C80.3086 17.4961 80.4043 16.875 80.4668 16.293C80.5293 15.707 80.5664 15.1914 80.5781 14.7461C80.5938 14.2969 80.6016 13.7773 80.6016 13.1875V12.9062H74.3203V12.1445H81.5039V13.1875ZM82.7812 19.9141H73.2891V19.1523H82.7812V19.9141ZM91.7227 15.332H93.4688V16.0938H91.7227V21.4492H90.8086V11.0312H91.7227V15.332ZM89.8008 13.4688H83.6016V12.707H86.2852V11.1602H87.1992V12.707H89.8008V13.4688ZM86.7539 14.3359C87.2422 14.3359 87.6797 14.4375 88.0664 14.6406C88.4531 14.8438 88.7559 15.127 88.9746 15.4902C89.1934 15.8535 89.3047 16.2656 89.3086 16.7266C89.3047 17.1875 89.1934 17.5996 88.9746 17.9629C88.7559 18.3262 88.4531 18.6094 88.0664 18.8125C87.6797 19.0156 87.2422 19.1172 86.7539 19.1172C86.2617 19.1172 85.8203 19.0156 85.4297 18.8125C85.043 18.6094 84.7402 18.3262 84.5215 17.9629C84.3027 17.5996 84.1953 17.1875 84.1992 16.7266C84.1953 16.2656 84.3027 15.8535 84.5215 15.4902C84.7402 15.127 85.043 14.8438 85.4297 14.6406C85.8203 14.4375 86.2617 14.3359 86.7539 14.3359ZM86.7539 15.1094C86.4336 15.1094 86.1445 15.1797 85.8867 15.3203C85.6328 15.457 85.4336 15.6484 85.2891 15.8945C85.1445 16.1406 85.0742 16.418 85.0781 16.7266C85.0742 17.0391 85.1445 17.3184 85.2891 17.5645C85.4336 17.8066 85.6328 17.9961 85.8867 18.1328C86.1445 18.2695 86.4336 18.3359 86.7539 18.332C87.0703 18.3359 87.3555 18.2695 87.6094 18.1328C87.8633 17.9961 88.0625 17.8066 88.207 17.5645C88.3516 17.3184 88.4258 17.0391 88.4297 16.7266C88.4258 16.418 88.3516 16.1406 88.207 15.8945C88.0625 15.6484 87.8633 15.457 87.6094 15.3203C87.3555 15.1797 87.0703 15.1094 86.7539 15.1094ZM96.832 11.8398C97.3086 11.8438 97.7344 11.9785 98.1094 12.2441C98.4844 12.5059 98.7852 12.8789 99.0117 13.3633H101.754V11.0312H102.668V21.4727H101.754V17.4297H99.0762C98.8574 17.9609 98.5527 18.3711 98.1621 18.6602C97.7754 18.9492 97.332 19.0938 96.832 19.0938C96.3242 19.0938 95.8711 18.9453 95.4727 18.6484C95.0781 18.3516 94.7695 17.9297 94.5469 17.3828C94.3281 16.8359 94.2188 16.1992 94.2188 15.4727C94.2188 14.7461 94.3281 14.1094 94.5469 13.5625C94.7695 13.0156 95.0781 12.5938 95.4727 12.2969C95.8672 11.9961 96.3203 11.8438 96.832 11.8398ZM96.832 12.6602C96.4922 12.6641 96.1895 12.7832 95.9238 13.0176C95.6621 13.248 95.459 13.5762 95.3145 14.002C95.1699 14.4238 95.0977 14.9141 95.0977 15.4727C95.0977 16.0312 95.1699 16.5234 95.3145 16.9492C95.459 17.3711 95.6621 17.6973 95.9238 17.9277C96.1895 18.1582 96.4922 18.2734 96.832 18.2734C97.168 18.2734 97.4668 18.1582 97.7285 17.9277C97.9941 17.6973 98.1992 17.3711 98.3438 16.9492C98.4922 16.5234 98.5664 16.0312 98.5664 15.4727C98.5664 14.9141 98.4922 14.4238 98.3438 14.002C98.1992 13.5762 97.9961 13.248 97.7344 13.0176C97.4727 12.7832 97.1719 12.6641 96.832 12.6602ZM99.2812 14.1367C99.3828 14.5742 99.4336 15.0195 99.4336 15.4727C99.4336 15.8789 99.3926 16.2773 99.3105 16.668H101.754V14.1367H99.2812ZM116.004 21.4727H115.078V11.0312H116.004V21.4727ZM110.461 11.8398C110.977 11.8438 111.436 11.9961 111.838 12.2969C112.24 12.5938 112.555 13.0156 112.781 13.5625C113.008 14.1094 113.121 14.7461 113.121 15.4727C113.121 16.1992 113.008 16.8359 112.781 17.3828C112.555 17.9297 112.24 18.3516 111.838 18.6484C111.436 18.9453 110.977 19.0938 110.461 19.0938C109.945 19.0938 109.484 18.9453 109.078 18.6484C108.676 18.3516 108.361 17.9297 108.135 17.3828C107.912 16.8359 107.801 16.1992 107.801 15.4727C107.801 14.7461 107.912 14.1094 108.135 13.5625C108.361 13.0156 108.676 12.5938 109.078 12.2969C109.48 11.9961 109.941 11.8438 110.461 11.8398ZM110.461 12.6602C110.113 12.6641 109.805 12.7832 109.535 13.0176C109.27 13.248 109.062 13.5762 108.914 14.002C108.766 14.4238 108.691 14.9141 108.691 15.4727C108.691 16.0312 108.766 16.5234 108.914 16.9492C109.062 17.3711 109.271 17.6973 109.541 17.9277C109.811 18.1582 110.117 18.2734 110.461 18.2734C110.805 18.2734 111.111 18.1582 111.381 17.9277C111.65 17.6973 111.859 17.3711 112.008 16.9492C112.156 16.5234 112.23 16.0312 112.23 15.4727C112.23 14.9141 112.156 14.4238 112.008 14.002C111.859 13.5762 111.65 13.248 111.381 13.0176C111.115 12.7832 110.809 12.6641 110.461 12.6602ZM127.289 16.9258H117.785V16.1875H122.086V14.9688H118.992V11.5234H126.105V12.2617H119.895V14.2188H126.176V14.9688H122.977V16.1875H127.289V16.9258ZM122.531 17.6875C123.273 17.6875 123.912 17.7617 124.447 17.9102C124.986 18.0547 125.398 18.2676 125.684 18.5488C125.969 18.8301 126.113 19.168 126.117 19.5625C126.113 19.9609 125.969 20.3008 125.684 20.582C125.398 20.8633 124.988 21.0762 124.453 21.2207C123.918 21.3691 123.277 21.4453 122.531 21.4492C121.781 21.4453 121.137 21.3691 120.598 21.2207C120.059 21.0762 119.646 20.8633 119.361 20.582C119.076 20.3008 118.934 19.9609 118.934 19.5625C118.934 19.168 119.076 18.8301 119.361 18.5488C119.646 18.2676 120.059 18.0547 120.598 17.9102C121.137 17.7617 121.781 17.6875 122.531 17.6875ZM122.531 18.4141C121.977 18.4141 121.498 18.4609 121.096 18.5547C120.697 18.6445 120.393 18.7754 120.182 18.9473C119.971 19.1191 119.867 19.3242 119.871 19.5625C119.867 19.8047 119.971 20.0117 120.182 20.1836C120.393 20.3555 120.697 20.4863 121.096 20.5762C121.498 20.666 121.977 20.7109 122.531 20.7109C123.082 20.7109 123.557 20.666 123.955 20.5762C124.354 20.4863 124.658 20.3555 124.869 20.1836C125.084 20.0078 125.191 19.8008 125.191 19.5625C125.191 19.3242 125.084 19.1191 124.869 18.9473C124.658 18.7754 124.352 18.6445 123.949 18.5547C123.551 18.4609 123.078 18.4141 122.531 18.4141ZM133.359 13.5859H128.133V12.8359H130.301V11.3477H131.215V12.8359H133.359V13.5859ZM130.746 14.2891C131.18 14.2891 131.566 14.3906 131.906 14.5938C132.25 14.793 132.518 15.0723 132.709 15.4316C132.904 15.791 133.004 16.1992 133.008 16.6562C133.004 17.1172 132.904 17.5293 132.709 17.8926C132.518 18.252 132.25 18.5352 131.906 18.7422C131.566 18.9453 131.18 19.0469 130.746 19.0469C130.316 19.0469 129.932 18.9453 129.592 18.7422C129.252 18.5352 128.986 18.25 128.795 17.8867C128.604 17.5234 128.508 17.1133 128.508 16.6562C128.508 16.2031 128.604 15.7969 128.795 15.4375C128.986 15.0742 129.252 14.793 129.592 14.5938C129.932 14.3906 130.316 14.2891 130.746 14.2891ZM130.746 15.0625C130.477 15.0664 130.232 15.1387 130.014 15.2793C129.799 15.416 129.631 15.6055 129.51 15.8477C129.389 16.0859 129.328 16.3555 129.328 16.6562C129.328 16.9609 129.389 17.2344 129.51 17.4766C129.635 17.7188 129.805 17.9082 130.02 18.0449C130.234 18.1777 130.477 18.2422 130.746 18.2383C131.02 18.2422 131.266 18.1777 131.484 18.0449C131.703 17.9082 131.875 17.7188 132 17.4766C132.125 17.2344 132.188 16.9609 132.188 16.6562C132.188 16.3555 132.125 16.0859 132 15.8477C131.875 15.6055 131.703 15.416 131.484 15.2793C131.266 15.1387 131.02 15.0664 130.746 15.0625ZM137.027 21.4492H136.148V16.1875H134.766V20.9336H133.898V11.2891H134.766V15.4258H136.148V11.0312H137.027V21.4492ZM148.066 20.1133H138.527V19.3516H142.816V17.1016H139.652V11.7695H140.578V13.6562H145.992V11.7695H146.895V17.1016H143.719V19.3516H148.066V20.1133ZM145.992 16.3516V14.4062H140.578V16.3516H145.992ZM151.992 13.9961C151.992 14.5508 152.08 15.1055 152.256 15.6602C152.432 16.2148 152.684 16.7207 153.012 17.1777C153.344 17.6348 153.734 17.9961 154.184 18.2617L153.656 18.9766C153.168 18.6797 152.744 18.2715 152.385 17.752C152.029 17.2285 151.756 16.6406 151.564 15.9883C151.369 16.6914 151.082 17.3242 150.703 17.8867C150.324 18.4492 149.879 18.8867 149.367 19.1992L148.781 18.5078C149.25 18.2344 149.66 17.8613 150.012 17.3887C150.363 16.9121 150.633 16.3828 150.82 15.8008C151.008 15.2148 151.102 14.625 151.102 14.0312V12.0156H151.992V13.9961ZM157.828 21.4492H156.938V11.0312H157.828V21.4492ZM155.672 20.9219H154.805V15.5547H153.035V14.7695H154.805V11.2539H155.672V20.9219ZM168.809 20.1133H159.27V19.3398H161.637V16.5273C161.184 16.293 160.832 15.9922 160.582 15.625C160.332 15.2539 160.207 14.8359 160.207 14.3711C160.207 13.8398 160.369 13.373 160.693 12.9707C161.018 12.5645 161.467 12.25 162.041 12.0273C162.619 11.8047 163.277 11.6914 164.016 11.6875C164.754 11.6914 165.41 11.8047 165.984 12.0273C166.562 12.25 167.014 12.5645 167.338 12.9707C167.662 13.373 167.824 13.8398 167.824 14.3711C167.824 14.8281 167.703 15.2402 167.461 15.6074C167.219 15.9707 166.879 16.2695 166.441 16.5039V19.3398H168.809V20.1133ZM164.016 12.4492C163.449 12.4453 162.945 12.5234 162.504 12.6836C162.062 12.8438 161.717 13.0703 161.467 13.3633C161.221 13.6523 161.098 13.9883 161.098 14.3711C161.098 14.7539 161.221 15.0938 161.467 15.3906C161.717 15.6836 162.062 15.9121 162.504 16.0762C162.945 16.2363 163.449 16.3164 164.016 16.3164C164.578 16.3164 165.08 16.2344 165.521 16.0703C165.963 15.9062 166.309 15.6777 166.559 15.3848C166.809 15.0918 166.934 14.7539 166.934 14.3711C166.934 13.9883 166.809 13.6523 166.559 13.3633C166.309 13.0703 165.963 12.8438 165.521 12.6836C165.08 12.5234 164.578 12.4453 164.016 12.4492ZM165.516 19.3398V16.8613C165.051 16.9824 164.551 17.043 164.016 17.043C163.477 17.043 162.984 16.9844 162.539 16.8672V19.3398H165.516Z" fill="#323232"/>
<path d="M27.0586 36.7891H26.1328V33.7656H24.3516V32.9922H26.1328V31.7852H24.3516V31.0234H26.1328V29.0312H27.0586V36.7891ZM24.2695 30.6367H23.2031V34.2871C23.8203 34.2441 24.2891 34.2031 24.6094 34.1641L24.6562 34.8555C23.7539 34.9961 22.791 35.0898 21.7676 35.1367C20.7441 35.1836 19.6758 35.207 18.5625 35.207L18.4453 34.4219C18.7031 34.4219 19.1523 34.418 19.793 34.4102V30.6367H18.7383V29.8867H24.2695V30.6367ZM27.3398 39.2266H20.3438V36.1445H21.2695V38.4531H27.3398V39.2266ZM20.6836 34.3926C21.2344 34.3809 21.7773 34.3633 22.3125 34.3398V30.6367H20.6836V34.3926ZM32.543 30.7539C32.543 31.1992 32.6582 31.625 32.8887 32.0312C33.1191 32.4375 33.4375 32.793 33.8438 33.0977C34.25 33.4023 34.7109 33.6328 35.2266 33.7891L34.7578 34.5156C34.1484 34.3203 33.6094 34.0234 33.1406 33.625C32.6758 33.2227 32.3242 32.7539 32.0859 32.2188C31.8594 32.7891 31.5117 33.291 31.043 33.7246C30.5742 34.1543 30.0273 34.4766 29.4023 34.6914L28.9219 33.9648C29.4414 33.8008 29.9043 33.5566 30.3105 33.2324C30.7207 32.9082 31.041 32.5312 31.2715 32.1016C31.502 31.6719 31.6172 31.2227 31.6172 30.7539V30.4844H29.1797V29.7344H34.9453V30.4844H32.543V30.7539ZM37.3945 34.668H36.4805V29.0312H37.3945V34.668ZM31.5586 36.4492H36.4805V35.1836H37.3945V39.3086H30.6445V35.1836H31.5586V36.4492ZM36.4805 38.5586V37.1875H31.5586V38.5586H36.4805ZM47.2266 33.332H48.9727V34.0938H47.2266V39.4492H46.3125V29.0312H47.2266V33.332ZM45.3047 31.4688H39.1055V30.707H41.7891V29.1602H42.7031V30.707H45.3047V31.4688ZM42.2578 32.3359C42.7461 32.3359 43.1836 32.4375 43.5703 32.6406C43.957 32.8438 44.2598 33.127 44.4785 33.4902C44.6973 33.8535 44.8086 34.2656 44.8125 34.7266C44.8086 35.1875 44.6973 35.5996 44.4785 35.9629C44.2598 36.3262 43.957 36.6094 43.5703 36.8125C43.1836 37.0156 42.7461 37.1172 42.2578 37.1172C41.7656 37.1172 41.3242 37.0156 40.9336 36.8125C40.5469 36.6094 40.2441 36.3262 40.0254 35.9629C39.8066 35.5996 39.6992 35.1875 39.7031 34.7266C39.6992 34.2656 39.8066 33.8535 40.0254 33.4902C40.2441 33.127 40.5469 32.8438 40.9336 32.6406C41.3242 32.4375 41.7656 32.3359 42.2578 32.3359ZM42.2578 33.1094C41.9375 33.1094 41.6484 33.1797 41.3906 33.3203C41.1367 33.457 40.9375 33.6484 40.793 33.8945C40.6484 34.1406 40.5781 34.418 40.582 34.7266C40.5781 35.0391 40.6484 35.3184 40.793 35.5645C40.9375 35.8066 41.1367 35.9961 41.3906 36.1328C41.6484 36.2695 41.9375 36.3359 42.2578 36.332C42.5742 36.3359 42.8594 36.2695 43.1133 36.1328C43.3672 35.9961 43.5664 35.8066 43.7109 35.5645C43.8555 35.3184 43.9297 35.0391 43.9336 34.7266C43.9297 34.418 43.8555 34.1406 43.7109 33.8945C43.5664 33.6484 43.3672 33.457 43.1133 33.3203C42.8594 33.1797 42.5742 33.1094 42.2578 33.1094ZM58.1602 39.4727H57.2461V33.8125H55.2188V33.0391H57.2461V29.0312H58.1602V39.4727ZM54.5859 33.6484H50.8477V36.1797C51.8281 36.1797 52.6641 36.1582 53.3555 36.1152C54.0469 36.0684 54.75 35.9766 55.4648 35.8398L55.5352 36.6133C54.7969 36.7461 54.0684 36.8359 53.3496 36.8828C52.6348 36.9297 51.7617 36.957 50.7305 36.9648H49.9336V32.8867H53.6953V30.7656H49.8984V30.0039H54.5859V33.6484ZM70.9805 33.2734H72.668V34.0469H70.9805V39.4492H70.0664V29.0312H70.9805V33.2734ZM68.2852 30.1562C68.2852 31.707 67.8965 33.1133 67.1191 34.375C66.3418 35.6328 65.1367 36.6641 63.5039 37.4688L62.9883 36.7422C64.3281 36.0742 65.3652 35.25 66.0996 34.2695C66.834 33.2852 67.2539 32.1719 67.3594 30.9297H63.4688V30.1562H68.2852ZM81.9023 39.4492H80.9766V29.0312H81.9023V39.4492ZM78.8203 30.168C78.8125 31.7422 78.4141 33.1562 77.625 34.4102C76.8359 35.6602 75.6016 36.6875 73.9219 37.4922L73.418 36.7422C74.8086 36.082 75.873 35.2617 76.6113 34.2812C77.3535 33.3008 77.7773 32.1797 77.8828 30.918H73.8984V30.168H78.8203Z" fill="#636363"/>
<path d="M18 40.416H83.2383V41.2305H18V40.416Z" fill="#636363"/>
<path d="M90 34C90 33.8621 90.0585 33.7298 90.1627 33.6323C90.2669 33.5347 90.4082 33.48 90.5556 33.48H98.1041L95.3484 30.9005C95.2938 30.8529 95.25 30.7955 95.2197 30.7317C95.1893 30.6679 95.173 30.599 95.1717 30.5292C95.1704 30.4594 95.1841 30.39 95.212 30.3253C95.24 30.2605 95.2815 30.2017 95.3343 30.1523C95.3871 30.1029 95.4499 30.064 95.5191 30.0378C95.5883 30.0117 95.6624 29.9988 95.737 30.0001C95.8116 30.0013 95.8851 30.0166 95.9533 30.045C96.0214 30.0734 96.0828 30.1144 96.1336 30.1655L99.8375 33.6325C99.9416 33.73 100 33.8622 100 34C100 34.1378 99.9416 34.27 99.8375 34.3675L96.1336 37.8345C96.0828 37.8856 96.0214 37.9266 95.9533 37.955C95.8851 37.9834 95.8116 37.9987 95.737 37.9999C95.6624 38.0012 95.5883 37.9883 95.5191 37.9622C95.4499 37.936 95.3871 37.8971 95.3343 37.8477C95.2815 37.7983 95.24 37.7395 95.212 37.6747C95.1841 37.61 95.1704 37.5406 95.1717 37.4708C95.173 37.401 95.1893 37.3321 95.2197 37.2683C95.25 37.2045 95.2938 37.1471 95.3484 37.0995L98.1041 34.52H90.5556C90.4082 34.52 90.2669 34.4653 90.1627 34.3677C90.0585 34.2702 90 34.1379 90 34Z" fill="#ABABAB"/>
<path d="M185.5 10.5L191 16" stroke="#323232" stroke-width="0.75" stroke-linecap="round"/>
<path d="M185.5 16L191 10.5" stroke="#323232" stroke-width="0.75" stroke-linecap="round"/>
</g>
<path d="M0.738903 30.6709L7.87405 27.0509C7.93979 27.0176 8.01436 27 8.09027 27C8.16618 27 8.24075 27.0176 8.30648 27.0509C8.37222 27.0843 8.42681 27.1322 8.46477 27.19C8.50272 27.2478 8.5227 27.3133 8.52271 27.38V34.62C8.5227 34.6867 8.50272 34.7522 8.46477 34.81C8.42681 34.8678 8.37222 34.9157 8.30648 34.9491C8.24075 34.9824 8.16618 35 8.09027 35C8.01436 35 7.93979 34.9824 7.87405 34.9491L4.30648 33.1391L0.738903 31.3291C0.67317 31.2957 0.618585 31.2478 0.580635 31.19C0.542684 31.1322 0.522705 31.0667 0.522705 31C0.522705 30.9333 0.542684 30.8678 0.580635 30.81C0.618585 30.7522 0.67317 30.7043 0.738903 30.6709Z" fill="#FFFAE6"/>
<defs>
<filter id="filter0_d_2640_47863" x="4" y="0" width="203" height="56" filterUnits="userSpaceOnUse" color-interpolation-filters="sRGB">
<feFlood flood-opacity="0" result="BackgroundImageFix"/>
<feColorMatrix in="SourceAlpha" type="matrix" values="0 0 0 0 0 0 0 0 0 0 0 0 0 0 0 0 0 0 127 0" result="hardAlpha"/>
<feOffset dy="3"/>
<feGaussianBlur stdDeviation="2"/>
<feComposite in2="hardAlpha" operator="out"/>
<feColorMatrix type="matrix" values="0 0 0 0 0 0 0 0 0 0 0 0 0 0 0 0 0 0 0.1 0"/>
<feBlend mode="normal" in2="BackgroundImageFix" result="effect1_dropShadow_2640_47863"/>
<feBlend mode="normal" in="SourceGraphic" in2="effect1_dropShadow_2640_47863" result="shape"/>
</filter>
</defs>
</svg>
