<svg width="11" height="8" viewBox="0 0 11 8" fill="none" xmlns="http://www.w3.org/2000/svg">
<path d="M0.209717 4C0.209717 3.86207 0.268251 3.7298 0.372443 3.63227C0.476635 3.53474 0.61795 3.47995 0.765299 3.47995H8.31382L5.55813 0.900519C5.50354 0.852909 5.45976 0.795496 5.42939 0.731703C5.39903 0.667912 5.3827 0.599047 5.38138 0.52922C5.38007 0.459393 5.39379 0.390034 5.42173 0.325279C5.44968 0.260524 5.49127 0.2017 5.54402 0.152318C5.59678 0.102934 5.65962 0.0640039 5.7288 0.0378485C5.79798 0.011693 5.87208 -0.00115108 5.94668 8.05855e-05C6.02128 0.00131226 6.09485 0.0165954 6.163 0.0450191C6.23115 0.0734429 6.29249 0.114424 6.34335 0.165518L10.0472 3.6325C10.1513 3.73001 10.2097 3.86219 10.2097 4C10.2097 4.13781 10.1513 4.26999 10.0472 4.3675L6.34335 7.83448C6.29249 7.88557 6.23115 7.92656 6.163 7.95498C6.09485 7.9834 6.02128 7.99869 5.94668 7.99992C5.87208 8.00115 5.79798 7.98831 5.7288 7.96215C5.65962 7.936 5.59678 7.89706 5.54402 7.84768C5.49127 7.7983 5.44968 7.73948 5.42173 7.67472C5.39379 7.60997 5.38007 7.54061 5.38138 7.47078C5.3827 7.40095 5.39903 7.33209 5.42939 7.2683C5.45976 7.2045 5.50354 7.14709 5.55813 7.09948L8.31382 4.52005H0.765299C0.61795 4.52005 0.476635 4.46526 0.372443 4.36773C0.268251 4.2702 0.209717 4.13792 0.209717 4Z" fill="#ABABAB"/>
</svg>
