<svg width="16" height="16" viewBox="0 0 16 16" fill="none" xmlns="http://www.w3.org/2000/svg">
<path d="M8 15C11.866 15 15 11.866 15 8C15 4.13401 11.866 1 8 1C4.13401 1 1 4.13401 1 8C1 11.866 4.13401 15 8 15Z" fill="#DDDDDD"/>
<path d="M8 11.49V11.5M6 6.67125C6 5.74824 6.89543 5 8 5C9.10457 5 10 5.74824 10 6.67125C10 7.59426 9.10457 8.34251 8 8.34251C8 8.34251 7.99913 8.84134 7.99913 9.45668" stroke="white" stroke-linecap="round" stroke-linejoin="round"/>
<circle cx="7.94995" cy="11.25" r="0.75" fill="white"/>
</svg>
