<svg width="145" height="64" viewBox="0 0 145 64" fill="none" xmlns="http://www.w3.org/2000/svg">
<rect x="0.183594" y="8.86133" width="144" height="55.1385" rx="10" fill="#FFFAE6"/>
<path d="M16.043 26.4814H12.8086V29.2588H17.1445V30.0205H7.60547V29.2588H11.8945V26.4814H8.77734V21.8525H9.71484V25.708H16.043V26.4814ZM22.2305 25.7432H19.2188V28.1104C19.8828 28.1064 20.5039 28.085 21.082 28.0459C21.6602 28.0068 22.2656 27.9346 22.8984 27.8291L22.9805 28.5791C22.2969 28.7002 21.6484 28.7822 21.0352 28.8252C20.4219 28.8643 19.7461 28.8838 19.0078 28.8838H18.3281V24.9814H21.3398V22.8721H18.3047V22.0986H22.2305V25.7432ZM26.8828 31.3799H26.0039V25.8486H24.4688V30.8408H23.625V21.1963H24.4688V25.0869H26.0039V20.9619H26.8828V31.3799ZM36.7617 22.0518C36.7578 23.1338 36.6113 24.1318 36.3223 25.0459C36.0332 25.9561 35.5371 26.8057 34.834 27.5947C34.1309 28.3799 33.1797 29.0674 31.9805 29.6572L31.4648 28.9541C32.4219 28.4932 33.209 27.9658 33.8262 27.3721C34.4434 26.7744 34.9141 26.1143 35.2383 25.3916L31.6641 25.7314L31.5117 24.9229L35.5195 24.6533C35.6953 24.083 35.8047 23.4697 35.8477 22.8135H32.0391V22.0518H36.7617ZM39.4219 25.2041H41.1094V25.9775H39.4219V31.3799H38.5078V20.9619H39.4219V25.2041ZM50.1445 26.7393H42.9492V21.9346H50.0391V22.6963H43.8633V25.9775H50.1445V26.7393ZM51.2695 29.9619H41.7305V29.1885H51.2695V29.9619ZM61.6406 30.0908H52.1016V29.3174H56.3906V27.3486H53.2969V24.1377H59.5312V22.4971H53.2734V21.7354H60.4336V24.8877H54.2109V26.5869H60.6797V27.3486H57.293V29.3174H61.6406V30.0908ZM73.5469 25.0635H75.293V25.8604H73.5469V31.3799H72.6328V20.9619H73.5469V25.0635ZM66.832 24.6064H69.8789V21.8525H70.793V28.8838H65.918V21.8525H66.832V24.6064ZM69.8789 28.1104V25.3447H66.832V28.1104H69.8789ZM85.3828 25.4385H81.0469V26.7275H84.1641V29.3174H77.9414V30.5127H84.5039V31.2627H77.0156V28.6025H83.2383V27.4775H76.9922V26.7275H80.1445V25.4385H75.8555V24.6768H78.8438C79.0898 23.7822 79.2207 22.9307 79.2363 22.1221H76.7812V21.3486H80.1445V21.6885C80.1445 22.1299 80.123 22.5869 80.0801 23.0596C80.0371 23.5322 79.9355 24.0713 79.7754 24.6768H82.9922C83.2148 23.8096 83.334 22.958 83.3496 22.1221H80.9297V21.3486H84.2461V21.7002C84.2461 22.1572 84.2266 22.6182 84.1875 23.083C84.1484 23.5439 84.0566 24.0752 83.9121 24.6768H85.3828V25.4385ZM94.4648 21.9346C94.4648 22.4033 94.6465 22.8525 95.0098 23.2822C95.377 23.7119 95.8535 24.0732 96.4395 24.3662C97.0254 24.6592 97.6328 24.8486 98.2617 24.9346L97.8867 25.6846C97.3398 25.5947 96.8105 25.4385 96.2988 25.2158C95.7871 24.9893 95.3301 24.708 94.9277 24.3721C94.5254 24.0322 94.2148 23.6553 93.9961 23.2412C93.7812 23.6553 93.4707 24.0322 93.0645 24.3721C92.6621 24.708 92.2051 24.9893 91.6934 25.2158C91.1816 25.4385 90.6523 25.5947 90.1055 25.6846L89.7305 24.9346C90.3633 24.8486 90.9707 24.6611 91.5527 24.3721C92.1348 24.0791 92.6074 23.7197 92.9707 23.2939C93.334 22.8643 93.5156 22.4111 93.5156 21.9346V21.3369H94.4648V21.9346ZM98.7305 27.6064H94.418V31.3799H93.5156V27.6064H89.2383V26.833H98.7305V27.6064ZM106.148 27.958C106.148 28.4385 106.275 28.9014 106.529 29.3467C106.787 29.792 107.154 30.1494 107.631 30.4189C107.947 30.2197 108.221 29.9814 108.451 29.7041C108.682 29.4229 108.855 29.1318 108.973 28.8311C109.09 28.5264 109.148 28.2354 109.148 27.958V27.3838H110.051V27.958C110.051 28.3174 110.135 28.6689 110.303 29.0127C110.475 29.3525 110.721 29.6592 111.041 29.9326C111.361 30.2021 111.738 30.4111 112.172 30.5596L111.715 31.2393C111.203 31.0596 110.766 30.7979 110.402 30.4541C110.039 30.1104 109.766 29.7158 109.582 29.2705C109.41 29.7158 109.162 30.1201 108.838 30.4834C108.514 30.8467 108.121 31.126 107.66 31.3213C107.172 31.1338 106.762 30.8623 106.43 30.5068C106.102 30.1553 105.855 29.751 105.691 29.2939C105.5 29.7275 105.227 30.1143 104.871 30.4541C104.516 30.7939 104.094 31.0557 103.605 31.2393L103.137 30.5596C103.562 30.3994 103.934 30.1807 104.25 29.9033C104.57 29.6221 104.816 29.3115 104.988 28.9717C105.164 28.6318 105.254 28.2939 105.258 27.958V27.3838H106.148V27.958ZM111.223 26.9268H110.309V20.9736H111.223V26.9268ZM105.598 21.583C106.121 21.583 106.59 21.6865 107.004 21.8936C107.418 22.0967 107.742 22.3838 107.977 22.7549C108.211 23.1221 108.328 23.5439 108.328 24.0205C108.328 24.4893 108.211 24.9072 107.977 25.2744C107.742 25.6416 107.418 25.9268 107.004 26.1299C106.59 26.333 106.121 26.4346 105.598 26.4346C105.074 26.4346 104.605 26.333 104.191 26.1299C103.777 25.9268 103.453 25.6416 103.219 25.2744C102.984 24.9072 102.867 24.4893 102.867 24.0205C102.867 23.5439 102.984 23.1221 103.219 22.7549C103.453 22.3838 103.777 22.0967 104.191 21.8936C104.605 21.6865 105.074 21.583 105.598 21.583ZM105.598 22.3682C105.246 22.3643 104.93 22.4326 104.648 22.5732C104.371 22.7139 104.154 22.9111 103.998 23.165C103.842 23.415 103.766 23.7002 103.77 24.0205C103.766 24.3369 103.842 24.6201 103.998 24.8701C104.154 25.1201 104.371 25.3154 104.648 25.4561C104.93 25.5967 105.246 25.6689 105.598 25.6729C105.945 25.6689 106.258 25.5967 106.535 25.4561C106.812 25.3154 107.029 25.1201 107.186 24.8701C107.346 24.6201 107.426 24.3369 107.426 24.0205C107.426 23.7002 107.346 23.415 107.186 23.165C107.029 22.9111 106.812 22.7139 106.535 22.5732C106.258 22.4326 105.945 22.3643 105.598 22.3682ZM115.793 21.7705C116.262 21.7744 116.682 21.9053 117.053 22.1631C117.428 22.4209 117.73 22.7881 117.961 23.2646C118.191 23.7412 118.33 24.3018 118.377 24.9463H120.715V20.9619H121.629V31.4033H120.715V25.708H118.389C118.354 26.3799 118.223 26.9658 117.996 27.4658C117.77 27.9658 117.465 28.3506 117.082 28.6201C116.703 28.8896 116.273 29.0244 115.793 29.0244C115.285 29.0244 114.832 28.876 114.434 28.5791C114.039 28.2822 113.73 27.8604 113.508 27.3135C113.289 26.7666 113.18 26.1299 113.18 25.4033C113.18 24.6768 113.289 24.04 113.508 23.4932C113.73 22.9463 114.039 22.5244 114.434 22.2275C114.828 21.9268 115.281 21.7744 115.793 21.7705ZM115.793 22.5908C115.453 22.5947 115.15 22.7139 114.885 22.9482C114.623 23.1787 114.42 23.5068 114.275 23.9326C114.131 24.3545 114.059 24.8447 114.059 25.4033C114.059 25.9619 114.131 26.4541 114.275 26.8799C114.42 27.3018 114.623 27.6279 114.885 27.8584C115.15 28.0889 115.453 28.2041 115.793 28.2041C116.129 28.2041 116.428 28.0889 116.689 27.8584C116.955 27.6279 117.16 27.3018 117.305 26.8799C117.453 26.4541 117.527 25.9619 117.527 25.4033C117.527 24.8447 117.453 24.3545 117.305 23.9326C117.16 23.5068 116.957 23.1787 116.695 22.9482C116.434 22.7139 116.133 22.5947 115.793 22.5908ZM132.902 30.0439H123.363V29.2705H125.73V26.458C125.277 26.2236 124.926 25.9229 124.676 25.5557C124.426 25.1846 124.301 24.7666 124.301 24.3018C124.301 23.7705 124.463 23.3037 124.787 22.9014C125.111 22.4951 125.561 22.1807 126.135 21.958C126.713 21.7354 127.371 21.6221 128.109 21.6182C128.848 21.6221 129.504 21.7354 130.078 21.958C130.656 22.1807 131.107 22.4951 131.432 22.9014C131.756 23.3037 131.918 23.7705 131.918 24.3018C131.918 24.7588 131.797 25.1709 131.555 25.5381C131.312 25.9014 130.973 26.2002 130.535 26.4346V29.2705H132.902V30.0439ZM128.109 22.3799C127.543 22.376 127.039 22.4541 126.598 22.6143C126.156 22.7744 125.811 23.001 125.561 23.2939C125.314 23.583 125.191 23.9189 125.191 24.3018C125.191 24.6846 125.314 25.0244 125.561 25.3213C125.811 25.6143 126.156 25.8428 126.598 26.0068C127.039 26.167 127.543 26.2471 128.109 26.2471C128.672 26.2471 129.174 26.165 129.615 26.001C130.057 25.8369 130.402 25.6084 130.652 25.3154C130.902 25.0225 131.027 24.6846 131.027 24.3018C131.027 23.9189 130.902 23.583 130.652 23.2939C130.402 23.001 130.057 22.7744 129.615 22.6143C129.174 22.4541 128.672 22.376 128.109 22.3799ZM129.609 29.2705V26.792C129.145 26.9131 128.645 26.9736 128.109 26.9736C127.57 26.9736 127.078 26.915 126.633 26.7979V29.2705H129.609ZM135.34 28.04H134.355L134.273 21.9463H135.422L135.34 28.04ZM134.848 30.501C134.711 30.501 134.584 30.4678 134.467 30.4014C134.354 30.3311 134.262 30.2373 134.191 30.1201C134.125 30.0029 134.094 29.876 134.098 29.7393C134.094 29.6064 134.125 29.4834 134.191 29.3701C134.262 29.2529 134.354 29.1611 134.467 29.0947C134.584 29.0244 134.711 28.9893 134.848 28.9893C134.98 28.9893 135.104 29.0244 135.217 29.0947C135.334 29.1611 135.426 29.2529 135.492 29.3701C135.562 29.4834 135.598 29.6064 135.598 29.7393C135.598 29.876 135.562 30.0029 135.492 30.1201C135.426 30.2373 135.334 30.3311 135.217 30.4014C135.104 30.4678 134.98 30.501 134.848 30.501Z" fill="#8A8A8A"/>
<path d="M94.668 44.6328H96.4141V45.4297H94.668V50.9492H93.7539V40.5312H94.668V44.6328ZM87.9531 44.1758H91V41.4219H91.9141V48.4531H87.0391V41.4219H87.9531V44.1758ZM91 47.6797V44.9141H87.9531V47.6797H91ZM106.469 46.3672H102.168V50.9609H101.254V46.3672H96.9766V45.5938H99.7129C99.9043 44.8828 100.035 44.2383 100.105 43.6602C100.18 43.082 100.225 42.5352 100.24 42.0195H97.7383V41.2695H101.137V41.5859C101.137 42.1445 101.107 42.7383 101.049 43.3672C100.994 43.9961 100.863 44.7383 100.656 45.5938H104.078C104.238 44.875 104.346 44.2305 104.4 43.6602C104.455 43.0898 104.484 42.543 104.488 42.0195H101.91V41.2695H105.402V41.7266C105.402 42.2969 105.379 42.8828 105.332 43.4844C105.289 44.082 105.182 44.7852 105.01 45.5938H106.469V46.3672ZM115.961 50.9492H115.035V40.5312H115.961V50.9492ZM112.879 41.668C112.871 43.2422 112.473 44.6562 111.684 45.9102C110.895 47.1602 109.66 48.1875 107.98 48.9922L107.477 48.2422C108.867 47.582 109.932 46.7617 110.67 45.7812C111.412 44.8008 111.836 43.6797 111.941 42.418H107.957V41.668H112.879Z" fill="#505050"/>
<path d="M86.1836 51.916H117.297V52.7305H86.1836V51.916Z" fill="#505050"/>
<path d="M134.322 43.0087C133.454 41.509 131.83 40.5 129.97 40.5C127.862 40.5 126.057 41.7971 125.311 43.6359M132.796 43.6359H135.309V41.1272M125.67 48.026C126.538 49.5257 128.162 50.5347 130.022 50.5347C132.13 50.5347 133.936 49.2376 134.681 47.3989M127.196 47.3989H124.684V49.9076" stroke="#636363" stroke-width="1.2" stroke-linecap="round" stroke-linejoin="round"/>
<path d="M124.358 2.5C124.743 1.83333 125.705 1.83333 126.09 2.5L129.554 8.5C129.939 9.16667 129.458 10 128.688 10H121.76C120.99 10 120.509 9.16667 120.894 8.5L124.358 2.5Z" fill="#FFFAE6"/>
</svg>
