<svg width="145" height="64" viewBox="0 0 145 64" fill="none" xmlns="http://www.w3.org/2000/svg">
<rect x="0.367188" y="8.86157" width="144" height="55.1385" rx="10" fill="#FFFAE6"/>
<path d="M12.1602 22.1809V24.8997H13.7422V21.1848H14.6211V30.8528H13.7422V25.6614H12.1602V28.5793H8.17578V22.1809H12.1602ZM9.04297 22.9192V27.8411H11.293V22.9192H9.04297ZM16.7188 20.9622V31.3801H15.8281V20.9622H16.7188ZM27.6992 29.2708V30.0442H18.1602V29.2708H22.4492V26.7278H19.2852V21.8411H26.5156V26.7278H23.3516V29.2708H27.6992ZM20.1875 22.5793V25.9895H25.625V22.5793H20.1875ZM36.9453 22.052C36.9336 25.0637 35.9141 27.8176 32.1641 29.6575L31.6484 28.9543C33.6113 28.0051 34.7891 26.7981 35.4219 25.3918L31.8477 25.7317L31.6953 24.9231L35.7031 24.6536C35.8848 24.0676 35.9902 23.4524 36.0312 22.8137H32.2227V22.052H36.9453ZM39.6055 20.9622V25.2043H41.293V25.9778H39.6055V31.3801H38.6914V20.9622H39.6055ZM50.3281 25.9778V26.7395H43.1328V21.9348H50.2227V22.6965H44.0469V25.9778H50.3281ZM51.4531 29.1887V29.9622H41.9141V29.1887H51.4531ZM61.8242 29.3176V30.0911H52.2852V29.3176H56.5742V27.3489H53.4805V24.1379H59.7148V22.4973H53.457V21.7356H60.6172V24.8879H54.3945V26.5872H60.8633V27.3489H57.4766V29.3176H61.8242ZM73.7305 20.9622V25.0637H75.4766V25.8606H73.7305V31.3801H72.8164V20.9622H73.7305ZM67.0156 21.8528V24.6067H70.0625V21.8528H70.9766V28.884H66.1016V21.8528H67.0156ZM67.0156 28.1106H70.0625V25.345H67.0156V28.1106ZM85.5664 24.677V25.4387H81.2305V26.7278H84.3477V29.3176H78.125V30.5129H84.6875V31.2629H77.1992V28.6028H83.4219V27.4778H77.1758V26.7278H80.3281V25.4387H76.0391V24.677H79.0273C79.3379 23.5461 79.4082 22.7024 79.4258 22.1223H76.9648V21.3489H80.3281V21.6887C80.3281 22.2161 80.3281 23.2766 79.9648 24.677H83.1758C83.4629 23.552 83.5215 22.7141 83.5391 22.1223H81.1133V21.3489H84.4297V21.7004C84.4297 22.2747 84.4297 23.2942 84.1016 24.677H85.5664ZM94.6484 21.9348C94.6484 23.3997 96.5703 24.677 98.4453 24.9348L98.0703 25.6848C96.4531 25.4153 94.8535 24.5188 94.1797 23.2356C93.5117 24.5247 91.9062 25.4153 90.2891 25.6848L89.9141 24.9348C91.7891 24.677 93.6992 23.4231 93.6992 21.9348V21.3372H94.6484V21.9348ZM98.9141 26.8333V27.6067H94.6016V31.3801H93.6992V27.6067H89.4219V26.8333H98.9141ZM106.332 27.9583C106.332 28.8782 106.824 29.8567 107.82 30.4192C108.805 29.804 109.332 28.7668 109.332 27.9583V27.384H110.234V27.9583C110.234 29.0247 111.02 30.1028 112.355 30.5598L111.898 31.2395C110.855 30.8704 110.123 30.1438 109.766 29.2708C109.443 30.1145 108.805 30.9114 107.844 31.3215C106.83 30.9348 106.186 30.1672 105.875 29.2942C105.506 30.1379 104.785 30.8645 103.789 31.2395L103.32 30.5598C104.633 30.0676 105.43 28.9543 105.441 27.9583V27.384H106.332V27.9583ZM111.406 20.9739V26.927H110.492V20.9739H111.406ZM105.781 21.5833C107.363 21.5833 108.512 22.5676 108.512 24.0208C108.512 25.4504 107.363 26.4348 105.781 26.4348C104.199 26.4348 103.051 25.4504 103.051 24.0208C103.051 22.5676 104.199 21.5833 105.781 21.5833ZM105.781 22.3684C104.715 22.3567 103.941 23.0481 103.953 24.0208C103.941 24.9817 104.715 25.6614 105.781 25.6731C106.836 25.6614 107.609 24.9817 107.609 24.0208C107.609 23.0481 106.836 22.3567 105.781 22.3684ZM115.977 21.7708C117.395 21.7825 118.414 22.9954 118.566 24.9465H120.898V20.9622H121.812V31.4036H120.898V25.7083H118.578C118.467 27.7473 117.43 29.0247 115.977 29.0247C114.441 29.0247 113.363 27.6184 113.363 25.4036C113.363 23.1887 114.441 21.7825 115.977 21.7708ZM115.977 22.5911C114.945 22.6028 114.242 23.7043 114.242 25.4036C114.242 27.1028 114.945 28.2043 115.977 28.2043C116.996 28.2043 117.711 27.1028 117.711 25.4036C117.711 23.7043 116.996 22.6028 115.977 22.5911ZM133.086 29.2708V30.0442H123.547V29.2708H125.914V26.4583C125.023 25.9954 124.484 25.2454 124.484 24.302C124.484 22.6848 126.066 21.6301 128.293 21.6184C130.52 21.6301 132.102 22.6848 132.102 24.302C132.102 25.2278 131.58 25.9719 130.719 26.4348V29.2708H133.086ZM128.293 22.3801C126.582 22.3684 125.375 23.1418 125.375 24.302C125.375 25.4622 126.582 26.2473 128.293 26.2473C129.992 26.2473 131.211 25.4622 131.211 24.302C131.211 23.1418 129.992 22.3684 128.293 22.3801ZM126.816 29.2708H129.793V26.7864C129.342 26.9094 128.838 26.9739 128.293 26.9739C127.76 26.9739 127.262 26.9153 126.816 26.7981V29.2708ZM135.605 21.9465L135.523 28.0403H134.539L134.457 21.9465H135.605ZM135.031 30.5012C134.621 30.5012 134.27 30.1614 134.281 29.7395C134.27 29.3293 134.621 28.9895 135.031 28.9895C135.441 28.9895 135.781 29.3293 135.781 29.7395C135.781 30.1614 135.441 30.5012 135.031 30.5012Z" fill="#8A8A8A"/>
<path d="M94.8516 41.4419V45.5435H96.5977V46.3403H94.8516V51.8599H93.9375V41.4419H94.8516ZM88.1367 42.3325V45.0864H91.1836V42.3325H92.0977V49.3638H87.2227V42.3325H88.1367ZM88.1367 48.5903H91.1836V45.8247H88.1367V48.5903ZM106.652 46.5044V47.2778H102.352V51.8716H101.438V47.2778H97.1602V46.5044H99.9023C100.324 44.9048 100.4 43.6978 100.43 42.9302H97.9219V42.1802H101.32V42.4966C101.32 43.1587 101.32 44.5298 100.84 46.5044H104.262C104.625 44.8813 104.666 43.7036 104.672 42.9302H102.094V42.1802H105.586V42.6372C105.586 43.3521 105.586 44.6411 105.199 46.5044H106.652ZM116.145 41.4419V51.8599H115.219V41.4419H116.145ZM113.062 42.5786C113.051 45.5786 111.656 48.2271 108.164 49.9028L107.66 49.1528C110.479 47.8169 111.914 45.8188 112.125 43.3286H108.141V42.5786H113.062Z" fill="#505050"/>
<path d="M86.3672 52.8267H117.48V53.6411H86.3672V52.8267Z" fill="#505050"/>
<path d="M134.506 43.0087C133.637 41.509 132.014 40.5 130.154 40.5C128.045 40.5 126.24 41.7971 125.495 43.6359M132.98 43.6359H135.492V41.1272M125.853 48.026C126.722 49.5257 128.346 50.5347 130.205 50.5347C132.314 50.5347 134.119 49.2376 134.864 47.3989M127.379 47.3989H124.867V49.9076" stroke="#636363" stroke-width="1.2" stroke-linecap="round" stroke-linejoin="round"/>
<path d="M124.541 2.5C124.926 1.83333 125.888 1.83333 126.273 2.5L129.737 8.5C130.122 9.16667 129.641 10 128.871 10H121.943C121.173 10 120.692 9.16667 121.077 8.5L124.541 2.5Z" fill="#FFFAE6"/>
</svg>
