<svg width="25" height="24" viewBox="0 0 25 24" fill="none" xmlns="http://www.w3.org/2000/svg">
<path d="M16.4998 10.3457V9.77473C16.4998 8.86206 16.1048 7.98677 15.4015 7.34141C14.6983 6.69605 13.7445 6.3335 12.75 6.3335C11.7555 6.3335 10.8017 6.69605 10.0985 7.34141C9.39523 7.98677 9.00016 8.86206 9.00016 9.77473V10.3457C8.67029 10.3457 8.35378 10.4653 8.11961 10.6785C7.88544 10.8917 7.75258 11.1813 7.75 11.484V17.1952C7.75258 17.4979 7.88544 17.7874 8.11961 18.0006C8.35378 18.2139 8.67029 18.3335 9.00016 18.3335H16.4998C16.8297 18.3335 17.1462 18.2139 17.3804 18.0006C17.6146 17.7874 17.7474 17.4979 17.75 17.1952V11.4864C17.7481 11.1832 17.6156 10.8931 17.3813 10.6794C17.1471 10.4656 16.8302 10.3457 16.4998 10.3457ZM15.2503 10.3457H10.2497V9.77473C10.2435 9.47244 10.3041 9.17212 10.4277 8.89187C10.5513 8.61161 10.7355 8.35722 10.9691 8.14402C11.2027 7.93081 11.4809 7.7632 11.787 7.65127C12.0931 7.53935 12.4206 7.48543 12.75 7.49276C13.0794 7.48543 13.4069 7.53935 13.713 7.65127C14.0191 7.7632 14.2973 7.93081 14.5309 8.14402C14.7645 8.35722 14.9487 8.61161 15.0723 8.89187C15.1959 9.17212 15.2565 9.47244 15.2503 9.77473V10.3457Z" fill="#ABABAB"/>
</svg>
