<svg width="15" height="4" viewBox="0 0 15 4" fill="none" xmlns="http://www.w3.org/2000/svg">
<path d="M6.5 2C6.5 2.69036 7.05964 3.25 7.75 3.25C8.44036 3.25 9 2.69036 9 2C9 1.30964 8.44036 0.75 7.75 0.75C7.05964 0.75 6.5 1.30964 6.5 2Z" fill="#323232"/>
<path d="M12.5 2C12.5 2.69036 13.0596 3.25 13.75 3.25C14.4404 3.25 15 2.69036 15 2C15 1.30964 14.4404 0.75 13.75 0.75C13.0596 0.75 12.5 1.30964 12.5 2Z" fill="#323232"/>
<path d="M0.5 2C0.5 2.69036 1.05964 3.25 1.75 3.25C2.44036 3.25 3 2.69036 3 2C3 1.30964 2.44036 0.75 1.75 0.75C1.05964 0.75 0.5 1.30964 0.5 2Z" fill="#323232"/>
</svg>
