<svg width="25" height="25" viewBox="0 0 25 25" fill="none" xmlns="http://www.w3.org/2000/svg">
<path d="M11.0366 13.2344C11.0366 13.9247 11.5963 14.4844 12.2866 14.4844C12.977 14.4844 13.5366 13.9247 13.5366 13.2344C13.5366 12.544 12.977 11.9844 12.2866 11.9844C11.5963 11.9844 11.0366 12.544 11.0366 13.2344Z" fill="#ABABAB"/>
<path d="M17.0366 13.2344C17.0366 13.9247 17.5963 14.4844 18.2866 14.4844C18.977 14.4844 19.5366 13.9247 19.5366 13.2344C19.5366 12.544 18.977 11.9844 18.2866 11.9844C17.5963 11.9844 17.0366 12.544 17.0366 13.2344Z" fill="#ABABAB"/>
<path d="M5.03662 13.2344C5.03662 13.9247 5.59627 14.4844 6.28662 14.4844C6.97698 14.4844 7.53662 13.9247 7.53662 13.2344C7.53662 12.544 6.97698 11.9844 6.28662 11.9844C5.59627 11.9844 5.03662 12.544 5.03662 13.2344Z" fill="#ABABAB"/>
</svg>
