<svg width="19" height="20" viewBox="0 0 19 20" fill="none" xmlns="http://www.w3.org/2000/svg">
<rect y="0.0234375" width="19" height="19" rx="4" fill="white"/>
<path d="M15 4.71055C14.9999 4.60887 14.9773 4.50847 14.9338 4.41658C14.8903 4.3247 14.8269 4.24361 14.7482 4.17916C14.6696 4.11472 14.5776 4.06852 14.479 4.0439C14.3803 4.01928 14.2775 4.01684 14.1778 4.03677L7.30275 5.41182C7.14696 5.44297 7.00675 5.52711 6.90598 5.64994C6.80521 5.77277 6.7501 5.92672 6.75 6.0856V12.3517C6.52459 12.2994 6.29391 12.2731 6.0625 12.2733C4.92331 12.2733 4 12.8887 4 13.6484C4 14.4081 4.92331 15.0234 6.0625 15.0234C7.20169 15.0234 8.125 14.4081 8.125 13.6484V8.02442L13.625 6.92438V10.9767C13.3996 10.9243 13.1689 10.898 12.9375 10.8983C11.7983 10.8983 10.875 11.5136 10.875 12.2733C10.875 13.033 11.7983 13.6484 12.9375 13.6484C14.0767 13.6484 15 13.033 15 12.2733V4.71055Z" fill="#8A8A8A"/>
</svg>
