<svg xmlns="http://www.w3.org/2000/svg" width="24" height="24" viewBox="0 0 24 24" fill="none">
  <path fill-rule="evenodd" clip-rule="evenodd" d="M8.9375 1.4375C8.9375 1.18886 8.83873 0.950403 8.66291 0.774587C8.4871 0.598772 8.24864 0.5 8 0.5C7.75136 0.5 7.5129 0.598772 7.33709 0.774587C7.16127 0.950403 7.0625 1.18886 7.0625 1.4375V7.0625H1.4375C1.18886 7.0625 0.950403 7.16127 0.774587 7.33709C0.598772 7.5129 0.5 7.75136 0.5 8C0.5 8.24864 0.598772 8.4871 0.774587 8.66291C0.950403 8.83873 1.18886 8.9375 1.4375 8.9375H7.0625V14.5625C7.0625 14.8111 7.16127 15.0496 7.33709 15.2254C7.5129 15.4012 7.75136 15.5 8 15.5C8.24864 15.5 8.4871 15.4012 8.66291 15.2254C8.83873 15.0496 8.9375 14.8111 8.9375 14.5625V8.9375H14.5625C14.8111 8.9375 15.0496 8.83873 15.2254 8.66291C15.4012 8.4871 15.5 8.24864 15.5 8C15.5 7.75136 15.4012 7.5129 15.2254 7.33709C15.0496 7.16127 14.8111 7.0625 14.5625 7.0625H8.9375V1.4375Z" fill="#323232"/>
</svg>